<?xml version="1.0" encoding="UTF-8"?>
<svg xmlns="http://www.w3.org/2000/svg" xmlns:xlink="http://www.w3.org/1999/xlink" width="92pt" height="99pt" viewBox="0 0 92 99" version="1.1">
<g id="surface1">
<path style=" stroke:none;fill-rule:nonzero;fill:rgb(0%,0%,0%);fill-opacity:1;" d="M 4.042969 98.3125 C 3.671875 98.21875 3.65625 98.027344 3.988281 97.550781 C 4.222656 97.207031 5.078125 95.5 5.078125 95.375 C 5.078125 95.339844 5.125 95.277344 5.179688 95.230469 C 5.234375 95.183594 5.46875 94.769531 5.703125 94.308594 C 5.933594 93.84375 6.15625 93.40625 6.195312 93.332031 C 6.234375 93.261719 6.335938 93.050781 6.417969 92.867188 C 6.503906 92.683594 6.59375 92.519531 6.617188 92.5 C 6.640625 92.484375 6.785156 92.214844 6.9375 91.902344 C 7.089844 91.59375 7.242188 91.292969 7.28125 91.238281 C 7.316406 91.183594 7.546875 90.734375 7.792969 90.238281 C 8.035156 89.746094 8.328125 89.175781 8.4375 88.976562 C 8.546875 88.773438 9.0625 87.785156 9.578125 86.777344 C 11.496094 83.03125 12.273438 81.542969 12.429688 81.320312 C 12.496094 81.230469 12.621094 81.003906 12.710938 80.824219 C 12.964844 80.304688 13.75 78.816406 14.089844 78.203125 C 14.492188 77.480469 14.78125 76.945312 15.296875 75.964844 C 15.527344 75.527344 15.820312 74.996094 15.945312 74.792969 C 16.070312 74.585938 16.171875 74.394531 16.171875 74.371094 C 16.171875 74.34375 16.226562 74.242188 16.296875 74.144531 C 16.367188 74.046875 16.566406 73.699219 16.738281 73.371094 C 16.914062 73.039062 17.09375 72.726562 17.136719 72.671875 C 17.179688 72.617188 17.328125 72.347656 17.46875 72.070312 C 17.609375 71.796875 17.78125 71.492188 17.851562 71.394531 C 17.921875 71.296875 18.097656 70.980469 18.242188 70.695312 C 18.507812 70.179688 18.652344 69.917969 19.078125 69.210938 C 19.300781 68.839844 19.644531 68.214844 19.832031 67.847656 C 19.886719 67.734375 20 67.554688 20.082031 67.445312 C 20.164062 67.335938 20.328125 67.035156 20.449219 66.78125 C 20.574219 66.523438 20.722656 66.242188 20.785156 66.148438 C 20.847656 66.058594 21.042969 65.714844 21.21875 65.382812 C 21.394531 65.054688 21.570312 64.738281 21.613281 64.683594 C 21.65625 64.628906 21.777344 64.421875 21.882812 64.21875 C 21.984375 64.015625 22.109375 63.808594 22.15625 63.753906 C 22.207031 63.699219 22.277344 63.578125 22.316406 63.488281 C 22.355469 63.394531 22.414062 63.277344 22.449219 63.222656 C 22.484375 63.164062 22.714844 62.761719 22.960938 62.324219 C 23.203125 61.882812 23.523438 61.324219 23.664062 61.078125 C 23.808594 60.835938 23.921875 60.617188 23.921875 60.59375 C 23.921875 60.574219 24.054688 60.324219 24.214844 60.042969 C 24.375 59.757812 24.753906 59.078125 25.054688 58.527344 C 25.355469 57.980469 25.628906 57.484375 25.664062 57.429688 C 25.695312 57.375 25.800781 57.183594 25.894531 57.007812 C 26.195312 56.4375 27.082031 54.808594 27.183594 54.640625 C 27.238281 54.550781 27.402344 54.253906 27.550781 53.976562 C 27.695312 53.699219 27.921875 53.277344 28.054688 53.039062 C 28.183594 52.800781 28.402344 52.398438 28.539062 52.140625 C 28.671875 51.882812 28.875 51.511719 28.988281 51.308594 C 29.390625 50.582031 30.140625 49.078125 30.136719 48.996094 C 30.136719 48.949219 30.164062 48.914062 30.199219 48.914062 C 30.230469 48.914062 30.273438 48.859375 30.296875 48.796875 C 30.316406 48.730469 30.5625 48.261719 30.835938 47.75 C 31.113281 47.234375 31.445312 46.605469 31.574219 46.351562 C 31.707031 46.09375 31.839844 45.839844 31.871094 45.785156 C 31.90625 45.730469 32.144531 45.25 32.402344 44.71875 C 32.65625 44.1875 32.945312 43.644531 33.035156 43.507812 C 33.128906 43.371094 33.375 42.90625 33.585938 42.476562 C 33.792969 42.046875 34.019531 41.585938 34.082031 41.460938 C 34.144531 41.332031 34.21875 41.136719 34.246094 41.027344 C 34.269531 40.917969 34.421875 40.554688 34.582031 40.222656 C 34.746094 39.890625 34.894531 39.539062 34.917969 39.441406 C 34.945312 39.347656 35.003906 39.234375 35.058594 39.191406 C 35.109375 39.148438 35.152344 39.070312 35.152344 39.015625 C 35.152344 38.960938 35.242188 38.71875 35.355469 38.472656 C 35.46875 38.230469 35.660156 37.824219 35.777344 37.566406 C 35.898438 37.308594 36.125 36.742188 36.28125 36.300781 C 36.4375 35.863281 36.625 35.363281 36.691406 35.191406 C 36.902344 34.679688 37.035156 34.140625 37.109375 33.515625 C 37.175781 32.976562 37.167969 32.902344 37.050781 32.683594 C 36.917969 32.441406 36.917969 32.441406 36.519531 32.464844 C 36.300781 32.476562 36.046875 32.523438 35.953125 32.570312 C 35.859375 32.621094 35.679688 32.707031 35.550781 32.765625 C 35.175781 32.945312 34.789062 33.171875 34.28125 33.515625 C 34.019531 33.695312 33.707031 33.898438 33.585938 33.972656 C 33.464844 34.046875 33.324219 34.152344 33.269531 34.207031 C 33.214844 34.261719 33.058594 34.378906 32.925781 34.472656 C 32.789062 34.5625 32.679688 34.65625 32.679688 34.683594 C 32.679688 34.707031 32.523438 34.839844 32.332031 34.980469 C 32.144531 35.117188 31.894531 35.316406 31.785156 35.417969 C 31.671875 35.519531 31.558594 35.601562 31.535156 35.601562 C 31.515625 35.601562 31.363281 35.71875 31.203125 35.859375 C 31.039062 36.003906 30.589844 36.394531 30.207031 36.734375 C 29.820312 37.070312 29.378906 37.472656 29.230469 37.625 C 29.078125 37.773438 28.839844 37.988281 28.699219 38.097656 C 28.558594 38.207031 28.304688 38.445312 28.136719 38.625 C 27.96875 38.800781 27.476562 39.296875 27.039062 39.722656 C 26.605469 40.148438 26.214844 40.535156 26.171875 40.582031 C 26.128906 40.632812 25.960938 40.8125 25.792969 40.984375 C 25.628906 41.160156 25.269531 41.554688 24.992188 41.859375 C 24.71875 42.167969 24.300781 42.617188 24.070312 42.855469 C 23.835938 43.09375 23.589844 43.363281 23.519531 43.457031 C 23.09375 44.003906 22.925781 44.257812 22.78125 44.570312 C 22.695312 44.761719 22.597656 44.921875 22.570312 44.921875 C 22.542969 44.921875 22.519531 44.96875 22.519531 45.027344 C 22.519531 45.085938 22.460938 45.21875 22.382812 45.324219 C 22.308594 45.425781 22.214844 45.613281 22.171875 45.734375 C 22.132812 45.851562 22.046875 46.027344 21.984375 46.117188 C 21.921875 46.210938 21.773438 46.507812 21.652344 46.785156 C 21.53125 47.058594 21.410156 47.3125 21.382812 47.347656 C 21.355469 47.386719 21.175781 47.714844 20.988281 48.082031 C 20.800781 48.445312 20.617188 48.792969 20.585938 48.847656 C 20.550781 48.902344 20.460938 49.097656 20.378906 49.277344 C 20.136719 49.828125 19.164062 51.800781 19.089844 51.898438 C 18.992188 52.019531 18.578125 52.972656 18.578125 53.070312 C 18.578125 53.113281 18.523438 53.203125 18.457031 53.277344 C 18.394531 53.347656 18.269531 53.570312 18.183594 53.769531 C 18.097656 53.972656 17.773438 54.652344 17.464844 55.28125 C 17.160156 55.910156 16.90625 56.441406 16.90625 56.457031 C 16.90625 56.472656 16.589844 57.132812 16.207031 57.925781 C 15.820312 58.71875 15.503906 59.378906 15.503906 59.390625 C 15.503906 59.40625 15.292969 59.855469 15.035156 60.390625 C 14.78125 60.925781 14.550781 61.433594 14.527344 61.527344 C 14.503906 61.617188 14.464844 61.691406 14.433594 61.691406 C 14.40625 61.691406 14.367188 61.742188 14.347656 61.804688 C 14.324219 61.871094 14.265625 61.996094 14.210938 62.089844 C 14.078125 62.316406 13.566406 63.402344 13.566406 63.457031 C 13.566406 63.480469 13.359375 63.925781 13.109375 64.441406 C 12.855469 64.960938 12.625 65.457031 12.597656 65.550781 C 12.570312 65.640625 12.335938 66.152344 12.082031 66.679688 C 11.601562 67.675781 11.226562 68.558594 11.226562 68.691406 C 11.226562 68.734375 11.183594 68.8125 11.132812 68.871094 C 11.078125 68.929688 10.941406 69.21875 10.824219 69.511719 C 10.703125 69.800781 10.507812 70.230469 10.382812 70.460938 C 10.257812 70.6875 10.15625 70.90625 10.15625 70.941406 C 10.15625 70.976562 10.050781 71.238281 9.921875 71.519531 C 9.789062 71.804688 9.65625 72.097656 9.628906 72.171875 C 9.542969 72.378906 9.152344 73.277344 9.046875 73.511719 C 8.996094 73.628906 8.953125 73.75 8.953125 73.785156 C 8.953125 73.820312 8.863281 74.019531 8.753906 74.222656 C 8.644531 74.429688 8.554688 74.640625 8.554688 74.695312 C 8.554688 74.753906 8.488281 74.9375 8.410156 75.113281 C 8.207031 75.5625 8.183594 75.625 7.921875 76.316406 C 7.710938 76.871094 7.386719 77.65625 7.214844 78.027344 C 7.105469 78.261719 6.742188 79.152344 6.671875 79.359375 C 6.636719 79.46875 6.5625 79.648438 6.515625 79.757812 C 6.316406 80.210938 6.089844 80.773438 6.011719 81.023438 C 5.964844 81.167969 5.828125 81.492188 5.699219 81.742188 C 5.476562 82.195312 4.878906 83.550781 4.878906 83.617188 C 4.878906 83.648438 4.703125 84.023438 4.179688 85.113281 C 4.046875 85.390625 3.875 85.71875 3.800781 85.847656 C 3.722656 85.976562 3.585938 86.214844 3.496094 86.378906 C 3.40625 86.542969 3.210938 86.890625 3.066406 87.144531 C 2.921875 87.402344 2.785156 87.664062 2.761719 87.726562 C 2.742188 87.792969 2.691406 87.839844 2.648438 87.832031 C 2.605469 87.824219 2.503906 87.855469 2.417969 87.902344 C 2.195312 88.023438 2.175781 87.964844 2.335938 87.621094 C 2.410156 87.453125 2.472656 87.304688 2.472656 87.289062 C 2.472656 87.273438 2.601562 87.023438 2.761719 86.738281 C 3.503906 85.398438 4.078125 84.300781 4.078125 84.210938 C 4.078125 84.1875 4.195312 83.925781 4.335938 83.628906 C 4.480469 83.328125 4.757812 82.726562 4.949219 82.285156 C 5.140625 81.847656 5.355469 81.359375 5.421875 81.207031 C 5.492188 81.050781 5.546875 80.910156 5.546875 80.890625 C 5.546875 80.871094 5.605469 80.726562 5.671875 80.574219 C 5.859375 80.15625 6.355469 78.960938 6.808594 77.828125 C 7.027344 77.277344 7.285156 76.65625 7.378906 76.445312 C 7.472656 76.234375 7.703125 75.667969 7.890625 75.183594 C 8.078125 74.699219 8.328125 74.078125 8.449219 73.800781 C 8.644531 73.359375 9.082031 72.34375 9.324219 71.773438 C 9.367188 71.664062 9.46875 71.429688 9.546875 71.257812 C 9.625 71.085938 9.691406 70.929688 9.691406 70.914062 C 9.691406 70.898438 9.792969 70.664062 9.917969 70.398438 C 10.042969 70.128906 10.523438 69.082031 10.984375 68.070312 C 11.445312 67.058594 11.972656 65.90625 12.164062 65.507812 C 12.351562 65.109375 12.53125 64.722656 12.5625 64.652344 C 12.59375 64.578125 12.800781 64.144531 13.019531 63.6875 C 13.238281 63.230469 13.441406 62.78125 13.46875 62.6875 C 13.496094 62.597656 13.539062 62.507812 13.566406 62.488281 C 13.597656 62.46875 13.757812 62.148438 13.925781 61.769531 C 14.097656 61.394531 14.464844 60.613281 14.742188 60.039062 C 15.019531 59.464844 15.339844 58.800781 15.453125 58.5625 C 15.566406 58.324219 15.984375 57.460938 16.382812 56.640625 C 16.78125 55.824219 17.109375 55.140625 17.109375 55.125 C 17.109375 55.109375 17.613281 54.070312 18.234375 52.820312 C 18.855469 51.566406 19.382812 50.476562 19.40625 50.394531 C 19.433594 50.3125 19.480469 50.242188 19.511719 50.242188 C 19.542969 50.242188 19.589844 50.175781 19.617188 50.09375 C 19.640625 50.011719 20.003906 49.253906 20.421875 48.410156 C 20.839844 47.570312 21.183594 46.859375 21.183594 46.835938 C 21.183594 46.8125 21.308594 46.578125 21.457031 46.316406 C 21.636719 46 21.707031 45.8125 21.664062 45.769531 C 21.621094 45.726562 21.570312 45.757812 21.515625 45.859375 C 21.46875 45.949219 21.375 46.078125 21.304688 46.152344 C 21.011719 46.464844 20.726562 46.832031 20.628906 47.015625 C 20.574219 47.125 20.40625 47.335938 20.261719 47.480469 C 20.117188 47.628906 19.914062 47.882812 19.8125 48.046875 C 19.710938 48.210938 19.527344 48.460938 19.402344 48.597656 C 19.28125 48.734375 19.179688 48.878906 19.179688 48.917969 C 19.179688 48.957031 19.074219 49.097656 18.949219 49.234375 C 18.574219 49.628906 18.257812 50.03125 18.101562 50.3125 C 18.019531 50.457031 17.925781 50.578125 17.898438 50.578125 C 17.867188 50.578125 17.84375 50.609375 17.84375 50.644531 C 17.84375 50.753906 17.289062 51.390625 17.140625 51.449219 C 17.105469 51.464844 16.984375 51.589844 16.875 51.730469 C 16.46875 52.242188 16.304688 52.535156 16.304688 52.742188 C 16.304688 52.871094 16.238281 53.027344 16.136719 53.144531 C 16.046875 53.25 15.972656 53.398438 15.972656 53.476562 C 15.972656 53.550781 15.902344 53.675781 15.820312 53.75 C 15.738281 53.824219 15.636719 53.941406 15.597656 54.011719 C 15.53125 54.125 15.507812 54.128906 15.347656 54.042969 C 15.113281 53.917969 15.125 53.761719 15.40625 53.242188 C 15.53125 53.003906 15.636719 52.789062 15.636719 52.761719 C 15.636719 52.734375 15.710938 52.601562 15.804688 52.46875 C 15.894531 52.332031 16.003906 52.101562 16.042969 51.949219 C 16.085938 51.800781 16.175781 51.605469 16.246094 51.519531 C 16.316406 51.429688 16.371094 51.328125 16.371094 51.292969 C 16.371094 51.21875 17.3125 49.28125 17.949219 48.046875 C 18.183594 47.589844 18.558594 46.851562 18.785156 46.402344 C 19.011719 45.953125 19.234375 45.554688 19.289062 45.511719 C 19.339844 45.46875 19.378906 45.386719 19.382812 45.328125 C 19.382812 45.269531 19.515625 44.964844 19.679688 44.652344 C 20.070312 43.914062 20.648438 42.742188 20.648438 42.6875 C 20.648438 42.664062 20.75 42.492188 20.878906 42.304688 C 21.003906 42.113281 21.359375 41.460938 21.667969 40.855469 C 21.976562 40.246094 22.292969 39.660156 22.375 39.546875 C 22.453125 39.433594 22.519531 39.300781 22.519531 39.25 C 22.519531 39.199219 22.574219 39.097656 22.640625 39.027344 C 22.707031 38.957031 22.8125 38.769531 22.875 38.609375 C 22.9375 38.453125 23.046875 38.261719 23.117188 38.1875 C 23.1875 38.113281 23.261719 37.984375 23.285156 37.898438 C 23.324219 37.738281 24.445312 35.707031 24.660156 35.402344 C 24.722656 35.3125 24.84375 35.09375 24.925781 34.921875 C 25.007812 34.746094 25.097656 34.605469 25.125 34.605469 C 25.15625 34.605469 25.257812 34.433594 25.355469 34.222656 C 25.554688 33.796875 25.535156 33.832031 25.957031 33.132812 C 26.125 32.855469 26.261719 32.601562 26.261719 32.566406 C 26.265625 32.503906 26.605469 31.96875 26.75 31.808594 C 26.796875 31.753906 26.9375 31.5 27.0625 31.246094 C 27.183594 30.988281 27.382812 30.644531 27.5 30.480469 C 27.621094 30.316406 27.761719 30.074219 27.816406 29.945312 C 27.867188 29.820312 27.960938 29.671875 28.023438 29.621094 C 28.085938 29.574219 28.132812 29.507812 28.132812 29.480469 C 28.132812 29.453125 28.304688 29.152344 28.511719 28.808594 C 29.019531 27.960938 29.308594 27.449219 29.511719 27.035156 C 29.605469 26.84375 29.707031 26.6875 29.742188 26.6875 C 29.777344 26.6875 29.804688 26.652344 29.804688 26.609375 C 29.804688 26.566406 29.941406 26.3125 30.105469 26.050781 C 30.269531 25.785156 30.40625 25.546875 30.40625 25.515625 C 30.40625 25.488281 30.457031 25.40625 30.523438 25.335938 C 30.671875 25.175781 30.925781 24.734375 31.273438 24.039062 C 31.421875 23.738281 31.574219 23.492188 31.609375 23.492188 C 31.644531 23.492188 31.675781 23.4375 31.675781 23.367188 C 31.675781 23.296875 31.71875 23.207031 31.773438 23.160156 C 31.828125 23.117188 31.890625 23.015625 31.917969 22.9375 C 31.941406 22.859375 32.039062 22.671875 32.132812 22.527344 C 32.230469 22.378906 32.40625 22.066406 32.53125 21.832031 C 32.652344 21.597656 32.804688 21.328125 32.867188 21.234375 C 33.074219 20.917969 33.144531 20.796875 33.230469 20.628906 C 33.273438 20.539062 33.40625 20.328125 33.523438 20.160156 C 33.644531 19.996094 33.773438 19.785156 33.8125 19.695312 C 33.917969 19.460938 34.054688 19.230469 34.140625 19.148438 C 34.179688 19.105469 34.214844 19.035156 34.214844 18.988281 C 34.214844 18.945312 34.285156 18.832031 34.367188 18.742188 C 34.453125 18.652344 34.5625 18.492188 34.617188 18.390625 C 34.871094 17.90625 35.492188 16.820312 35.773438 16.371094 C 35.945312 16.097656 36.085938 15.847656 36.085938 15.816406 C 36.085938 15.785156 36.175781 15.644531 36.285156 15.503906 C 36.398438 15.367188 36.488281 15.238281 36.488281 15.21875 C 36.488281 15.175781 36.796875 14.660156 37.21875 14 C 37.386719 13.738281 37.671875 13.277344 37.855469 12.976562 C 38.039062 12.675781 38.289062 12.300781 38.40625 12.136719 C 38.527344 11.976562 38.625 11.804688 38.625 11.753906 C 38.625 11.703125 38.6875 11.585938 38.761719 11.492188 C 38.976562 11.222656 39.359375 10.640625 39.359375 10.585938 C 39.359375 10.5625 39.417969 10.480469 39.484375 10.40625 C 39.554688 10.332031 39.695312 10.140625 39.796875 9.976562 C 39.894531 9.816406 40.1875 9.394531 40.4375 9.042969 C 40.691406 8.691406 40.898438 8.375 40.898438 8.34375 C 40.898438 8.308594 40.949219 8.234375 41.015625 8.171875 C 41.078125 8.113281 41.199219 7.964844 41.285156 7.84375 C 41.859375 7.007812 42.773438 5.820312 43.128906 5.457031 C 43.359375 5.21875 43.625 4.917969 43.71875 4.792969 C 43.816406 4.664062 44.070312 4.378906 44.28125 4.160156 C 44.496094 3.941406 44.734375 3.675781 44.8125 3.578125 C 44.988281 3.347656 45.472656 2.996094 45.609375 2.996094 C 45.664062 2.996094 45.707031 2.964844 45.707031 2.929688 C 45.707031 2.84375 45.78125 2.84375 45.910156 2.929688 C 46 2.988281 45.996094 3.007812 45.902344 3.078125 C 45.84375 3.125 45.777344 3.242188 45.753906 3.34375 C 45.726562 3.453125 45.648438 3.539062 45.558594 3.566406 C 45.476562 3.585938 45.09375 3.964844 44.707031 4.402344 C 44.320312 4.84375 43.945312 5.269531 43.871094 5.355469 C 43.25 6.058594 43.035156 6.320312 43.035156 6.371094 C 43.035156 6.402344 42.914062 6.5625 42.761719 6.722656 C 42.613281 6.886719 42.449219 7.105469 42.394531 7.203125 C 42.339844 7.304688 42.269531 7.386719 42.238281 7.386719 C 42.167969 7.386719 41.699219 8.023438 41.699219 8.117188 C 41.699219 8.15625 41.675781 8.183594 41.644531 8.183594 C 41.589844 8.183594 41.335938 8.542969 41.003906 9.078125 C 40.800781 9.410156 40.53125 9.8125 40.496094 9.847656 C 40.390625 9.945312 39.960938 10.574219 39.960938 10.632812 C 39.960938 10.667969 39.917969 10.714844 39.863281 10.738281 C 39.8125 10.757812 39.703125 10.902344 39.621094 11.058594 C 39.542969 11.21875 39.457031 11.359375 39.429688 11.378906 C 39.40625 11.398438 39.363281 11.457031 39.339844 11.511719 C 39.3125 11.566406 39.171875 11.792969 39.027344 12.011719 C 38.882812 12.230469 38.683594 12.5625 38.585938 12.742188 C 38.488281 12.925781 38.355469 13.136719 38.289062 13.210938 C 38.164062 13.347656 37.953125 13.6875 37.808594 13.976562 C 37.761719 14.066406 37.695312 14.175781 37.65625 14.214844 C 37.621094 14.253906 37.519531 14.40625 37.433594 14.546875 C 37.347656 14.691406 37.070312 15.136719 36.820312 15.539062 C 36.566406 15.941406 36.316406 16.347656 36.265625 16.4375 C 36.191406 16.574219 35.929688 17.015625 35.085938 18.433594 C 34.519531 19.386719 33.941406 20.328125 33.773438 20.566406 C 33.660156 20.734375 33.503906 21.007812 33.425781 21.179688 C 33.351562 21.351562 33.203125 21.617188 33.09375 21.777344 C 32.988281 21.933594 32.828125 22.203125 32.742188 22.378906 C 32.65625 22.550781 32.53125 22.753906 32.460938 22.828125 C 32.390625 22.902344 32.304688 23.058594 32.261719 23.175781 C 32.222656 23.296875 32.121094 23.488281 32.035156 23.601562 C 31.945312 23.71875 31.875 23.847656 31.875 23.886719 C 31.875 23.925781 31.847656 23.957031 31.808594 23.957031 C 31.773438 23.957031 31.742188 24.003906 31.742188 24.058594 C 31.742188 24.113281 31.710938 24.15625 31.675781 24.15625 C 31.640625 24.15625 31.609375 24.210938 31.609375 24.277344 C 31.609375 24.34375 31.546875 24.464844 31.46875 24.550781 C 31.390625 24.632812 31.214844 24.914062 31.082031 25.179688 C 30.949219 25.441406 30.773438 25.75 30.691406 25.863281 C 30.605469 25.980469 30.539062 26.101562 30.539062 26.136719 C 30.539062 26.171875 30.480469 26.25 30.410156 26.3125 C 30.339844 26.378906 30.222656 26.574219 30.144531 26.753906 C 30.066406 26.933594 29.976562 27.09375 29.941406 27.117188 C 29.90625 27.136719 29.804688 27.3125 29.710938 27.507812 C 29.617188 27.703125 29.496094 27.902344 29.441406 27.949219 C 29.382812 27.996094 29.335938 28.0625 29.335938 28.101562 C 29.335938 28.140625 29.175781 28.445312 28.976562 28.777344 C 28.777344 29.109375 28.53125 29.546875 28.425781 29.746094 C 28.324219 29.949219 28.195312 30.15625 28.144531 30.210938 C 28.089844 30.265625 28.007812 30.40625 27.953125 30.53125 C 27.902344 30.652344 27.726562 30.945312 27.558594 31.183594 C 27.394531 31.421875 27.222656 31.710938 27.183594 31.828125 C 27.144531 31.945312 27.058594 32.101562 26.992188 32.175781 C 26.929688 32.25 26.738281 32.574219 26.570312 32.894531 C 26.402344 33.214844 26.207031 33.566406 26.132812 33.671875 C 26.054688 33.773438 25.996094 33.878906 25.996094 33.898438 C 25.996094 33.917969 25.886719 34.109375 25.75 34.316406 C 25.617188 34.527344 25.339844 35.015625 25.136719 35.398438 C 24.933594 35.785156 24.714844 36.191406 24.648438 36.300781 C 24.582031 36.410156 24.46875 36.613281 24.394531 36.746094 C 24.320312 36.882812 24.230469 37.011719 24.195312 37.03125 C 24.15625 37.054688 24.066406 37.214844 23.988281 37.382812 C 23.914062 37.554688 23.8125 37.742188 23.761719 37.796875 C 23.710938 37.851562 23.648438 37.972656 23.621094 38.066406 C 23.59375 38.15625 23.503906 38.320312 23.421875 38.429688 C 23.34375 38.542969 23.171875 38.839844 23.042969 39.097656 C 22.914062 39.351562 22.777344 39.621094 22.738281 39.695312 C 22.699219 39.769531 22.597656 39.980469 22.511719 40.160156 C 22.425781 40.34375 22.199219 40.761719 22.003906 41.085938 C 21.808594 41.410156 21.652344 41.695312 21.652344 41.71875 C 21.652344 41.742188 21.425781 42.191406 21.152344 42.714844 C 20.875 43.238281 20.648438 43.691406 20.648438 43.71875 C 20.648438 43.75 20.605469 43.808594 20.550781 43.855469 C 20.492188 43.902344 20.449219 43.980469 20.449219 44.03125 C 20.449219 44.132812 20.375 44.289062 19.929688 45.121094 C 19.785156 45.394531 19.640625 45.695312 19.613281 45.785156 C 19.585938 45.875 19.511719 46.011719 19.449219 46.085938 C 19.386719 46.15625 19.28125 46.351562 19.21875 46.515625 C 19.152344 46.683594 19.035156 46.90625 18.953125 47.015625 C 18.871094 47.125 18.765625 47.320312 18.714844 47.449219 C 18.664062 47.578125 18.363281 48.21875 18.042969 48.878906 C 17.417969 50.160156 17.257812 50.546875 17.324219 50.617188 C 17.386719 50.675781 17.691406 50.308594 17.742188 50.121094 C 17.804688 49.878906 18.535156 48.878906 19.378906 47.878906 C 19.507812 47.726562 19.703125 47.488281 19.8125 47.34375 C 19.925781 47.199219 20.121094 46.964844 20.25 46.816406 C 20.691406 46.316406 21.09375 45.820312 21.21875 45.617188 C 21.289062 45.507812 21.464844 45.28125 21.613281 45.117188 C 21.761719 44.949219 22.019531 44.640625 22.1875 44.429688 C 22.351562 44.21875 22.542969 43.984375 22.613281 43.90625 C 22.769531 43.734375 23.390625 42.554688 23.390625 42.425781 C 23.390625 42.375 23.429688 42.308594 23.476562 42.277344 C 23.523438 42.25 23.769531 41.804688 24.023438 41.292969 C 24.273438 40.78125 24.597656 40.171875 24.738281 39.945312 C 24.878906 39.714844 24.992188 39.488281 24.992188 39.4375 C 24.992188 39.386719 25.0625 39.246094 25.148438 39.121094 C 25.234375 38.996094 25.386719 38.726562 25.488281 38.527344 C 25.71875 38.070312 26.171875 37.222656 26.457031 36.703125 C 26.578125 36.480469 26.84375 35.988281 27.046875 35.601562 C 27.414062 34.914062 27.832031 34.160156 28.132812 33.640625 C 28.21875 33.492188 28.367188 33.222656 28.46875 33.042969 C 28.566406 32.859375 28.863281 32.328125 29.125 31.863281 C 29.390625 31.394531 29.605469 31.003906 29.605469 30.988281 C 29.605469 30.972656 29.722656 30.761719 29.871094 30.519531 C 30.019531 30.28125 30.136719 30.066406 30.136719 30.050781 C 30.136719 30.035156 30.230469 29.886719 30.339844 29.722656 C 30.449219 29.5625 30.539062 29.40625 30.539062 29.375 C 30.539062 29.335938 30.796875 28.886719 31.210938 28.214844 C 31.246094 28.160156 31.332031 28.011719 31.40625 27.882812 C 31.484375 27.753906 31.574219 27.605469 31.609375 27.550781 C 31.734375 27.355469 32.277344 26.414062 32.277344 26.386719 C 32.277344 26.371094 32.355469 26.246094 32.449219 26.105469 C 32.546875 25.96875 32.652344 25.792969 32.6875 25.722656 C 32.71875 25.648438 32.804688 25.5 32.878906 25.386719 C 32.949219 25.277344 33.039062 25.128906 33.078125 25.054688 C 33.113281 24.980469 33.28125 24.710938 33.441406 24.457031 C 33.605469 24.199219 33.742188 23.972656 33.746094 23.949219 C 33.746094 23.902344 34.066406 23.378906 34.433594 22.8125 C 34.570312 22.605469 34.683594 22.417969 34.683594 22.402344 C 34.683594 22.382812 34.828125 22.148438 35.003906 21.882812 C 35.183594 21.613281 35.34375 21.351562 35.367188 21.296875 C 35.390625 21.242188 35.605469 20.894531 35.847656 20.53125 C 36.089844 20.164062 36.316406 19.800781 36.351562 19.71875 C 36.382812 19.640625 36.515625 19.429688 36.640625 19.253906 C 36.769531 19.078125 36.925781 18.828125 36.988281 18.699219 C 37.054688 18.570312 37.34375 18.113281 37.632812 17.675781 C 37.921875 17.242188 38.15625 16.875 38.15625 16.863281 C 38.15625 16.847656 38.359375 16.523438 38.609375 16.140625 C 39.320312 15.046875 39.585938 14.628906 39.695312 14.441406 C 39.859375 14.160156 40.316406 13.476562 40.363281 13.441406 C 40.390625 13.425781 40.449219 13.335938 40.496094 13.242188 C 40.65625 12.9375 41.058594 12.34375 41.144531 12.292969 C 41.191406 12.261719 41.230469 12.210938 41.230469 12.175781 C 41.230469 12.140625 41.34375 11.945312 41.480469 11.738281 C 41.621094 11.53125 41.761719 11.3125 41.800781 11.253906 C 41.835938 11.195312 41.933594 11.050781 42.015625 10.9375 C 42.101562 10.820312 42.167969 10.703125 42.167969 10.679688 C 42.167969 10.652344 42.273438 10.5 42.402344 10.34375 C 42.53125 10.1875 42.636719 10.042969 42.636719 10.019531 C 42.636719 9.996094 42.882812 9.617188 43.1875 9.179688 C 43.488281 8.738281 43.828125 8.234375 43.9375 8.058594 C 44.046875 7.882812 44.214844 7.640625 44.308594 7.515625 C 44.402344 7.390625 44.566406 7.136719 44.671875 6.953125 C 44.777344 6.769531 44.878906 6.605469 44.902344 6.589844 C 44.972656 6.53125 46.089844 4.832031 46.203125 4.613281 C 46.261719 4.496094 46.394531 4.269531 46.5 4.113281 C 46.601562 3.957031 46.773438 3.632812 46.875 3.394531 C 46.976562 3.15625 47.089844 2.933594 47.121094 2.898438 C 47.199219 2.8125 47.195312 2.613281 47.113281 2.5625 C 47.074219 2.539062 46.898438 2.484375 46.714844 2.433594 C 46.402344 2.355469 46.371094 2.359375 46.246094 2.492188 C 46.171875 2.574219 46.109375 2.671875 46.109375 2.714844 C 46.109375 2.757812 46.046875 2.796875 45.972656 2.796875 C 45.75 2.796875 45.84375 2.582031 46.128906 2.429688 C 46.265625 2.355469 46.375 2.265625 46.375 2.226562 C 46.378906 2.097656 46.882812 1.664062 47.027344 1.664062 C 47.109375 1.664062 47.25 1.628906 47.339844 1.589844 C 47.476562 1.527344 47.539062 1.53125 47.675781 1.621094 C 47.8125 1.710938 47.847656 1.789062 47.847656 1.996094 C 47.847656 2.246094 47.550781 3.121094 47.4375 3.195312 C 47.410156 3.214844 47.308594 3.417969 47.207031 3.644531 C 47.109375 3.871094 47.003906 4.058594 46.976562 4.058594 C 46.949219 4.058594 46.910156 4.113281 46.886719 4.175781 C 46.839844 4.300781 46.804688 4.359375 46.417969 4.957031 C 46.277344 5.175781 46.070312 5.5 45.957031 5.671875 C 45.84375 5.847656 45.726562 5.988281 45.699219 5.988281 C 45.667969 5.988281 45.640625 6.03125 45.640625 6.085938 C 45.640625 6.175781 45.492188 6.417969 44.761719 7.5 C 44.585938 7.761719 44.4375 8.003906 44.4375 8.035156 C 44.4375 8.070312 44.382812 8.148438 44.3125 8.214844 C 44.238281 8.277344 44.132812 8.433594 44.070312 8.5625 C 44.011719 8.6875 43.917969 8.808594 43.867188 8.828125 C 43.8125 8.847656 43.769531 8.890625 43.769531 8.917969 C 43.769531 8.945312 43.589844 9.242188 43.371094 9.574219 C 43.148438 9.902344 42.96875 10.199219 42.96875 10.226562 C 42.96875 10.257812 42.871094 10.386719 42.75 10.519531 C 42.632812 10.648438 42.46875 10.871094 42.390625 11.019531 C 42.3125 11.164062 42.070312 11.53125 41.855469 11.839844 C 41.417969 12.457031 41.296875 12.640625 41.09375 12.976562 C 40.667969 13.6875 40.304688 14.25 40.234375 14.308594 C 40.191406 14.34375 40.050781 14.582031 39.914062 14.851562 C 39.867188 14.945312 39.78125 15.0625 39.726562 15.105469 C 39.671875 15.152344 39.628906 15.214844 39.628906 15.25 C 39.628906 15.304688 39.171875 16.027344 39.089844 16.105469 C 39.070312 16.125 38.953125 16.300781 38.824219 16.503906 C 38.699219 16.707031 38.578125 16.882812 38.554688 16.902344 C 38.535156 16.921875 38.492188 16.980469 38.46875 17.035156 C 38.398438 17.179688 38.289062 17.355469 38.007812 17.773438 C 37.871094 17.980469 37.757812 18.167969 37.757812 18.191406 C 37.757812 18.25 37.417969 18.769531 37.304688 18.886719 C 37.257812 18.9375 37.222656 19.019531 37.222656 19.070312 C 37.222656 19.125 37.199219 19.164062 37.171875 19.164062 C 37.144531 19.164062 37.015625 19.339844 36.890625 19.546875 C 36.765625 19.757812 36.644531 19.945312 36.617188 19.964844 C 36.59375 19.984375 36.507812 20.117188 36.425781 20.265625 C 36.347656 20.410156 36.148438 20.738281 35.984375 20.996094 C 35.820312 21.253906 35.667969 21.515625 35.644531 21.578125 C 35.621094 21.640625 35.578125 21.695312 35.542969 21.695312 C 35.511719 21.695312 35.445312 21.792969 35.394531 21.910156 C 35.347656 22.03125 35.148438 22.355469 34.960938 22.640625 C 34.769531 22.921875 34.53125 23.304688 34.429688 23.492188 C 34.332031 23.683594 34.207031 23.914062 34.15625 24.003906 C 34.109375 24.097656 34.011719 24.226562 33.941406 24.296875 C 33.871094 24.367188 33.8125 24.457031 33.8125 24.496094 C 33.8125 24.535156 33.710938 24.722656 33.589844 24.910156 C 33.464844 25.101562 33.320312 25.335938 33.269531 25.4375 C 33.21875 25.535156 32.980469 25.957031 32.738281 26.367188 C 32.496094 26.78125 32.277344 27.164062 32.253906 27.21875 C 32.230469 27.273438 32.042969 27.585938 31.835938 27.917969 C 31.371094 28.652344 31.074219 29.160156 30.726562 29.8125 C 30.578125 30.089844 30.390625 30.402344 30.308594 30.511719 C 30.226562 30.621094 30.089844 30.847656 30.011719 31.011719 C 29.804688 31.429688 29.574219 31.847656 29.3125 32.277344 C 29.1875 32.476562 28.976562 32.875 28.839844 33.15625 C 28.703125 33.441406 28.5625 33.6875 28.53125 33.707031 C 28.5 33.726562 28.433594 33.824219 28.378906 33.925781 C 27.875 34.878906 27.636719 35.328125 27.339844 35.863281 C 27.152344 36.207031 26.996094 36.5 26.996094 36.511719 C 26.996094 36.527344 26.851562 36.796875 26.671875 37.117188 C 26.492188 37.4375 26.1875 38 25.992188 38.363281 C 25.800781 38.730469 25.496094 39.300781 25.316406 39.628906 C 25.136719 39.957031 24.808594 40.589844 24.589844 41.027344 C 24.367188 41.464844 24.148438 41.875 24.105469 41.9375 C 24.0625 42 24.050781 42.074219 24.078125 42.101562 C 24.136719 42.15625 24.390625 41.902344 24.824219 41.359375 C 25.242188 40.839844 28.957031 37.167969 29.738281 36.503906 C 30.125 36.175781 30.625 35.734375 30.851562 35.523438 C 31.078125 35.3125 31.289062 35.136719 31.320312 35.136719 C 31.355469 35.136719 31.484375 35.039062 31.613281 34.921875 C 31.742188 34.800781 31.964844 34.617188 32.113281 34.507812 C 32.257812 34.402344 32.390625 34.292969 32.410156 34.265625 C 32.429688 34.238281 32.582031 34.117188 32.753906 33.996094 C 32.925781 33.875 33.234375 33.644531 33.4375 33.492188 C 33.640625 33.335938 33.824219 33.207031 33.84375 33.207031 C 33.863281 33.207031 34.015625 33.105469 34.179688 32.980469 C 34.445312 32.777344 34.632812 32.671875 35.449219 32.257812 C 35.734375 32.113281 36.253906 31.988281 36.707031 31.957031 C 37.078125 31.933594 37.101562 31.941406 37.347656 32.1875 C 37.570312 32.410156 37.609375 32.496094 37.644531 32.839844 C 37.695312 33.316406 37.5625 34.210938 37.363281 34.738281 C 37.285156 34.941406 37.222656 35.164062 37.222656 35.242188 C 37.222656 35.316406 37.195312 35.40625 37.164062 35.441406 C 37.128906 35.476562 37.070312 35.625 37.023438 35.769531 C 36.917969 36.125 36.609375 36.886719 36.542969 36.964844 C 36.511719 37 36.488281 37.066406 36.488281 37.117188 C 36.488281 37.167969 36.382812 37.425781 36.257812 37.6875 C 35.855469 38.53125 35.152344 40.070312 35.152344 40.113281 C 35.152344 40.15625 34.238281 42.039062 34.144531 42.191406 C 34.109375 42.246094 34.046875 42.367188 34.007812 42.457031 C 33.964844 42.550781 33.90625 42.667969 33.878906 42.722656 C 33.8125 42.839844 33.523438 43.445312 33.351562 43.820312 C 33.15625 44.25 32.730469 45.078125 32.652344 45.1875 C 32.609375 45.242188 32.503906 45.4375 32.414062 45.617188 C 32.324219 45.800781 32.214844 45.996094 32.171875 46.050781 C 32.128906 46.105469 32.054688 46.265625 32.011719 46.40625 C 31.964844 46.550781 31.8125 46.867188 31.667969 47.113281 C 31.523438 47.359375 31.40625 47.59375 31.40625 47.628906 C 31.40625 47.664062 31.347656 47.761719 31.273438 47.847656 C 31.203125 47.933594 31.136719 48.050781 31.136719 48.109375 C 31.132812 48.167969 31.074219 48.304688 31.007812 48.414062 C 30.9375 48.523438 30.800781 48.777344 30.707031 48.980469 C 30.609375 49.179688 30.488281 49.421875 30.4375 49.511719 C 30.238281 49.875 29.796875 50.714844 29.421875 51.445312 C 29.207031 51.871094 28.964844 52.304688 28.890625 52.410156 C 28.8125 52.519531 28.625 52.847656 28.472656 53.140625 C 28.316406 53.433594 28.039062 53.957031 27.855469 54.304688 C 27.667969 54.652344 27.457031 55.054688 27.382812 55.203125 C 27.308594 55.347656 27.210938 55.511719 27.164062 55.566406 C 27.121094 55.621094 26.910156 55.996094 26.703125 56.398438 C 26.496094 56.800781 26.300781 57.164062 26.265625 57.207031 C 26.234375 57.246094 26.109375 57.472656 25.992188 57.703125 C 25.875 57.933594 25.699219 58.246094 25.605469 58.394531 C 25.511719 58.542969 25.363281 58.804688 25.28125 58.976562 C 25.199219 59.152344 25.101562 59.292969 25.0625 59.292969 C 25.023438 59.292969 24.992188 59.324219 24.992188 59.363281 C 24.992188 59.4375 24.824219 59.78125 24.34375 60.691406 C 23.691406 61.925781 23.433594 62.390625 23.253906 62.65625 C 23.15625 62.800781 22.988281 63.085938 22.886719 63.289062 C 22.785156 63.488281 22.484375 64.027344 22.21875 64.484375 C 21.957031 64.941406 21.695312 65.40625 21.636719 65.515625 C 21.582031 65.625 21.453125 65.867188 21.351562 66.050781 C 21.152344 66.40625 21.148438 66.414062 20.746094 67.113281 C 20.597656 67.371094 20.429688 67.667969 20.367188 67.78125 C 20.308594 67.890625 20.097656 68.257812 19.902344 68.601562 C 19.707031 68.945312 19.433594 69.441406 19.292969 69.699219 C 19.152344 69.960938 18.96875 70.28125 18.882812 70.40625 C 18.792969 70.535156 18.558594 70.957031 18.363281 71.34375 C 18.164062 71.734375 17.9375 72.132812 17.855469 72.238281 C 17.773438 72.339844 17.707031 72.445312 17.707031 72.46875 C 17.707031 72.496094 17.5625 72.773438 17.378906 73.085938 C 17.199219 73.398438 16.851562 74.039062 16.605469 74.511719 C 16.359375 74.980469 16.128906 75.402344 16.09375 75.445312 C 16.058594 75.488281 15.925781 75.726562 15.796875 75.972656 C 15.671875 76.21875 15.542969 76.453125 15.511719 76.492188 C 15.480469 76.53125 15.28125 76.894531 15.070312 77.296875 C 14.859375 77.699219 14.648438 78.074219 14.601562 78.128906 C 14.558594 78.183594 14.421875 78.4375 14.296875 78.691406 C 14.175781 78.949219 14.019531 79.238281 13.953125 79.339844 C 13.882812 79.4375 13.679688 79.8125 13.496094 80.171875 C 13.3125 80.527344 13.136719 80.867188 13.105469 80.921875 C 13.070312 80.976562 12.988281 81.140625 12.921875 81.285156 C 12.851562 81.429688 12.6875 81.726562 12.558594 81.949219 C 12.425781 82.171875 12.1875 82.636719 12.03125 82.984375 C 11.871094 83.332031 11.71875 83.648438 11.691406 83.683594 C 11.664062 83.722656 11.34375 84.320312 10.984375 85.015625 C 10.621094 85.710938 10.191406 86.539062 10.023438 86.855469 C 9.414062 88.023438 8.386719 90.023438 8.066406 90.671875 C 7.886719 91.039062 7.703125 91.382812 7.65625 91.4375 C 7.609375 91.492188 7.515625 91.6875 7.445312 91.871094 C 7.375 92.054688 7.207031 92.414062 7.066406 92.667969 C 6.570312 93.585938 5.945312 94.90625 5.980469 94.960938 C 6.0625 95.09375 6.269531 94.921875 6.5625 94.476562 C 6.976562 93.84375 7.402344 93.21875 7.476562 93.128906 C 7.507812 93.089844 7.570312 92.984375 7.621094 92.898438 C 7.667969 92.808594 7.789062 92.628906 7.886719 92.5 C 7.984375 92.375 8.300781 91.953125 8.585938 91.570312 C 8.871094 91.1875 9.191406 90.765625 9.300781 90.636719 C 9.714844 90.136719 10.011719 89.726562 10.171875 89.4375 C 10.496094 88.851562 10.527344 88.808594 10.613281 88.753906 C 10.703125 88.695312 11.230469 87.929688 11.84375 86.953125 C 12.054688 86.621094 12.261719 86.300781 12.296875 86.246094 C 12.335938 86.191406 12.445312 86.015625 12.546875 85.859375 C 12.648438 85.699219 12.773438 85.515625 12.832031 85.449219 C 12.886719 85.382812 13.007812 85.203125 13.097656 85.050781 C 13.191406 84.898438 13.355469 84.648438 13.46875 84.496094 C 13.582031 84.34375 13.753906 84.078125 13.851562 83.90625 C 13.953125 83.734375 14.070312 83.554688 14.117188 83.507812 C 14.164062 83.457031 14.40625 83.117188 14.65625 82.753906 C 14.90625 82.386719 15.238281 81.90625 15.394531 81.6875 C 15.550781 81.46875 15.835938 81.0625 16.027344 80.789062 C 16.695312 79.832031 16.847656 79.625 17.011719 79.433594 C 17.101562 79.332031 17.175781 79.222656 17.175781 79.191406 C 17.175781 79.136719 17.613281 78.480469 18.332031 77.460938 C 18.796875 76.800781 19.5625 75.695312 19.847656 75.265625 C 20.003906 75.027344 20.121094 74.871094 20.59375 74.253906 C 20.699219 74.121094 20.78125 73.984375 20.78125 73.953125 C 20.78125 73.921875 20.925781 73.71875 21.101562 73.5 C 21.277344 73.28125 21.523438 72.9375 21.644531 72.738281 C 21.769531 72.535156 22.058594 72.117188 22.289062 71.804688 C 22.824219 71.085938 23.144531 70.640625 23.363281 70.3125 C 23.460938 70.171875 23.566406 70.019531 23.601562 69.980469 C 23.707031 69.855469 24.28125 69.066406 24.617188 68.582031 C 24.796875 68.324219 25.054688 67.960938 25.191406 67.78125 C 26.046875 66.628906 26.257812 66.335938 26.609375 65.824219 C 26.820312 65.507812 27.054688 65.175781 27.125 65.085938 C 27.191406 64.992188 27.546875 64.511719 27.90625 64.019531 C 28.269531 63.523438 28.578125 63.105469 28.601562 63.085938 C 28.671875 63.023438 29.238281 62.269531 29.402344 62.023438 C 29.597656 61.734375 29.964844 61.234375 30.085938 61.09375 C 30.132812 61.039062 30.257812 60.859375 30.363281 60.695312 C 30.46875 60.527344 30.667969 60.257812 30.800781 60.09375 C 30.9375 59.929688 31.210938 59.570312 31.40625 59.292969 C 31.605469 59.019531 31.789062 58.785156 31.820312 58.773438 C 31.851562 58.761719 31.875 58.722656 31.875 58.691406 C 31.875 58.65625 31.980469 58.488281 32.113281 58.3125 C 32.242188 58.140625 32.492188 57.804688 32.664062 57.574219 C 32.835938 57.339844 33.046875 57.082031 33.128906 57 C 33.210938 56.917969 33.28125 56.820312 33.28125 56.785156 C 33.28125 56.75 33.339844 56.664062 33.414062 56.597656 C 33.484375 56.53125 33.546875 56.441406 33.546875 56.394531 C 33.546875 56.351562 33.589844 56.296875 33.648438 56.277344 C 33.773438 56.226562 33.777344 56.328125 33.652344 56.449219 C 33.601562 56.5 33.496094 56.683594 33.417969 56.855469 C 33.335938 57.03125 33.230469 57.1875 33.175781 57.207031 C 33.121094 57.230469 33.078125 57.273438 33.078125 57.304688 C 33.078125 57.335938 32.882812 57.636719 32.648438 57.976562 C 32.125 58.726562 30.972656 60.398438 30.738281 60.746094 C 30.648438 60.882812 30.464844 61.128906 30.335938 61.292969 C 30.203125 61.457031 29.996094 61.746094 29.875 61.941406 C 29.753906 62.132812 29.632812 62.289062 29.605469 62.289062 C 29.574219 62.289062 29.5 62.386719 29.441406 62.503906 C 29.300781 62.777344 29.042969 63.136719 28.832031 63.359375 C 28.742188 63.449219 28.667969 63.554688 28.667969 63.589844 C 28.667969 63.625 28.585938 63.75 28.484375 63.867188 C 28.207031 64.195312 28.042969 64.429688 27.953125 64.636719 C 27.90625 64.738281 27.824219 64.835938 27.769531 64.859375 C 27.710938 64.882812 27.664062 64.929688 27.664062 64.964844 C 27.664062 65.003906 27.523438 65.214844 27.34375 65.441406 C 27.167969 65.664062 27.003906 65.894531 26.976562 65.949219 C 26.953125 66.003906 26.796875 66.230469 26.632812 66.449219 C 26.46875 66.667969 26.191406 67.058594 26.019531 67.3125 C 25.84375 67.570312 25.625 67.871094 25.53125 67.984375 C 25.4375 68.097656 25.316406 68.257812 25.261719 68.34375 C 25.203125 68.425781 25.113281 68.558594 25.050781 68.636719 C 24.992188 68.714844 24.890625 68.882812 24.824219 69.011719 C 24.757812 69.136719 24.648438 69.28125 24.582031 69.332031 C 24.515625 69.378906 24.457031 69.453125 24.457031 69.5 C 24.457031 69.546875 24.351562 69.699219 24.222656 69.835938 C 24.097656 69.976562 23.992188 70.128906 23.992188 70.171875 C 23.992188 70.214844 23.902344 70.335938 23.789062 70.441406 C 23.679688 70.546875 23.589844 70.660156 23.589844 70.695312 C 23.589844 70.726562 23.476562 70.894531 23.339844 71.066406 C 23.082031 71.382812 23.019531 71.472656 22.789062 71.871094 C 22.714844 72 22.53125 72.269531 22.386719 72.472656 C 22.238281 72.671875 21.992188 73.015625 21.84375 73.234375 C 21.691406 73.457031 21.515625 73.695312 21.449219 73.769531 C 21.386719 73.839844 21.269531 74.027344 21.191406 74.183594 C 21.113281 74.339844 21.019531 74.46875 20.988281 74.46875 C 20.957031 74.46875 20.867188 74.566406 20.789062 74.683594 C 20.714844 74.800781 20.613281 74.960938 20.566406 75.03125 C 20.519531 75.105469 20.464844 75.179688 20.441406 75.199219 C 20.417969 75.21875 20.257812 75.449219 20.085938 75.714844 C 19.914062 75.980469 19.746094 76.199219 19.714844 76.199219 C 19.683594 76.199219 19.625 76.296875 19.585938 76.414062 C 19.519531 76.609375 19.375 76.820312 19.089844 77.140625 C 19.035156 77.199219 18.90625 77.394531 18.804688 77.570312 C 18.703125 77.75 18.527344 78.015625 18.414062 78.160156 C 18.300781 78.308594 18.171875 78.488281 18.125 78.558594 C 17.679688 79.265625 17.515625 79.511719 17.347656 79.707031 C 17.242188 79.832031 17.089844 80.050781 17.011719 80.191406 C 16.9375 80.335938 16.804688 80.535156 16.722656 80.636719 C 16.4375 80.984375 16.128906 81.421875 15.871094 81.855469 C 15.726562 82.09375 15.558594 82.332031 15.496094 82.386719 C 15.429688 82.441406 15.324219 82.59375 15.257812 82.722656 C 15.1875 82.851562 15.023438 83.109375 14.882812 83.296875 C 14.746094 83.484375 14.636719 83.65625 14.636719 83.679688 C 14.636719 83.707031 14.515625 83.871094 14.367188 84.042969 C 14.21875 84.214844 14.101562 84.378906 14.101562 84.402344 C 14.101562 84.425781 13.835938 84.84375 13.511719 85.328125 C 12.613281 86.675781 12.1875 87.332031 12.105469 87.488281 C 12.0625 87.570312 11.988281 87.671875 11.941406 87.722656 C 11.894531 87.769531 11.636719 88.125 11.371094 88.507812 C 10.597656 89.636719 10.144531 90.269531 10.09375 90.304688 C 10.066406 90.324219 9.988281 90.445312 9.921875 90.570312 C 9.859375 90.699219 9.785156 90.820312 9.761719 90.839844 C 9.734375 90.855469 9.613281 91.019531 9.488281 91.203125 C 9.363281 91.386719 9.179688 91.625 9.074219 91.738281 C 8.972656 91.847656 8.886719 91.972656 8.886719 92.019531 C 8.886719 92.066406 8.855469 92.101562 8.820312 92.101562 C 8.78125 92.101562 8.714844 92.183594 8.667969 92.285156 C 8.625 92.386719 8.566406 92.5 8.539062 92.535156 C 8.511719 92.570312 8.367188 92.757812 8.21875 92.949219 C 8.070312 93.140625 7.898438 93.386719 7.835938 93.488281 C 7.539062 93.976562 6.71875 95.082031 6.542969 95.230469 C 6.507812 95.261719 5.902344 96.09375 5.515625 96.636719 C 5.292969 96.953125 5.222656 96.894531 5.375 96.527344 C 5.5 96.226562 5.503906 96.191406 5.394531 96.308594 C 5.226562 96.480469 5.078125 96.761719 5.0625 96.925781 C 5.054688 97.019531 5.027344 97.09375 5.003906 97.09375 C 4.976562 97.09375 4.972656 97.152344 4.992188 97.21875 C 5.019531 97.328125 4.917969 97.546875 4.726562 97.792969 C 4.699219 97.828125 4.605469 97.964844 4.523438 98.089844 C 4.371094 98.328125 4.277344 98.371094 4.042969 98.3125 Z M 47.3125 2.328125 C 47.3125 2.292969 47.28125 2.261719 47.246094 2.261719 C 47.210938 2.261719 47.179688 2.292969 47.179688 2.328125 C 47.179688 2.367188 47.210938 2.394531 47.246094 2.394531 C 47.28125 2.394531 47.3125 2.367188 47.3125 2.328125 Z M 63.785156 94.566406 C 63.628906 94.53125 63.609375 94.507812 63.695312 94.472656 C 63.859375 94.398438 64.304688 94.453125 64.335938 94.546875 C 64.367188 94.640625 64.121094 94.648438 63.785156 94.566406 Z M 1.789062 88.484375 C 1.664062 88.386719 1.628906 88.078125 1.734375 88.011719 C 1.851562 87.941406 2.054688 88.097656 2.089844 88.289062 C 2.140625 88.550781 1.996094 88.640625 1.789062 88.484375 Z M 2.539062 88.507812 C 2.539062 88.472656 2.585938 88.441406 2.640625 88.441406 C 2.695312 88.441406 2.738281 88.453125 2.738281 88.46875 C 2.738281 88.484375 2.695312 88.511719 2.640625 88.53125 C 2.585938 88.554688 2.539062 88.542969 2.539062 88.507812 Z M 54.414062 84.9375 C 54.21875 84.859375 54.1875 84.660156 54.320312 84.367188 C 54.394531 84.207031 54.605469 83.453125 54.796875 82.683594 C 54.984375 81.917969 55.230469 80.945312 55.339844 80.523438 C 55.453125 80.101562 55.566406 79.652344 55.597656 79.523438 C 55.648438 79.316406 55.882812 78.46875 56.371094 76.710938 C 56.460938 76.386719 56.535156 76.082031 56.535156 76.027344 C 56.535156 75.972656 56.5625 75.878906 56.59375 75.8125 C 56.625 75.75 56.699219 75.519531 56.753906 75.300781 C 56.8125 75.078125 56.9375 74.628906 57.035156 74.300781 C 57.132812 73.972656 57.273438 73.460938 57.347656 73.167969 C 57.503906 72.535156 58.300781 69.851562 58.511719 69.242188 C 58.5625 69.097656 58.679688 68.707031 58.773438 68.378906 C 58.867188 68.046875 58.96875 67.71875 59.003906 67.644531 C 59.035156 67.574219 59.15625 67.199219 59.273438 66.8125 C 59.390625 66.429688 59.507812 66.054688 59.539062 65.984375 C 59.566406 65.910156 60.027344 64.546875 60.566406 62.953125 C 61.628906 59.796875 61.789062 59.328125 61.875 59.128906 C 62.03125 58.757812 62.148438 58.4375 62.203125 58.230469 C 62.234375 58.101562 62.339844 57.800781 62.433594 57.5625 C 62.527344 57.324219 62.996094 56.082031 63.476562 54.800781 C 64.496094 52.074219 64.882812 51.066406 65.085938 50.609375 C 65.167969 50.425781 65.320312 50.023438 65.429688 49.710938 C 65.535156 49.402344 65.667969 49.054688 65.71875 48.945312 C 65.832031 48.710938 66.234375 47.679688 66.382812 47.25 C 66.4375 47.085938 66.546875 46.832031 66.621094 46.6875 C 66.699219 46.542969 66.757812 46.382812 66.757812 46.332031 C 66.757812 46.285156 66.820312 46.117188 66.894531 45.964844 C 66.972656 45.8125 67.128906 45.445312 67.242188 45.152344 C 67.601562 44.226562 68.242188 42.699219 68.371094 42.457031 C 68.441406 42.332031 68.496094 42.195312 68.496094 42.152344 C 68.496094 42.113281 68.539062 41.992188 68.589844 41.886719 C 68.636719 41.78125 68.910156 41.125 69.195312 40.429688 C 69.476562 39.734375 69.796875 38.984375 69.90625 38.765625 C 70.015625 38.542969 70.101562 38.339844 70.101562 38.308594 C 70.101562 38.277344 70.222656 37.976562 70.375 37.640625 C 70.621094 37.09375 70.722656 36.859375 70.90625 36.433594 C 70.9375 36.363281 71.070312 36.066406 71.199219 35.78125 C 71.332031 35.496094 71.4375 35.246094 71.4375 35.226562 C 71.4375 35.199219 71.496094 35.0625 71.9375 34.113281 C 72.035156 33.898438 72.15625 33.613281 72.203125 33.480469 C 72.25 33.347656 72.460938 32.867188 72.671875 32.410156 C 73.277344 31.082031 73.285156 31.0625 73.414062 30.710938 C 73.480469 30.527344 73.574219 30.304688 73.621094 30.210938 C 73.667969 30.121094 73.707031 30.011719 73.707031 29.964844 C 73.707031 29.921875 73.785156 29.746094 73.875 29.574219 C 73.96875 29.402344 74.042969 29.207031 74.042969 29.144531 C 74.042969 28.933594 74.4375 28.003906 74.914062 27.085938 C 75.632812 25.707031 76.1875 24.542969 76.230469 24.324219 C 76.253906 24.214844 76.363281 23.988281 76.476562 23.824219 C 76.746094 23.433594 77.425781 22.058594 78.019531 20.695312 C 78.125 20.457031 78.25 20.214844 78.296875 20.160156 C 78.347656 20.101562 78.386719 20.023438 78.386719 19.984375 C 78.386719 19.902344 78.582031 19.4375 78.855469 18.867188 C 79.164062 18.21875 79.457031 17.570312 79.457031 17.539062 C 79.457031 17.523438 79.59375 17.214844 79.761719 16.855469 C 79.925781 16.496094 80.1875 15.933594 80.335938 15.605469 C 80.488281 15.277344 80.859375 14.496094 81.164062 13.875 C 81.46875 13.253906 81.769531 12.5625 81.835938 12.34375 C 81.902344 12.125 81.988281 11.886719 82.027344 11.8125 C 82.140625 11.597656 82.355469 11.285156 82.4375 11.214844 C 82.582031 11.082031 83.261719 8.976562 83.367188 8.335938 C 83.390625 8.179688 83.4375 8.035156 83.472656 8.015625 C 83.554688 7.964844 83.546875 7.738281 83.460938 7.683594 C 83.421875 7.660156 83.335938 7.6875 83.273438 7.746094 C 83.207031 7.804688 83.132812 7.851562 83.105469 7.851562 C 82.980469 7.851562 82.074219 8.660156 81.261719 9.496094 C 79.675781 11.125 79.289062 11.53125 79.222656 11.648438 C 79.183594 11.710938 79.035156 11.898438 78.886719 12.0625 C 78.742188 12.226562 78.53125 12.46875 78.421875 12.601562 C 78.308594 12.738281 78.089844 12.988281 77.929688 13.160156 C 77.628906 13.484375 76.71875 14.578125 76.480469 14.898438 C 76.410156 15 76.121094 15.347656 75.84375 15.675781 C 75.566406 16.003906 75.265625 16.375 75.179688 16.503906 C 75.089844 16.632812 74.867188 16.929688 74.679688 17.167969 C 74.496094 17.40625 74.3125 17.648438 74.277344 17.710938 C 74.121094 17.960938 73.929688 18.21875 73.699219 18.5 C 73.566406 18.664062 73.273438 19.070312 73.050781 19.398438 C 72.265625 20.554688 72.046875 20.863281 71.917969 20.996094 C 71.84375 21.070312 71.734375 21.234375 71.667969 21.363281 C 71.605469 21.488281 71.421875 21.746094 71.265625 21.929688 C 71.109375 22.109375 70.867188 22.445312 70.722656 22.664062 C 70.460938 23.082031 70.394531 23.183594 69.640625 24.308594 C 69.398438 24.675781 69.136719 25.074219 69.066406 25.195312 C 68.992188 25.316406 68.894531 25.472656 68.851562 25.535156 C 68.414062 26.175781 67.984375 26.839844 67.851562 27.085938 C 67.765625 27.25 67.640625 27.460938 67.574219 27.558594 C 67.511719 27.65625 67.234375 28.105469 66.960938 28.558594 C 66.683594 29.011719 66.4375 29.390625 66.410156 29.402344 C 66.382812 29.414062 66.359375 29.460938 66.359375 29.507812 C 66.359375 29.554688 66.175781 29.867188 65.957031 30.203125 C 65.734375 30.542969 65.414062 31.082031 65.242188 31.398438 C 65.074219 31.714844 64.863281 32.070312 64.78125 32.183594 C 64.695312 32.300781 64.484375 32.660156 64.316406 32.984375 C 64.144531 33.308594 63.980469 33.605469 63.949219 33.640625 C 63.917969 33.679688 63.761719 33.964844 63.597656 34.273438 C 63.433594 34.582031 63.1875 35.046875 63.046875 35.304688 C 62.90625 35.558594 62.730469 35.890625 62.65625 36.035156 C 62.582031 36.183594 62.507812 36.316406 62.484375 36.335938 C 62.425781 36.390625 60.746094 39.777344 60.746094 39.847656 C 60.746094 39.882812 60.699219 39.949219 60.644531 39.996094 C 60.589844 40.039062 60.542969 40.121094 60.542969 40.171875 C 60.542969 40.265625 60.074219 41.257812 59.960938 41.414062 C 59.925781 41.457031 59.816406 41.6875 59.710938 41.925781 C 59.339844 42.769531 59.121094 43.226562 59.007812 43.390625 C 58.941406 43.480469 58.867188 43.628906 58.839844 43.722656 C 58.8125 43.8125 58.554688 44.414062 58.269531 45.054688 C 57.984375 45.695312 57.503906 46.785156 57.203125 47.480469 C 56.902344 48.175781 56.617188 48.835938 56.570312 48.945312 C 56.523438 49.054688 56.460938 49.21875 56.433594 49.3125 C 56.375 49.507812 55.769531 51.050781 55.636719 51.34375 C 55.582031 51.453125 55.460938 51.78125 55.363281 52.074219 C 55.265625 52.367188 55.164062 52.636719 55.136719 52.671875 C 55.109375 52.710938 55.019531 52.964844 54.933594 53.238281 C 54.851562 53.511719 54.742188 53.828125 54.691406 53.9375 C 54.574219 54.199219 54.351562 54.824219 53.765625 56.53125 C 53.703125 56.714844 53.578125 57.144531 53.488281 57.488281 C 53.398438 57.828125 53.285156 58.1875 53.234375 58.285156 C 53.183594 58.382812 53.121094 58.566406 53.097656 58.695312 C 53.074219 58.824219 52.964844 59.183594 52.863281 59.492188 C 52.566406 60.371094 52.457031 60.738281 52.457031 60.886719 C 52.457031 60.960938 52.402344 61.175781 52.332031 61.371094 C 52.261719 61.566406 52.183594 61.871094 52.15625 62.054688 C 52.132812 62.238281 52.042969 62.671875 51.957031 63.019531 C 51.722656 63.988281 51.464844 65.277344 51.320312 66.214844 C 51.289062 66.417969 51.21875 66.835938 51.160156 67.148438 C 50.882812 68.628906 50.851562 68.722656 50.632812 68.640625 C 50.574219 68.617188 50.507812 68.546875 50.488281 68.480469 C 50.449219 68.355469 50.613281 67.132812 50.6875 67.011719 C 50.773438 66.875 50.910156 66.191406 51.015625 65.371094 C 51.074219 64.925781 51.183594 64.25 51.261719 63.875 C 51.550781 62.472656 51.765625 60.949219 51.917969 59.238281 C 51.953125 58.863281 52 58.429688 52.027344 58.28125 C 52.050781 58.132812 52.109375 57.601562 52.15625 57.105469 C 52.203125 56.605469 52.277344 56.082031 52.316406 55.933594 C 52.417969 55.566406 52.480469 52.195312 52.390625 52.140625 C 52.25 52.054688 51.605469 52.769531 51.222656 53.425781 C 51.1875 53.488281 51.085938 53.65625 50.996094 53.804688 C 50.742188 54.214844 49.703125 56.289062 49.527344 56.734375 C 49.441406 56.953125 49.316406 57.238281 49.246094 57.375 C 49.175781 57.507812 49.117188 57.65625 49.117188 57.707031 C 49.117188 57.757812 49.03125 57.976562 48.925781 58.195312 C 48.824219 58.417969 48.714844 58.710938 48.6875 58.855469 C 48.660156 58.996094 48.613281 59.160156 48.582031 59.21875 C 48.445312 59.472656 47.917969 61.40625 47.746094 62.289062 C 47.605469 62.996094 47.253906 64.558594 47.148438 64.917969 C 47.097656 65.101562 47.03125 65.398438 47.007812 65.582031 C 46.980469 65.765625 46.871094 66.335938 46.765625 66.847656 C 46.65625 67.359375 46.484375 68.257812 46.382812 68.84375 C 46.085938 70.503906 45.992188 70.757812 45.71875 70.613281 C 45.640625 70.570312 45.574219 70.480469 45.574219 70.410156 C 45.574219 70.175781 45.828125 68.78125 46.003906 68.0625 C 46.097656 67.671875 46.175781 67.289062 46.175781 67.214844 C 46.175781 66.957031 46.820312 63.898438 47.046875 63.085938 C 47.082031 62.960938 47.175781 62.554688 47.25 62.1875 C 47.328125 61.824219 47.480469 61.105469 47.589844 60.59375 C 47.699219 60.078125 47.828125 59.421875 47.878906 59.128906 C 47.984375 58.46875 48.207031 57.324219 48.382812 56.53125 C 48.453125 56.203125 48.53125 55.8125 48.554688 55.667969 C 48.589844 55.429688 48.667969 55.097656 49.027344 53.574219 C 49.160156 53.015625 49.496094 52.035156 49.582031 51.949219 C 49.621094 51.910156 49.652344 51.792969 49.652344 51.683594 C 49.652344 51.574219 49.6875 51.378906 49.730469 51.246094 C 49.875 50.789062 50.078125 50.3125 50.105469 50.34375 C 50.125 50.359375 50.148438 50.496094 50.15625 50.648438 C 50.175781 50.929688 50.085938 51.355469 49.761719 52.472656 C 49.46875 53.5 49.210938 54.597656 48.980469 55.800781 C 48.9375 56.019531 48.863281 56.378906 48.8125 56.597656 C 48.699219 57.101562 48.621094 57.695312 48.667969 57.695312 C 48.691406 57.695312 48.796875 57.464844 48.90625 57.179688 C 49.289062 56.203125 50.464844 53.714844 50.585938 53.636719 C 50.613281 53.621094 50.71875 53.453125 50.820312 53.269531 C 51.050781 52.839844 51.671875 51.996094 51.933594 51.757812 C 52.261719 51.457031 52.660156 51.539062 52.832031 51.945312 C 52.945312 52.210938 52.960938 53.40625 52.859375 54.085938 C 52.722656 55.03125 52.667969 55.34375 52.601562 55.601562 C 52.5625 55.746094 52.519531 56.375 52.5 57 C 52.480469 57.621094 52.449219 58.398438 52.429688 58.730469 C 52.40625 59.105469 52.414062 59.277344 52.453125 59.195312 C 52.527344 59.027344 52.929688 57.800781 52.996094 57.53125 C 53.089844 57.152344 53.535156 55.753906 53.59375 55.644531 C 53.628906 55.582031 53.765625 55.191406 53.898438 54.769531 C 54.035156 54.347656 54.183594 53.914062 54.226562 53.804688 C 54.273438 53.695312 54.394531 53.378906 54.496094 53.105469 C 54.597656 52.832031 54.75 52.457031 54.832031 52.273438 C 54.917969 52.089844 55.035156 51.777344 55.09375 51.578125 C 55.152344 51.382812 55.238281 51.15625 55.285156 51.082031 C 55.332031 51.003906 55.441406 50.703125 55.53125 50.410156 C 55.617188 50.117188 55.726562 49.832031 55.773438 49.777344 C 55.816406 49.722656 55.898438 49.542969 55.957031 49.378906 C 56.113281 48.914062 56.394531 48.191406 56.464844 48.0625 C 56.542969 47.921875 56.9375 47.050781 56.9375 47.015625 C 56.9375 47.003906 57.023438 46.804688 57.128906 46.570312 C 57.234375 46.339844 57.417969 45.925781 57.535156 45.652344 C 57.652344 45.378906 57.804688 45.027344 57.875 44.871094 C 57.945312 44.714844 58.003906 44.574219 58.003906 44.558594 C 58.003906 44.496094 59.097656 42.242188 59.3125 41.859375 C 59.363281 41.765625 59.40625 41.644531 59.40625 41.585938 C 59.40625 41.527344 59.464844 41.40625 59.53125 41.320312 C 59.601562 41.230469 59.679688 41.085938 59.707031 40.992188 C 59.738281 40.902344 59.816406 40.746094 59.886719 40.648438 C 59.953125 40.554688 60.007812 40.441406 60.007812 40.40625 C 60.007812 40.367188 60.261719 39.847656 60.566406 39.25 C 61.785156 36.871094 62.796875 34.9375 63.027344 34.53125 C 63.160156 34.296875 63.34375 33.972656 63.433594 33.804688 C 63.785156 33.164062 64.191406 32.4375 64.265625 32.308594 C 64.3125 32.234375 64.425781 32.019531 64.523438 31.828125 C 64.621094 31.636719 64.742188 31.449219 64.792969 31.40625 C 64.847656 31.363281 64.886719 31.300781 64.886719 31.265625 C 64.886719 31.230469 64.984375 31.046875 65.105469 30.855469 C 65.371094 30.4375 65.4375 30.328125 65.664062 29.945312 C 65.964844 29.441406 66.585938 28.40625 66.726562 28.175781 C 66.976562 27.761719 68.449219 25.457031 68.824219 24.890625 C 69.027344 24.578125 69.226562 24.273438 69.265625 24.210938 C 69.359375 24.050781 70.816406 21.90625 71.269531 21.261719 C 71.476562 20.96875 71.746094 20.574219 71.871094 20.386719 C 71.996094 20.199219 72.222656 19.90625 72.371094 19.734375 C 72.519531 19.5625 72.640625 19.398438 72.640625 19.367188 C 72.640625 19.335938 72.679688 19.269531 72.726562 19.222656 C 72.773438 19.171875 72.917969 18.96875 73.050781 18.765625 C 73.183594 18.566406 73.425781 18.230469 73.585938 18.023438 C 73.746094 17.8125 73.988281 17.484375 74.128906 17.289062 C 74.429688 16.871094 74.773438 16.425781 75.046875 16.101562 C 75.15625 15.972656 75.316406 15.773438 75.398438 15.660156 C 75.6875 15.261719 76.382812 14.402344 76.699219 14.050781 C 76.875 13.855469 77.027344 13.660156 77.042969 13.621094 C 77.066406 13.554688 77.75 12.726562 77.847656 12.644531 C 77.867188 12.625 78.027344 12.441406 78.203125 12.234375 C 78.375 12.027344 78.648438 11.726562 78.804688 11.566406 C 78.960938 11.402344 79.234375 11.09375 79.414062 10.875 C 80.316406 9.773438 82.6875 7.5 83.160156 7.277344 C 83.574219 7.085938 83.628906 7.085938 83.800781 7.253906 C 83.902344 7.355469 83.933594 7.476562 83.933594 7.78125 C 83.933594 8 83.90625 8.246094 83.875 8.332031 C 83.839844 8.417969 83.730469 8.753906 83.625 9.082031 C 83.523438 9.414062 83.417969 9.699219 83.390625 9.714844 C 83.363281 9.734375 83.269531 9.945312 83.179688 10.183594 C 83.085938 10.417969 82.90625 10.824219 82.773438 11.082031 C 82.640625 11.335938 82.53125 11.582031 82.53125 11.628906 C 82.53125 11.671875 82.476562 11.808594 82.40625 11.925781 C 82.339844 12.046875 82.175781 12.429688 82.035156 12.777344 C 81.898438 13.125 81.714844 13.558594 81.625 13.742188 C 81.539062 13.925781 81.410156 14.210938 81.335938 14.375 C 81.003906 15.144531 80.6875 15.851562 80.460938 16.335938 C 80.324219 16.628906 80.171875 16.980469 80.121094 17.121094 C 80.070312 17.257812 80.007812 17.367188 79.976562 17.367188 C 79.949219 17.367188 79.921875 17.425781 79.921875 17.5 C 79.921875 17.570312 79.898438 17.644531 79.863281 17.664062 C 79.832031 17.683594 79.785156 17.78125 79.761719 17.878906 C 79.734375 17.972656 79.613281 18.265625 79.484375 18.527344 C 79.359375 18.785156 79.253906 19.019531 79.253906 19.046875 C 79.253906 19.074219 79.046875 19.523438 78.796875 20.046875 C 78.058594 21.566406 77.804688 22.117188 77.753906 22.292969 C 77.730469 22.386719 77.652344 22.609375 77.582031 22.792969 C 77.515625 22.976562 77.425781 23.25 77.386719 23.40625 C 77.347656 23.558594 77.230469 23.769531 77.125 23.871094 C 76.949219 24.046875 76.582031 24.65625 76.582031 24.769531 C 76.582031 24.796875 76.457031 25.082031 76.308594 25.402344 C 76.003906 26.042969 75.636719 26.835938 75.453125 27.25 C 75.257812 27.679688 75.074219 28.082031 74.828125 28.617188 C 74.457031 29.414062 74.363281 29.632812 74.308594 29.847656 C 74.226562 30.152344 73.699219 31.371094 73.628906 31.417969 C 73.546875 31.46875 73.386719 31.773438 73.269531 32.09375 C 73.21875 32.234375 73.015625 32.699219 72.820312 33.125 C 72.621094 33.554688 72.222656 34.445312 71.933594 35.105469 C 71.648438 35.761719 71.371094 36.347656 71.324219 36.40625 C 71.277344 36.464844 71.238281 36.546875 71.238281 36.589844 C 71.238281 36.632812 71.210938 36.722656 71.175781 36.785156 C 71.082031 36.960938 70.367188 38.652344 70.367188 38.691406 C 70.367188 38.710938 70.277344 38.914062 70.167969 39.140625 C 70.058594 39.367188 69.964844 39.578125 69.964844 39.605469 C 69.964844 39.65625 69.671875 40.320312 69.460938 40.753906 C 69.40625 40.859375 69.367188 40.972656 69.367188 41.003906 C 69.367188 41.035156 69.308594 41.1875 69.242188 41.34375 C 68.769531 42.410156 68.628906 42.746094 68.628906 42.820312 C 68.628906 42.867188 68.523438 43.140625 68.394531 43.429688 C 68.054688 44.179688 68.066406 44.144531 67.707031 45.019531 C 67.523438 45.457031 67.308594 46 67.226562 46.21875 C 67.144531 46.4375 67.023438 46.742188 66.953125 46.890625 C 66.886719 47.042969 66.8125 47.253906 66.785156 47.359375 C 66.761719 47.464844 66.652344 47.71875 66.550781 47.929688 C 66.445312 48.140625 66.359375 48.363281 66.359375 48.433594 C 66.359375 48.5 66.332031 48.582031 66.300781 48.617188 C 66.269531 48.652344 66.160156 48.917969 66.0625 49.210938 C 65.960938 49.503906 65.839844 49.835938 65.789062 49.945312 C 65.640625 50.273438 64.886719 52.222656 64.621094 52.972656 C 64.347656 53.730469 64.039062 54.535156 63.945312 54.71875 C 63.914062 54.78125 63.886719 54.878906 63.886719 54.9375 C 63.886719 54.996094 63.828125 55.152344 63.757812 55.289062 C 63.6875 55.425781 63.539062 55.804688 63.429688 56.132812 C 63.316406 56.464844 63.144531 56.941406 63.046875 57.199219 C 62.949219 57.453125 62.785156 57.886719 62.6875 58.164062 C 62.585938 58.4375 62.46875 58.738281 62.429688 58.828125 C 62.390625 58.921875 62.183594 59.53125 61.96875 60.1875 C 61.753906 60.84375 61.546875 61.414062 61.507812 61.453125 C 61.46875 61.492188 61.414062 61.652344 61.390625 61.804688 C 61.363281 61.960938 61.296875 62.199219 61.234375 62.339844 C 61.074219 62.707031 61.039062 62.808594 60.878906 63.320312 C 60.796875 63.578125 60.660156 63.980469 60.574219 64.21875 C 60.488281 64.457031 60.375 64.800781 60.320312 64.984375 C 60.265625 65.167969 60.1875 65.40625 60.148438 65.515625 C 59.933594 66.136719 59.332031 68.023438 59.039062 69.011719 C 58.988281 69.175781 58.855469 69.609375 58.746094 69.976562 C 58.636719 70.339844 58.46875 70.910156 58.371094 71.238281 C 58.277344 71.570312 58.152344 71.972656 58.097656 72.136719 C 58.039062 72.300781 57.96875 72.558594 57.9375 72.703125 C 57.90625 72.851562 57.847656 73.105469 57.8125 73.273438 C 57.777344 73.441406 57.71875 73.648438 57.679688 73.738281 C 57.605469 73.929688 57.402344 74.613281 57.203125 75.367188 C 57.125 75.660156 56.988281 76.152344 56.898438 76.464844 C 56.808594 76.773438 56.675781 77.285156 56.601562 77.59375 C 56.523438 77.90625 56.4375 78.25 56.40625 78.359375 C 56.375 78.46875 56.265625 78.875 56.167969 79.257812 C 56.066406 79.644531 55.914062 80.195312 55.828125 80.488281 C 55.621094 81.191406 55.398438 82.121094 55.398438 82.285156 C 55.398438 82.378906 55.453125 82.328125 55.566406 82.128906 C 55.65625 81.972656 55.734375 81.800781 55.734375 81.75 C 55.734375 81.675781 56.054688 81.019531 56.332031 80.523438 C 56.363281 80.46875 56.558594 80.050781 56.765625 79.589844 C 57.140625 78.773438 57.332031 78.386719 57.988281 77.128906 C 58.472656 76.199219 59.273438 74.78125 59.382812 74.660156 C 59.433594 74.605469 59.476562 74.53125 59.476562 74.5 C 59.476562 74.46875 59.578125 74.292969 59.699219 74.105469 C 59.824219 73.921875 60.050781 73.574219 60.199219 73.335938 C 60.609375 72.691406 61.375 71.617188 62.042969 70.753906 C 62.191406 70.558594 62.398438 70.289062 62.503906 70.152344 C 62.71875 69.875 64.105469 68.390625 64.34375 68.183594 C 64.433594 68.105469 64.640625 67.914062 64.8125 67.753906 C 65.773438 66.847656 66.796875 66.523438 67.464844 66.914062 C 68.253906 67.375 68.539062 69.140625 68.359375 72.4375 C 68.296875 73.570312 68.351562 78.484375 68.429688 78.6875 C 68.464844 78.785156 68.542969 78.859375 68.613281 78.855469 C 68.8125 78.855469 69.476562 78.445312 69.90625 78.0625 C 70.132812 77.859375 70.46875 77.558594 70.660156 77.394531 C 70.847656 77.230469 71.121094 76.980469 71.265625 76.839844 C 71.414062 76.699219 71.609375 76.523438 71.703125 76.453125 C 71.796875 76.378906 72.054688 76.148438 72.277344 75.941406 C 72.5 75.734375 72.828125 75.433594 73.011719 75.273438 C 73.195312 75.113281 73.539062 74.796875 73.78125 74.574219 C 74.023438 74.351562 74.335938 74.066406 74.480469 73.941406 C 74.625 73.816406 74.941406 73.53125 75.179688 73.308594 C 75.417969 73.085938 75.824219 72.722656 76.078125 72.503906 C 76.332031 72.285156 76.679688 71.984375 76.847656 71.835938 C 77.375 71.371094 77.925781 70.914062 78.128906 70.765625 C 78.238281 70.6875 78.484375 70.476562 78.675781 70.300781 C 78.867188 70.121094 79.21875 69.8125 79.457031 69.609375 C 79.695312 69.40625 79.964844 69.167969 80.058594 69.078125 C 80.152344 68.984375 80.441406 68.742188 80.699219 68.53125 C 80.960938 68.324219 81.214844 68.117188 81.265625 68.066406 C 81.320312 68.019531 81.503906 67.867188 81.675781 67.726562 C 81.96875 67.492188 82.164062 67.320312 83.457031 66.160156 C 84.179688 65.507812 84.191406 65.5 84.871094 64.882812 C 85.785156 64.054688 86.464844 63.417969 87.367188 62.539062 C 87.8125 62.109375 88.195312 61.757812 88.226562 61.757812 C 88.253906 61.757812 88.277344 61.792969 88.277344 61.835938 C 88.277344 61.960938 83.800781 66.347656 83.671875 66.347656 C 83.640625 66.347656 83.46875 66.507812 83.28125 66.699219 C 82.78125 67.214844 81.515625 68.371094 81.085938 68.703125 C 80.65625 69.035156 79.90625 69.691406 78.988281 70.539062 C 78.675781 70.828125 78.355469 71.117188 78.277344 71.183594 C 78.195312 71.25 78.003906 71.410156 77.851562 71.539062 C 77.527344 71.808594 77.382812 71.9375 76.671875 72.578125 C 76.382812 72.835938 75.96875 73.207031 75.746094 73.398438 C 75.160156 73.910156 74.8125 74.230469 74.101562 74.898438 C 73.753906 75.230469 73.261719 75.679688 73.011719 75.898438 C 72.757812 76.117188 72.457031 76.386719 72.34375 76.496094 C 72.226562 76.605469 72.027344 76.789062 71.902344 76.90625 C 71.773438 77.019531 71.597656 77.207031 71.503906 77.320312 C 71.414062 77.433594 71.304688 77.527344 71.265625 77.527344 C 71.175781 77.527344 70.300781 78.421875 70.300781 78.515625 C 70.300781 78.644531 69.757812 79.011719 69.285156 79.203125 C 68.476562 79.53125 68.089844 79.464844 67.957031 78.976562 C 67.878906 78.691406 67.914062 73.277344 68.003906 71.539062 C 68.046875 70.707031 67.972656 69.878906 67.746094 68.710938 C 67.566406 67.777344 67.429688 67.453125 67.15625 67.3125 C 66.894531 67.175781 66.445312 67.226562 66.207031 67.414062 C 66.121094 67.480469 65.964844 67.558594 65.867188 67.582031 C 65.769531 67.609375 65.664062 67.664062 65.640625 67.703125 C 65.613281 67.746094 65.46875 67.867188 65.324219 67.976562 C 65.175781 68.085938 64.890625 68.328125 64.6875 68.519531 C 64.484375 68.710938 64.207031 68.96875 64.070312 69.09375 C 63.929688 69.222656 63.820312 69.355469 63.820312 69.394531 C 63.820312 69.429688 63.746094 69.507812 63.652344 69.566406 C 63.507812 69.664062 63.296875 69.902344 62.613281 70.742188 C 62.300781 71.121094 60.972656 72.960938 60.878906 73.140625 C 60.832031 73.230469 60.75 73.347656 60.699219 73.402344 C 60.648438 73.457031 60.523438 73.636719 60.421875 73.800781 C 60.316406 73.964844 60.175781 74.1875 60.105469 74.292969 C 59.925781 74.5625 59.707031 74.921875 59.558594 75.199219 C 59.488281 75.328125 59.339844 75.582031 59.230469 75.765625 C 59.054688 76.0625 58.847656 76.457031 58.207031 77.726562 C 58.105469 77.929688 57.820312 78.511719 57.574219 79.027344 C 57.332031 79.539062 57.085938 80.03125 57.027344 80.125 C 56.972656 80.214844 56.792969 80.574219 56.632812 80.921875 C 56.46875 81.269531 56.289062 81.628906 56.238281 81.722656 C 56.179688 81.8125 56.085938 81.992188 56.027344 82.117188 C 55.96875 82.246094 55.851562 82.410156 55.769531 82.484375 C 55.542969 82.6875 55.332031 83.101562 55.328125 83.339844 C 55.328125 83.5625 54.679688 84.929688 54.5625 84.957031 C 54.527344 84.964844 54.457031 84.957031 54.414062 84.9375 Z M 35.652344 74.910156 C 35.429688 74.570312 35.578125 70.757812 35.886719 68.84375 C 36.03125 67.929688 36.191406 66.816406 36.253906 66.28125 C 36.304688 65.808594 36.535156 64.75 36.691406 64.285156 C 36.757812 64.085938 36.863281 63.710938 36.925781 63.453125 C 37.09375 62.753906 37.839844 61.269531 38.472656 60.371094 C 38.679688 60.074219 38.835938 59.738281 38.972656 59.300781 C 39.082031 58.949219 39.273438 58.375 39.398438 58.023438 C 39.523438 57.675781 39.628906 57.359375 39.628906 57.324219 C 39.628906 57.242188 40.222656 55.367188 40.300781 55.203125 C 40.335938 55.128906 40.496094 54.679688 40.660156 54.203125 C 40.949219 53.347656 41.046875 53.089844 41.316406 52.507812 C 41.390625 52.34375 41.523438 52.019531 41.609375 51.792969 C 41.695312 51.5625 41.792969 51.324219 41.828125 51.257812 C 41.863281 51.195312 42.058594 50.796875 42.257812 50.378906 C 43.285156 48.226562 44.089844 46.675781 44.335938 46.382812 C 44.382812 46.328125 44.535156 46.058594 44.679688 45.785156 C 44.820312 45.511719 45.035156 45.144531 45.152344 44.972656 C 45.273438 44.800781 45.425781 44.5625 45.492188 44.441406 C 45.558594 44.320312 45.761719 44 45.945312 43.730469 C 46.128906 43.457031 46.335938 43.144531 46.40625 43.03125 C 46.476562 42.917969 46.746094 42.542969 47.007812 42.199219 C 47.265625 41.855469 47.578125 41.4375 47.695312 41.265625 C 47.8125 41.09375 48.148438 40.710938 48.441406 40.414062 C 49.144531 39.699219 49.488281 39.617188 49.78125 40.089844 C 49.910156 40.292969 49.910156 40.328125 49.820312 40.503906 C 49.765625 40.609375 49.71875 40.734375 49.71875 40.78125 C 49.71875 40.828125 49.664062 41.035156 49.59375 41.246094 C 49.527344 41.453125 49.40625 41.867188 49.324219 42.160156 C 49.179688 42.675781 48.871094 43.710938 48.675781 44.320312 C 48.625 44.484375 48.582031 44.6875 48.582031 44.769531 C 48.582031 44.953125 48.28125 46.128906 48.148438 46.46875 C 48.09375 46.605469 48.046875 46.800781 48.046875 46.902344 C 48.046875 47.003906 47.984375 47.25 47.90625 47.449219 C 47.832031 47.652344 47.726562 48.019531 47.675781 48.265625 C 47.628906 48.511719 47.566406 48.75 47.539062 48.792969 C 47.511719 48.832031 47.449219 49.050781 47.398438 49.273438 C 47.125 50.46875 47.046875 50.785156 46.917969 51.207031 C 46.839844 51.464844 46.714844 51.882812 46.644531 52.140625 C 46.503906 52.632812 46.355469 53.140625 46.203125 53.636719 C 46.152344 53.800781 46.078125 54.070312 46.035156 54.238281 C 45.992188 54.402344 45.859375 54.867188 45.734375 55.269531 C 45.210938 57.003906 45.011719 57.695312 44.925781 58.097656 C 44.90625 58.1875 44.742188 58.757812 44.554688 59.359375 C 44.371094 59.964844 44.179688 60.59375 44.132812 60.757812 C 44.085938 60.921875 43.984375 61.230469 43.910156 61.4375 C 43.832031 61.648438 43.769531 61.875 43.769531 61.941406 C 43.769531 62.007812 43.746094 62.089844 43.714844 62.125 C 43.683594 62.160156 43.617188 62.367188 43.570312 62.589844 C 43.519531 62.808594 43.441406 63.066406 43.394531 63.164062 C 43.347656 63.261719 43.28125 63.457031 43.246094 63.597656 C 43.210938 63.738281 43.105469 64.121094 43.007812 64.453125 C 42.898438 64.816406 42.816406 65.273438 42.800781 65.617188 C 42.785156 65.925781 42.746094 66.316406 42.710938 66.480469 C 42.675781 66.644531 42.585938 67.082031 42.511719 67.449219 C 42.433594 67.816406 42.355469 68.160156 42.335938 68.214844 C 42.316406 68.269531 42.289062 68.402344 42.269531 68.511719 C 42.171875 69.175781 41.886719 70.386719 41.800781 70.515625 C 41.746094 70.601562 41.699219 70.808594 41.699219 70.976562 C 41.699219 71.144531 41.667969 71.339844 41.632812 71.410156 C 41.59375 71.480469 41.535156 71.695312 41.496094 71.886719 C 41.402344 72.414062 41.238281 72.734375 41.042969 72.78125 C 40.816406 72.835938 40.695312 72.660156 40.699219 72.273438 C 40.699219 71.902344 41.066406 69.664062 41.152344 69.496094 C 41.1875 69.429688 41.234375 69.257812 41.253906 69.109375 C 41.320312 68.648438 41.375 68.382812 41.4375 68.210938 C 41.472656 68.121094 41.570312 67.730469 41.660156 67.347656 C 41.835938 66.5625 42.199219 65.1875 42.332031 64.785156 C 42.378906 64.636719 42.484375 64.292969 42.566406 64.019531 C 42.847656 63.066406 43.164062 62.046875 43.726562 60.292969 C 44.300781 58.488281 44.453125 57.996094 44.707031 57.066406 C 44.789062 56.773438 44.96875 56.144531 45.113281 55.667969 C 45.488281 54.398438 45.777344 53.363281 45.777344 53.277344 C 45.777344 53.207031 45.988281 52.5 46.1875 51.90625 C 46.3125 51.535156 46.773438 49.785156 46.875 49.3125 C 46.960938 48.902344 47.058594 48.515625 47.378906 47.382812 C 47.453125 47.109375 47.5625 46.671875 47.617188 46.417969 C 47.671875 46.160156 47.75 45.875 47.789062 45.785156 C 47.90625 45.523438 48.109375 44.761719 48.074219 44.710938 C 48.058594 44.683594 48.105469 44.503906 48.175781 44.308594 C 48.246094 44.113281 48.324219 43.835938 48.347656 43.6875 C 48.371094 43.542969 48.460938 43.199219 48.550781 42.921875 C 48.636719 42.648438 48.769531 42.167969 48.847656 41.859375 C 48.925781 41.546875 49.019531 41.199219 49.054688 41.089844 C 49.132812 40.828125 49.136719 40.59375 49.054688 40.59375 C 48.96875 40.59375 48.523438 41.054688 48.25 41.429688 C 48.121094 41.605469 47.9375 41.824219 47.84375 41.917969 C 47.75 42.015625 47.585938 42.226562 47.476562 42.390625 C 47.367188 42.554688 47.136719 42.875 46.960938 43.097656 C 46.789062 43.324219 46.644531 43.535156 46.644531 43.574219 C 46.644531 43.609375 46.605469 43.671875 46.554688 43.714844 C 46.441406 43.808594 45.785156 44.785156 45.546875 45.214844 C 45.445312 45.394531 45.214844 45.773438 45.035156 46.054688 C 44.855469 46.335938 44.707031 46.597656 44.707031 46.640625 C 44.707031 46.683594 44.679688 46.71875 44.648438 46.71875 C 44.613281 46.71875 44.539062 46.828125 44.480469 46.964844 C 44.421875 47.105469 44.265625 47.410156 44.132812 47.648438 C 44 47.886719 43.761719 48.328125 43.597656 48.632812 C 43.433594 48.9375 43.269531 49.238281 43.234375 49.296875 C 43.199219 49.359375 43.140625 49.488281 43.101562 49.578125 C 43.066406 49.667969 43.007812 49.789062 42.976562 49.84375 C 42.902344 49.960938 42.519531 50.777344 42.269531 51.34375 C 42.175781 51.5625 42.050781 51.828125 41.996094 51.929688 C 41.945312 52.035156 41.898438 52.144531 41.898438 52.179688 C 41.898438 52.214844 41.84375 52.367188 41.777344 52.523438 C 41.585938 52.957031 41.515625 53.128906 41.261719 53.824219 C 41.128906 54.179688 40.988281 54.558594 40.949219 54.667969 C 40.90625 54.78125 40.851562 54.898438 40.828125 54.933594 C 40.800781 54.972656 40.757812 55.128906 40.730469 55.285156 C 40.707031 55.441406 40.660156 55.582031 40.632812 55.597656 C 40.601562 55.617188 40.511719 55.851562 40.429688 56.117188 C 40.347656 56.382812 40.175781 56.914062 40.046875 57.296875 C 39.777344 58.109375 39.566406 58.875 39.5625 59.050781 C 39.5625 59.148438 39.59375 59.132812 39.726562 58.972656 C 39.820312 58.863281 39.894531 58.757812 39.894531 58.734375 C 39.894531 58.644531 40.234375 58.164062 40.296875 58.164062 C 40.410156 58.164062 40.367188 58.804688 40.234375 59.105469 C 40.089844 59.433594 39.75 59.828125 39.609375 59.828125 C 39.390625 59.828125 39.027344 60.535156 39.027344 60.957031 C 39.027344 61.054688 38.996094 61.160156 38.957031 61.199219 C 38.882812 61.273438 38.566406 62.457031 38.328125 63.554688 C 38.242188 63.9375 38.128906 64.445312 38.070312 64.683594 C 37.84375 65.605469 37.621094 66.675781 37.523438 67.3125 C 37.464844 67.679688 37.382812 68.113281 37.34375 68.277344 C 37.304688 68.441406 37.246094 68.726562 37.222656 68.910156 C 37.109375 69.6875 36.875 70.988281 36.8125 71.191406 C 36.738281 71.4375 36.71875 71.542969 36.652344 72.105469 C 36.628906 72.324219 36.582031 72.554688 36.546875 72.613281 C 36.515625 72.675781 36.472656 72.871094 36.449219 73.046875 C 36.429688 73.226562 36.363281 73.578125 36.308594 73.835938 C 36.25 74.089844 36.179688 74.433594 36.144531 74.59375 C 36.046875 75.078125 35.847656 75.203125 35.652344 74.910156 Z M 36.257812 72.425781 C 36.175781 72.210938 36.085938 72.367188 36.085938 72.730469 C 36.085938 73.328125 36.171875 73.449219 36.238281 72.941406 C 36.265625 72.707031 36.277344 72.476562 36.257812 72.425781 Z M 36.289062 71.472656 C 36.335938 71.199219 36.386719 70.929688 36.402344 70.875 C 36.414062 70.820312 36.453125 70.625 36.484375 70.441406 C 36.515625 70.257812 36.59375 69.839844 36.652344 69.507812 C 36.714844 69.179688 36.789062 68.730469 36.816406 68.511719 C 36.847656 68.292969 36.910156 67.976562 36.953125 67.8125 C 37 67.648438 37.078125 67.289062 37.132812 67.015625 C 37.425781 65.46875 37.492188 65.148438 37.582031 64.785156 C 37.636719 64.566406 37.757812 64.011719 37.855469 63.554688 C 37.949219 63.097656 38.074219 62.589844 38.128906 62.429688 C 38.179688 62.265625 38.210938 62.121094 38.191406 62.101562 C 38.144531 62.054688 37.960938 62.300781 37.960938 62.410156 C 37.957031 62.5 37.761719 62.886719 37.683594 62.953125 C 37.644531 62.992188 37.464844 63.5625 37.191406 64.519531 C 37.003906 65.179688 36.660156 66.839844 36.589844 67.414062 C 36.566406 67.613281 36.472656 68.273438 36.382812 68.878906 C 36.292969 69.480469 36.207031 70.316406 36.191406 70.734375 C 36.171875 71.148438 36.136719 71.628906 36.113281 71.796875 C 36.042969 72.304688 36.1875 72.027344 36.289062 71.472656 Z M 41.628906 70.804688 C 41.632812 70.710938 41.691406 70.308594 41.765625 69.910156 C 41.921875 69.058594 41.917969 69.144531 41.832031 69.144531 C 41.796875 69.144531 41.765625 69.214844 41.765625 69.304688 C 41.765625 69.394531 41.734375 69.488281 41.699219 69.507812 C 41.664062 69.53125 41.632812 69.625 41.632812 69.71875 C 41.632812 69.808594 41.601562 69.941406 41.5625 70.011719 C 41.527344 70.082031 41.480469 70.382812 41.464844 70.683594 C 41.4375 71.167969 41.445312 71.214844 41.53125 71.101562 C 41.585938 71.03125 41.628906 70.898438 41.628906 70.804688 Z M 41.925781 68.839844 C 41.949219 68.78125 41.9375 68.753906 41.898438 68.777344 C 41.863281 68.800781 41.832031 68.847656 41.832031 68.882812 C 41.832031 68.976562 41.878906 68.957031 41.925781 68.839844 Z M 42.273438 67.097656 C 42.253906 67.078125 42.234375 67.117188 42.238281 67.1875 C 42.242188 67.261719 42.257812 67.277344 42.28125 67.226562 C 42.300781 67.179688 42.296875 67.121094 42.273438 67.097656 Z M 88.453125 61.523438 C 88.472656 61.46875 88.539062 61.425781 88.59375 61.425781 C 88.675781 61.425781 88.679688 61.441406 88.609375 61.523438 C 88.566406 61.578125 88.503906 61.625 88.472656 61.625 C 88.441406 61.625 88.433594 61.578125 88.453125 61.523438 Z M 88.746094 61.308594 C 88.746094 61.269531 88.789062 61.203125 88.84375 61.15625 C 88.902344 61.113281 88.945312 61.105469 88.945312 61.140625 C 88.945312 61.179688 88.898438 61.246094 88.84375 61.289062 C 88.789062 61.335938 88.746094 61.34375 88.746094 61.308594 Z M 66.59375 28.015625 C 66.570312 27.980469 66.582031 27.949219 66.621094 27.949219 C 66.660156 27.949219 66.691406 27.980469 66.691406 28.015625 C 66.691406 28.054688 66.679688 28.082031 66.664062 28.082031 C 66.648438 28.082031 66.613281 28.054688 66.59375 28.015625 Z M 86.601562 18.328125 C 86.503906 18.214844 86.515625 18.199219 86.753906 18.144531 C 86.992188 18.085938 87.046875 18.191406 86.847656 18.324219 C 86.703125 18.417969 86.675781 18.417969 86.601562 18.328125 Z M 46.242188 2.867188 C 46.242188 2.828125 46.273438 2.796875 46.308594 2.796875 C 46.347656 2.796875 46.378906 2.808594 46.378906 2.824219 C 46.378906 2.839844 46.347656 2.871094 46.308594 2.894531 C 46.273438 2.917969 46.242188 2.902344 46.242188 2.867188 Z M 46.511719 2.660156 C 46.511719 2.625 46.539062 2.59375 46.578125 2.59375 C 46.613281 2.59375 46.644531 2.625 46.644531 2.660156 C 46.644531 2.699219 46.613281 2.726562 46.578125 2.726562 C 46.539062 2.726562 46.511719 2.699219 46.511719 2.660156 Z M 46.511719 2.660156 "/>
</g>
</svg>
