<?xml version="1.0" encoding="UTF-8"?>
<svg xmlns="http://www.w3.org/2000/svg" xmlns:xlink="http://www.w3.org/1999/xlink" width="1032pt" height="1116pt" viewBox="0 0 1032 1116" version="1.1">
<g id="surface1">
<path style=" stroke:none;fill-rule:nonzero;fill:rgb(0%,0%,0%);fill-opacity:1;" d="M 45.375 1107.964844 C 41.210938 1106.917969 41.050781 1104.789062 44.738281 1099.386719 C 47.375 1095.523438 57 1076.277344 57 1074.871094 C 57 1074.492188 57.507812 1073.761719 58.128906 1073.246094 C 58.75 1072.730469 61.390625 1068.050781 64 1062.84375 C 66.609375 1057.636719 69.097656 1052.699219 69.53125 1051.875 C 69.964844 1051.050781 71.09375 1048.6875 72.039062 1046.625 C 72.980469 1044.5625 73.984375 1042.707031 74.265625 1042.5 C 74.546875 1042.292969 76.167969 1039.257812 77.867188 1035.75 C 79.5625 1032.242188 81.289062 1028.867188 81.699219 1028.25 C 82.113281 1027.632812 84.695312 1022.570312 87.445312 1017 C 90.195312 1011.429688 93.457031 1005.019531 94.699219 1002.75 C 95.9375 1000.480469 101.691406 989.34375 107.480469 978 C 129.027344 935.773438 137.761719 919.007812 139.515625 916.5 C 140.234375 915.46875 141.652344 912.9375 142.660156 910.875 C 145.527344 905.023438 154.304688 888.28125 158.148438 881.34375 C 162.652344 873.203125 165.875 867.195312 171.671875 856.125 C 174.265625 851.175781 177.539062 845.222656 178.945312 842.902344 C 180.347656 840.578125 181.5 838.4375 181.5 838.144531 C 181.5 837.847656 182.128906 836.710938 182.902344 835.617188 C 183.671875 834.519531 185.910156 830.585938 187.875 826.875 C 189.84375 823.164062 191.84375 819.617188 192.328125 819 C 192.8125 818.382812 194.496094 815.34375 196.074219 812.25 C 197.652344 809.15625 199.582031 805.71875 200.363281 804.609375 C 201.148438 803.5 203.125 799.957031 204.757812 796.734375 C 207.703125 790.929688 209.351562 787.980469 214.117188 780 C 216.597656 775.851562 220.476562 768.800781 222.578125 764.625 C 223.203125 763.386719 224.460938 761.363281 225.371094 760.125 C 226.285156 758.886719 228.152344 755.511719 229.519531 752.625 C 230.890625 749.738281 232.582031 746.53125 233.28125 745.5 C 233.980469 744.46875 236.160156 740.585938 238.125 736.875 C 240.09375 733.164062 242.09375 729.617188 242.574219 729 C 243.054688 728.382812 244.40625 726.019531 245.582031 723.75 C 246.757812 721.480469 248.152344 719.117188 248.683594 718.5 C 249.210938 717.878906 250.003906 716.527344 250.445312 715.5 C 250.886719 714.46875 251.566406 713.117188 251.960938 712.5 C 252.351562 711.882812 254.925781 707.324219 257.675781 702.375 C 260.429688 697.425781 263.992188 691.121094 265.589844 688.367188 C 267.191406 685.617188 268.5 683.160156 268.5 682.914062 C 268.5 682.667969 269.976562 679.859375 271.777344 676.671875 C 273.582031 673.484375 277.816406 665.8125 281.191406 659.625 C 284.5625 653.4375 287.636719 647.867188 288.015625 647.25 C 288.398438 646.632812 289.570312 644.476562 290.621094 642.464844 C 293.980469 636.042969 303.945312 617.691406 305.097656 615.804688 C 305.707031 614.804688 307.550781 611.429688 309.191406 608.304688 C 310.832031 605.179688 313.378906 600.429688 314.847656 597.75 C 316.316406 595.070312 318.761719 590.511719 320.28125 587.625 C 321.800781 584.738281 324.070312 580.519531 325.324219 578.25 C 329.84375 570.058594 338.253906 553.105469 338.25 552.1875 C 338.25 551.671875 338.546875 551.25 338.914062 551.25 C 339.277344 551.25 339.777344 550.660156 340.019531 549.9375 C 340.265625 549.214844 343 543.898438 346.09375 538.125 C 349.1875 532.351562 352.914062 525.261719 354.375 522.375 C 355.835938 519.488281 357.335938 516.617188 357.714844 516 C 358.089844 515.382812 360.757812 509.980469 363.644531 504 C 366.527344 498.015625 369.742188 491.867188 370.78125 490.335938 C 371.820312 488.804688 374.589844 483.574219 376.9375 478.710938 C 379.285156 473.851562 381.792969 468.695312 382.507812 467.25 C 383.222656 465.804688 384.046875 463.613281 384.339844 462.375 C 384.628906 461.136719 386.339844 457.054688 388.140625 453.304688 C 389.941406 449.554688 391.632812 445.601562 391.90625 444.523438 C 392.175781 443.445312 392.871094 442.167969 393.449219 441.6875 C 394.027344 441.210938 394.5 440.316406 394.5 439.703125 C 394.5 439.089844 395.539062 436.347656 396.808594 433.605469 C 398.078125 430.867188 400.210938 426.261719 401.550781 423.375 C 402.890625 420.488281 405.429688 414.074219 407.191406 409.125 C 408.953125 404.175781 411.03125 398.550781 411.8125 396.628906 C 414.160156 390.859375 415.671875 384.753906 416.5 377.714844 C 417.214844 371.640625 417.152344 370.820312 415.808594 368.339844 C 414.339844 365.632812 414.320312 365.625 409.871094 365.871094 C 407.417969 366.003906 404.558594 366.554688 403.519531 367.085938 C 402.476562 367.621094 400.445312 368.613281 399 369.289062 C 394.769531 371.273438 390.433594 373.839844 384.738281 377.730469 C 381.808594 379.734375 378.300781 382.050781 376.949219 382.875 C 375.597656 383.699219 373.992188 384.882812 373.378906 385.5 C 372.769531 386.117188 371.027344 387.46875 369.511719 388.5 C 368 389.53125 366.757812 390.597656 366.753906 390.875 C 366.753906 391.148438 365.007812 392.652344 362.878906 394.214844 C 360.75 395.777344 357.976562 398 356.710938 399.152344 C 355.449219 400.304688 354.203125 401.25 353.945312 401.25 C 353.6875 401.25 351.992188 402.558594 350.175781 404.15625 C 348.359375 405.757812 343.332031 410.179688 339 413.988281 C 334.667969 417.792969 329.742188 422.304688 328.054688 424.015625 C 326.367188 425.726562 323.683594 428.136719 322.089844 429.375 C 320.5 430.613281 317.664062 433.273438 315.785156 435.289062 C 313.910156 437.304688 308.375 442.871094 303.484375 447.664062 C 298.59375 452.453125 294.207031 456.824219 293.734375 457.378906 C 293.261719 457.929688 291.355469 459.972656 289.5 461.917969 C 287.644531 463.867188 283.59375 468.300781 280.5 471.773438 C 277.40625 475.242188 272.742188 480.289062 270.140625 482.980469 C 267.535156 485.671875 264.75 488.71875 263.953125 489.75 C 259.191406 495.910156 257.289062 498.800781 255.683594 502.3125 C 254.695312 504.476562 253.628906 506.25 253.316406 506.25 C 253.003906 506.25 252.75 506.789062 252.75 507.445312 C 252.75 508.105469 252.0625 509.609375 251.222656 510.789062 C 250.382812 511.96875 249.316406 514.046875 248.859375 515.40625 C 248.398438 516.761719 247.441406 518.71875 246.734375 519.75 C 246.023438 520.78125 244.347656 524.15625 243.007812 527.25 C 241.667969 530.34375 240.304688 533.210938 239.984375 533.625 C 239.664062 534.039062 237.675781 537.75 235.5625 541.875 C 233.449219 546 231.414062 549.882812 231.039062 550.5 C 230.664062 551.117188 229.617188 553.3125 228.714844 555.375 C 226.003906 561.558594 215.09375 583.796875 214.230469 584.894531 C 213.167969 586.246094 208.5 597.011719 208.5 598.109375 C 208.5 598.582031 207.898438 599.621094 207.164062 600.421875 C 206.425781 601.222656 205.035156 603.730469 204.066406 606 C 203.101562 608.269531 199.484375 615.933594 196.03125 623.035156 C 192.574219 630.132812 189.75 636.089844 189.75 636.273438 C 189.75 636.457031 186.207031 643.902344 181.875 652.820312 C 177.542969 661.742188 174 669.183594 174 669.355469 C 174 669.527344 171.640625 674.589844 168.757812 680.605469 C 165.875 686.621094 163.308594 692.375 163.050781 693.394531 C 162.796875 694.414062 162.324219 695.25 162.007812 695.25 C 161.6875 695.25 161.238281 695.839844 161.007812 696.5625 C 160.78125 697.285156 160.101562 698.71875 159.496094 699.75 C 158.007812 702.300781 152.25 714.539062 152.25 715.15625 C 152.25 715.425781 149.9375 720.425781 147.109375 726.261719 C 144.28125 732.097656 141.707031 737.71875 141.386719 738.75 C 141.070312 739.78125 138.460938 745.519531 135.585938 751.5 C 130.203125 762.71875 126 772.640625 126 774.148438 C 126 774.621094 125.515625 775.539062 124.925781 776.191406 C 124.335938 776.84375 122.777344 780.078125 121.460938 783.378906 C 120.140625 786.675781 117.925781 791.492188 116.53125 794.082031 C 115.140625 796.667969 114 799.109375 114 799.503906 C 114 799.894531 112.800781 802.839844 111.335938 806.046875 C 109.867188 809.25 108.390625 812.550781 108.046875 813.375 C 107.082031 815.710938 102.71875 825.859375 101.550781 828.488281 C 100.972656 829.789062 100.5 831.175781 100.5 831.570312 C 100.5 831.964844 99.488281 834.1875 98.25 836.503906 C 97.011719 838.824219 96 841.226562 96 841.839844 C 96 842.457031 95.277344 844.570312 94.390625 846.542969 C 92.125 851.578125 91.84375 852.28125 88.894531 860.105469 C 86.550781 866.332031 82.902344 875.199219 80.96875 879.375 C 79.746094 882.007812 75.675781 892.042969 74.882812 894.375 C 74.460938 895.613281 73.667969 897.636719 73.121094 898.875 C 70.871094 903.957031 68.359375 910.304688 67.480469 913.125 C 66.964844 914.773438 65.390625 918.433594 63.980469 921.25 C 61.441406 926.332031 54.75 941.636719 54.75 942.367188 C 54.75 942.730469 52.785156 946.960938 46.902344 959.25 C 45.421875 962.34375 43.503906 966.054688 42.640625 967.5 C 41.777344 968.945312 40.238281 971.644531 39.226562 973.5 C 38.210938 975.355469 36.046875 979.238281 34.414062 982.125 C 32.785156 985.011719 31.25 987.972656 31.007812 988.699219 C 30.765625 989.429688 30.1875 989.949219 29.722656 989.855469 C 29.257812 989.761719 28.085938 990.121094 27.125 990.652344 C 24.628906 992.03125 24.433594 991.363281 26.199219 987.488281 C 27.050781 985.617188 27.75 983.9375 27.75 983.757812 C 27.75 983.578125 29.21875 980.777344 31.011719 977.527344 C 39.335938 962.457031 45.75 950.078125 45.75 949.070312 C 45.75 948.8125 47.070312 945.851562 48.683594 942.488281 C 50.296875 939.125 53.382812 932.324219 55.539062 927.375 C 57.695312 922.425781 60.085938 916.945312 60.855469 915.195312 C 61.621094 913.445312 62.25 911.839844 62.25 911.625 C 62.25 911.410156 62.890625 909.804688 63.671875 908.054688 C 65.773438 903.355469 71.3125 889.890625 76.394531 877.125 C 78.859375 870.9375 81.746094 863.929688 82.804688 861.554688 C 83.867188 859.179688 86.457031 852.769531 88.554688 847.304688 C 90.65625 841.84375 93.480469 834.84375 94.835938 831.75 C 97.007812 826.78125 101.921875 815.300781 104.628906 808.875 C 105.148438 807.636719 106.289062 805.027344 107.164062 803.070312 C 108.035156 801.117188 108.75 799.375 108.75 799.199219 C 108.75 799.027344 109.902344 796.40625 111.308594 793.378906 C 112.71875 790.351562 118.097656 778.546875 123.261719 767.144531 C 128.429688 755.746094 134.390625 742.75 136.507812 738.269531 C 138.625 733.789062 140.644531 729.449219 140.992188 728.625 C 141.339844 727.800781 143.644531 722.90625 146.113281 717.75 C 148.582031 712.59375 150.847656 707.53125 151.152344 706.5 C 151.453125 705.46875 151.957031 704.457031 152.273438 704.25 C 152.585938 704.042969 154.402344 700.398438 156.308594 696.148438 C 158.21875 691.902344 162.335938 683.125 165.457031 676.648438 C 168.582031 670.171875 172.167969 662.679688 173.425781 660 C 174.6875 657.320312 179.382812 647.582031 183.859375 638.359375 C 188.335938 629.136719 192 621.445312 192 621.269531 C 192 621.089844 197.691406 609.394531 204.644531 595.285156 C 211.597656 581.171875 217.527344 568.867188 217.820312 567.9375 C 218.113281 567.007812 218.644531 566.25 219 566.25 C 219.355469 566.25 219.875 565.492188 220.15625 564.5625 C 220.433594 563.632812 224.507812 555.105469 229.207031 545.605469 C 233.90625 536.109375 237.75 528.125 237.75 527.863281 C 237.75 527.597656 239.128906 524.953125 240.8125 521.980469 C 242.835938 518.410156 243.621094 516.324219 243.132812 515.832031 C 242.640625 515.339844 242.074219 515.6875 241.457031 516.855469 C 240.945312 517.828125 239.898438 519.300781 239.125 520.125 C 235.839844 523.648438 232.625 527.78125 231.539062 529.875 C 230.898438 531.113281 229.042969 533.476562 227.414062 535.125 C 225.789062 536.773438 223.519531 539.644531 222.371094 541.5 C 221.222656 543.355469 219.152344 546.140625 217.765625 547.691406 C 216.382812 549.238281 215.25 550.859375 215.25 551.296875 C 215.25 551.730469 214.082031 553.332031 212.65625 554.855469 C 208.476562 559.316406 204.921875 563.867188 203.136719 567.042969 C 202.222656 568.667969 201.199219 570 200.863281 570 C 200.523438 570 200.25 570.351562 200.25 570.78125 C 200.25 572.003906 194.019531 579.15625 192.375 579.820312 C 191.960938 579.988281 190.613281 581.417969 189.375 583 C 184.851562 588.773438 183 592.089844 183 594.410156 C 183 595.84375 182.265625 597.621094 181.125 598.945312 C 180.09375 600.144531 179.25 601.824219 179.25 602.675781 C 179.25 603.53125 178.492188 604.914062 177.5625 605.75 C 176.632812 606.585938 175.5 607.914062 175.046875 608.695312 C 174.292969 609.984375 174.027344 610.015625 172.234375 609.058594 C 169.601562 607.648438 169.730469 605.90625 172.890625 600.035156 C 174.328125 597.371094 175.5 594.941406 175.5 594.628906 C 175.5 594.320312 176.34375 592.824219 177.375 591.304688 C 178.40625 589.785156 179.617188 587.167969 180.070312 585.484375 C 180.523438 583.804688 181.535156 581.609375 182.324219 580.613281 C 183.109375 579.613281 183.75 578.472656 183.75 578.078125 C 183.75 577.25 194.320312 555.386719 201.433594 541.5 C 204.074219 536.34375 208.304688 528 210.832031 522.957031 C 213.359375 517.914062 215.890625 513.402344 216.460938 512.925781 C 217.035156 512.453125 217.507812 511.515625 217.515625 510.84375 C 217.523438 510.175781 219.042969 506.757812 220.886719 503.25 C 225.265625 494.933594 231.75 481.710938 231.75 481.105469 C 231.75 480.84375 232.902344 478.882812 234.3125 476.753906 C 235.71875 474.621094 239.707031 467.277344 243.171875 460.433594 C 246.636719 453.59375 250.210938 446.960938 251.113281 445.695312 C 252.011719 444.429688 252.75 442.917969 252.75 442.339844 C 252.75 441.757812 253.355469 440.628906 254.097656 439.828125 C 254.839844 439.027344 256.023438 436.921875 256.734375 435.144531 C 257.441406 433.367188 258.664062 431.222656 259.449219 430.382812 C 260.234375 429.539062 261.070312 428.066406 261.3125 427.105469 C 261.757812 425.328125 274.351562 402.402344 276.753906 399 C 277.480469 397.96875 278.828125 395.523438 279.746094 393.5625 C 280.664062 391.601562 281.675781 390 281.996094 390 C 282.3125 390 283.480469 388.058594 284.585938 385.6875 C 286.824219 380.886719 286.589844 381.308594 291.324219 373.414062 C 293.207031 370.277344 294.757812 367.40625 294.761719 367.039062 C 294.777344 366.3125 298.613281 360.292969 300.207031 358.5 C 300.753906 357.882812 302.332031 355.011719 303.710938 352.125 C 305.089844 349.238281 307.316406 345.355469 308.652344 343.5 C 309.992188 341.644531 311.578125 338.945312 312.175781 337.5 C 312.777344 336.054688 313.828125 334.410156 314.507812 333.84375 C 315.191406 333.28125 315.75 332.5625 315.75 332.253906 C 315.75 331.945312 317.652344 328.527344 319.976562 324.660156 C 325.714844 315.117188 328.941406 309.375 331.207031 304.6875 C 332.253906 302.523438 333.421875 300.75 333.804688 300.75 C 334.1875 300.75 334.5 300.355469 334.5 299.875 C 334.5 299.394531 336.019531 296.5625 337.875 293.585938 C 339.730469 290.609375 341.25 287.90625 341.25 287.582031 C 341.25 287.257812 341.839844 286.34375 342.5625 285.550781 C 344.242188 283.710938 347.09375 278.753906 350.972656 270.9375 C 352.660156 267.535156 354.371094 264.75 354.769531 264.75 C 355.171875 264.75 355.5 264.117188 355.5 263.34375 C 355.5 262.566406 355.992188 261.523438 356.597656 261.023438 C 357.199219 260.523438 357.921875 259.386719 358.207031 258.496094 C 358.488281 257.605469 359.589844 255.523438 360.652344 253.875 C 361.710938 252.226562 363.710938 248.703125 365.089844 246.046875 C 366.46875 243.394531 368.164062 240.355469 368.859375 239.296875 C 371.199219 235.730469 372.007812 234.382812 372.929688 232.5 C 373.4375 231.46875 374.933594 229.089844 376.261719 227.214844 C 377.585938 225.339844 379.039062 222.976562 379.492188 221.964844 C 380.675781 219.3125 382.199219 216.75 383.164062 215.785156 C 383.625 215.328125 384 214.527344 384 214.011719 C 384 213.5 384.769531 212.246094 385.714844 211.226562 C 386.65625 210.210938 387.921875 208.425781 388.527344 207.257812 C 391.363281 201.785156 398.324219 189.574219 401.488281 184.519531 C 403.421875 181.4375 405 178.617188 405 178.253906 C 405 177.886719 406.011719 176.3125 407.25 174.75 C 408.488281 173.1875 409.5 171.726562 409.5 171.503906 C 409.5 171.027344 412.960938 165.234375 417.714844 157.761719 C 419.589844 154.8125 422.8125 149.632812 424.875 146.253906 C 426.9375 142.875 429.722656 138.617188 431.0625 136.796875 C 432.402344 134.976562 433.5 133.027344 433.5 132.46875 C 433.5 131.910156 434.1875 130.578125 435.027344 129.507812 C 437.429688 126.457031 441.75 119.90625 441.75 119.316406 C 441.75 119.023438 442.382812 118.101562 443.160156 117.269531 C 443.933594 116.4375 445.496094 114.265625 446.632812 112.441406 C 447.765625 110.617188 451.011719 105.878906 453.847656 101.910156 C 456.679688 97.945312 459 94.390625 459 94.015625 C 459 93.640625 459.589844 92.785156 460.3125 92.113281 C 461.035156 91.445312 462.398438 89.765625 463.34375 88.386719 C 469.777344 78.984375 480.066406 65.613281 484.027344 61.5 C 486.609375 58.820312 489.605469 55.445312 490.679688 54 C 491.753906 52.554688 494.597656 49.351562 496.996094 46.875 C 499.394531 44.398438 502.074219 41.441406 502.953125 40.304688 C 504.933594 37.730469 510.351562 33.75 511.867188 33.75 C 512.492188 33.75 513 33.414062 513 33 C 513 32.050781 513.808594 32.0625 515.25 33.027344 C 516.242188 33.691406 516.238281 33.886719 515.1875 34.703125 C 514.53125 35.210938 513.769531 36.546875 513.488281 37.675781 C 513.179688 38.910156 512.308594 39.90625 511.300781 40.179688 C 510.378906 40.429688 506.082031 44.683594 501.75 49.632812 C 497.417969 54.585938 493.199219 59.40625 492.375 60.347656 C 485.421875 68.28125 483 71.242188 483 71.792969 C 483 72.144531 481.625 73.941406 479.941406 75.78125 C 478.261719 77.621094 476.398438 80.054688 475.796875 81.1875 C 475.199219 82.320312 474.414062 83.25 474.050781 83.25 C 473.261719 83.25 468 90.425781 468 91.5 C 468 91.914062 467.714844 92.25 467.363281 92.25 C 466.78125 92.25 463.910156 96.289062 460.207031 102.316406 C 457.917969 106.039062 454.910156 110.59375 454.476562 111 C 453.292969 112.105469 448.5 119.1875 448.5 119.832031 C 448.5 120.25 448.007812 120.777344 447.410156 121.007812 C 446.808594 121.238281 445.582031 122.878906 444.683594 124.652344 C 443.785156 126.425781 442.816406 128.042969 442.53125 128.25 C 442.246094 128.457031 441.785156 129.132812 441.503906 129.75 C 441.222656 130.367188 439.648438 132.898438 438.011719 135.375 C 436.375 137.851562 434.144531 141.5625 433.058594 143.625 C 431.972656 145.6875 430.480469 148.050781 429.738281 148.875 C 428.34375 150.429688 425.949219 154.246094 424.328125 157.5 C 423.8125 158.53125 423.050781 159.75 422.632812 160.207031 C 422.214844 160.664062 421.089844 162.351562 420.132812 163.957031 C 419.175781 165.5625 416.070312 170.585938 413.230469 175.125 C 410.394531 179.664062 407.605469 184.21875 407.039062 185.25 C 406.183594 186.800781 403.246094 191.78125 393.78125 207.75 C 387.414062 218.492188 380.921875 229.089844 379.0625 231.78125 C 377.765625 233.65625 376.011719 236.765625 375.15625 238.695312 C 374.304688 240.621094 372.625 243.644531 371.425781 245.414062 C 370.226562 247.179688 368.453125 250.230469 367.488281 252.191406 C 366.523438 254.152344 365.097656 256.4375 364.320312 257.269531 C 363.546875 258.101562 362.546875 259.871094 362.101562 261.203125 C 361.65625 262.535156 360.496094 264.699219 359.519531 266.011719 C 358.546875 267.324219 357.75 268.761719 357.75 269.199219 C 357.75 269.640625 357.414062 270 357 270 C 356.585938 270 356.25 270.507812 356.25 271.125 C 356.25 271.742188 355.914062 272.25 355.5 272.25 C 355.085938 272.25 354.75 272.863281 354.75 273.609375 C 354.75 274.355469 354.035156 275.734375 353.164062 276.667969 C 352.292969 277.605469 350.351562 280.792969 348.851562 283.753906 C 347.351562 286.710938 345.367188 290.195312 344.4375 291.496094 C 343.507812 292.792969 342.75 294.175781 342.75 294.5625 C 342.75 294.949219 342.105469 295.851562 341.320312 296.5625 C 340.53125 297.273438 339.179688 299.5 338.316406 301.511719 C 337.453125 303.519531 336.429688 305.359375 336.042969 305.597656 C 335.660156 305.835938 334.496094 307.824219 333.457031 310.019531 C 332.417969 312.210938 331.046875 314.441406 330.410156 314.96875 C 329.773438 315.5 329.25 316.285156 329.25 316.714844 C 329.25 317.144531 327.429688 320.5625 325.207031 324.308594 C 322.984375 328.058594 320.210938 332.980469 319.046875 335.25 C 317.882812 337.519531 316.449219 339.867188 315.859375 340.46875 C 315.273438 341.074219 314.320312 342.695312 313.742188 344.078125 C 313.164062 345.457031 311.164062 348.773438 309.296875 351.445312 C 307.433594 354.117188 305.542969 357.386719 305.097656 358.714844 C 304.65625 360.039062 303.691406 361.800781 302.957031 362.625 C 302.226562 363.449219 300.089844 367.09375 298.214844 370.722656 C 296.339844 374.351562 294.117188 378.285156 293.277344 379.460938 C 292.4375 380.640625 291.75 381.800781 291.75 382.039062 C 291.75 382.277344 290.515625 384.402344 289.003906 386.761719 C 287.496094 389.121094 284.398438 394.613281 282.121094 398.964844 C 279.847656 403.316406 277.378906 407.886719 276.636719 409.125 C 275.894531 410.363281 274.609375 412.617188 273.78125 414.136719 C 272.949219 415.65625 271.9375 417.105469 271.53125 417.355469 C 271.125 417.605469 270.09375 419.390625 269.242188 421.316406 C 268.390625 423.242188 267.238281 425.339844 266.683594 425.972656 C 266.132812 426.605469 265.421875 427.96875 265.105469 429 C 264.792969 430.03125 263.792969 431.886719 262.882812 433.125 C 261.976562 434.363281 260.058594 437.738281 258.617188 440.625 C 257.175781 443.511719 255.640625 446.550781 255.207031 447.375 C 254.769531 448.199219 253.625 450.5625 252.660156 452.625 C 251.691406 454.6875 249.125 459.371094 246.953125 463.035156 C 244.777344 466.695312 243 469.914062 243 470.183594 C 243 470.453125 240.46875 475.503906 237.375 481.402344 C 234.28125 487.300781 231.75 492.394531 231.75 492.722656 C 231.75 493.046875 231.242188 493.738281 230.625 494.25 C 230.007812 494.761719 229.5 495.664062 229.5 496.253906 C 229.5 497.367188 228.652344 499.152344 223.6875 508.5 C 222.042969 511.59375 220.445312 514.96875 220.136719 516 C 219.828125 517.03125 218.992188 518.550781 218.277344 519.375 C 217.5625 520.199219 216.390625 522.394531 215.675781 524.25 C 214.960938 526.105469 213.621094 528.636719 212.703125 529.875 C 211.785156 531.113281 210.585938 533.304688 210.035156 534.75 C 209.488281 536.195312 206.089844 543.449219 202.484375 550.875 C 195.472656 565.320312 193.679688 569.679688 194.441406 570.441406 C 195.117188 571.117188 198.5625 566.992188 199.113281 564.855469 C 199.8125 562.148438 208.039062 550.851562 217.5 539.609375 C 218.945312 537.894531 221.136719 535.175781 222.375 533.566406 C 223.613281 531.957031 225.816406 529.289062 227.269531 527.632812 C 232.222656 522.003906 236.75 516.378906 238.152344 514.125 C 238.921875 512.886719 240.917969 510.335938 242.585938 508.453125 C 244.257812 506.574219 247.144531 503.09375 249 500.722656 C 250.855469 498.347656 253.015625 495.703125 253.796875 494.84375 C 255.558594 492.90625 262.5 479.582031 262.5 478.132812 C 262.5 477.550781 262.9375 476.804688 263.472656 476.476562 C 264.011719 476.144531 266.769531 471.148438 269.605469 465.375 C 272.441406 459.601562 276.054688 452.757812 277.632812 450.175781 C 279.210938 447.589844 280.5 445.019531 280.5 444.464844 C 280.5 443.914062 281.285156 442.300781 282.246094 440.882812 C 283.207031 439.46875 284.921875 436.46875 286.050781 434.21875 C 288.644531 429.054688 293.710938 419.480469 296.941406 413.625 C 298.304688 411.148438 301.292969 405.582031 303.574219 401.25 C 307.671875 393.484375 312.34375 384.984375 315.742188 379.125 C 316.699219 377.476562 318.390625 374.4375 319.5 372.375 C 320.613281 370.3125 323.933594 364.332031 326.886719 359.085938 C 329.835938 353.839844 332.25 349.402344 332.25 349.226562 C 332.25 349.046875 333.601562 346.679688 335.25 343.964844 C 336.898438 341.25 338.25 338.871094 338.25 338.675781 C 338.25 338.484375 339.261719 336.824219 340.5 334.992188 C 341.738281 333.15625 342.75 331.398438 342.75 331.078125 C 342.75 330.609375 345.65625 325.570312 350.292969 318 C 350.675781 317.382812 351.667969 315.695312 352.5 314.25 C 353.332031 312.804688 354.347656 311.117188 354.753906 310.5 C 356.179688 308.320312 362.25 297.703125 362.25 297.386719 C 362.25 297.210938 363.128906 295.785156 364.199219 294.222656 C 365.273438 292.65625 366.457031 290.699219 366.835938 289.875 C 367.214844 289.050781 368.1875 287.363281 369 286.125 C 369.8125 284.886719 370.820312 283.199219 371.234375 282.375 C 371.652344 281.550781 373.5 278.511719 375.339844 275.625 C 377.179688 272.738281 378.699219 270.164062 378.71875 269.902344 C 378.753906 269.371094 382.320312 263.480469 386.46875 257.097656 C 388 254.746094 389.25 252.660156 389.25 252.464844 C 389.25 252.269531 390.875 249.636719 392.867188 246.617188 C 394.855469 243.597656 396.6875 240.617188 396.945312 240 C 397.199219 239.382812 399.621094 235.5 402.332031 231.375 C 405.039062 227.25 407.570312 223.140625 407.960938 222.246094 C 408.351562 221.351562 409.828125 218.988281 411.242188 216.996094 C 412.65625 215.003906 414.410156 212.195312 415.136719 210.75 C 415.863281 209.304688 419.113281 204.121094 422.355469 199.226562 C 425.597656 194.332031 428.25 190.195312 428.25 190.039062 C 428.25 189.878906 430.527344 186.222656 433.3125 181.914062 C 441.292969 169.554688 444.289062 164.855469 445.503906 162.769531 C 447.351562 159.597656 452.488281 151.902344 453.027344 151.5 C 453.300781 151.292969 453.960938 150.28125 454.496094 149.25 C 456.277344 145.796875 460.808594 139.132812 461.785156 138.523438 C 462.316406 138.195312 462.75 137.609375 462.75 137.226562 C 462.75 136.84375 464.015625 134.625 465.5625 132.296875 C 467.109375 129.964844 468.710938 127.507812 469.125 126.828125 C 469.539062 126.148438 470.632812 124.535156 471.5625 123.242188 C 472.492188 121.949219 473.25 120.644531 473.25 120.335938 C 473.25 120.03125 474.429688 118.339844 475.875 116.574219 C 477.320312 114.8125 478.5 113.167969 478.5 112.921875 C 478.5 112.671875 481.285156 108.40625 484.6875 103.441406 C 488.089844 98.476562 491.886719 92.800781 493.125 90.828125 C 494.363281 88.859375 496.238281 86.09375 497.292969 84.683594 C 498.34375 83.277344 500.171875 80.4375 501.351562 78.375 C 502.53125 76.3125 503.699219 74.457031 503.949219 74.25 C 504.75 73.589844 517.269531 54.46875 518.53125 51.976562 C 519.199219 50.65625 520.699219 48.125 521.863281 46.351562 C 523.027344 44.578125 524.925781 40.929688 526.082031 38.25 C 527.238281 35.570312 528.480469 33.054688 528.84375 32.664062 C 529.726562 31.703125 529.675781 29.449219 528.753906 28.878906 C 528.34375 28.625 526.332031 27.980469 524.277344 27.449219 C 520.765625 26.539062 520.453125 26.578125 519.023438 28.101562 C 518.183594 28.992188 517.5 30.121094 517.5 30.609375 C 517.5 31.101562 516.800781 31.5 515.945312 31.5 C 513.476562 31.5 514.5 29.085938 517.695312 27.375 C 519.234375 26.550781 520.496094 25.523438 520.496094 25.089844 C 520.5 23.65625 526.160156 18.75 527.808594 18.75 C 528.699219 18.75 530.273438 18.363281 531.308594 17.894531 C 532.828125 17.203125 533.554688 17.277344 535.09375 18.285156 C 536.605469 19.277344 537 20.152344 537 22.507812 C 537 25.296875 533.652344 35.160156 532.421875 36.011719 C 532.113281 36.222656 530.949219 38.5 529.832031 41.074219 C 528.71875 43.644531 527.550781 45.75 527.238281 45.75 C 526.929688 45.75 526.460938 46.339844 526.199219 47.0625 C 525.6875 48.484375 525.3125 49.117188 520.964844 55.875 C 519.375 58.351562 517.042969 61.976562 515.785156 63.9375 C 514.527344 65.898438 513.214844 67.5 512.875 67.5 C 512.53125 67.5 512.25 67.980469 512.25 68.570312 C 512.25 69.589844 510.550781 72.328125 502.367188 84.503906 C 500.378906 87.464844 498.75 90.195312 498.75 90.578125 C 498.75 90.957031 498.097656 91.855469 497.304688 92.578125 C 496.507812 93.296875 495.300781 95.058594 494.621094 96.488281 C 493.941406 97.917969 492.90625 99.273438 492.316406 99.5 C 491.730469 99.726562 491.25 100.175781 491.25 100.503906 C 491.25 100.828125 489.226562 104.148438 486.75 107.878906 C 484.273438 111.609375 482.246094 114.9375 482.242188 115.269531 C 482.238281 115.601562 481.144531 117.070312 479.804688 118.535156 C 478.46875 119.996094 476.648438 122.539062 475.761719 124.179688 C 474.871094 125.824219 472.171875 129.980469 469.761719 133.417969 C 464.851562 140.414062 463.492188 142.453125 461.222656 146.25 C 456.429688 154.257812 452.34375 160.609375 451.574219 161.25 C 451.074219 161.667969 449.496094 164.339844 447.972656 167.359375 C 447.421875 168.449219 446.46875 169.757812 445.859375 170.261719 C 445.25 170.769531 444.75 171.484375 444.75 171.851562 C 444.75 172.46875 439.648438 180.640625 438.726562 181.5 C 438.507812 181.707031 437.167969 183.730469 435.75 186 C 434.332031 188.269531 432.96875 190.292969 432.71875 190.5 C 432.46875 190.707031 432.023438 191.382812 431.726562 192 C 430.953125 193.625 429.742188 195.578125 426.5625 200.328125 C 425.015625 202.640625 423.75 204.753906 423.75 205.03125 C 423.75 205.65625 419.957031 211.527344 418.6875 212.867188 C 418.171875 213.410156 417.75 214.339844 417.75 214.929688 C 417.75 215.519531 417.492188 216 417.175781 216 C 416.859375 216 415.449219 217.941406 414.042969 220.3125 C 412.636719 222.683594 411.253906 224.792969 410.96875 225 C 410.683594 225.207031 409.722656 226.726562 408.828125 228.375 C 407.9375 230.023438 405.699219 233.738281 403.855469 236.625 C 402.011719 239.511719 400.296875 242.464844 400.039062 243.1875 C 399.785156 243.910156 399.28125 244.5 398.921875 244.5 C 398.5625 244.5 397.8125 245.597656 397.25 246.9375 C 396.691406 248.277344 394.488281 251.96875 392.359375 255.144531 C 390.226562 258.316406 387.558594 262.652344 386.429688 264.777344 C 385.300781 266.90625 383.917969 269.492188 383.359375 270.527344 C 382.800781 271.5625 381.703125 273.046875 380.921875 273.828125 C 380.140625 274.609375 379.5 275.613281 379.5 276.058594 C 379.5 276.507812 378.359375 278.617188 376.96875 280.746094 C 375.578125 282.878906 373.972656 285.546875 373.40625 286.671875 C 372.839844 287.796875 370.152344 292.519531 367.4375 297.171875 C 364.71875 301.820312 362.273438 306.132812 362.003906 306.75 C 361.734375 307.367188 359.609375 310.914062 357.285156 314.625 C 352.097656 322.90625 348.75 328.652344 344.835938 336 C 343.191406 339.09375 341.085938 342.636719 340.160156 343.875 C 339.234375 345.113281 337.726562 347.644531 336.816406 349.5 C 334.503906 354.199219 331.910156 358.910156 328.96875 363.75 C 327.589844 366.019531 325.199219 370.492188 323.660156 373.6875 C 322.121094 376.882812 320.574219 379.675781 320.226562 379.890625 C 319.878906 380.105469 319.109375 381.203125 318.515625 382.328125 C 312.847656 393.101562 310.15625 398.144531 306.855469 404.175781 C 304.734375 408.050781 303 411.347656 303 411.5 C 303 411.652344 301.355469 414.722656 299.34375 418.324219 C 297.335938 421.925781 293.910156 428.25 291.734375 432.375 C 289.5625 436.5 286.140625 442.914062 284.132812 446.625 C 282.125 450.335938 278.445312 457.425781 275.957031 462.375 C 273.46875 467.324219 271.039062 471.949219 270.554688 472.652344 C 270.074219 473.355469 269.9375 474.1875 270.253906 474.503906 C 270.867188 475.117188 273.746094 472.234375 278.613281 466.125 C 283.285156 460.265625 324.976562 418.890625 333.75 411.40625 C 338.082031 407.710938 343.707031 402.734375 346.246094 400.34375 C 348.789062 397.957031 351.167969 396 351.527344 396 C 351.890625 396 353.363281 394.902344 354.800781 393.5625 C 356.238281 392.222656 358.757812 390.128906 360.394531 388.914062 C 362.035156 387.699219 363.542969 386.464844 363.75 386.175781 C 363.957031 385.882812 365.691406 384.515625 367.609375 383.136719 C 369.527344 381.753906 372.972656 379.191406 375.265625 377.4375 C 377.558594 375.683594 379.617188 374.25 379.835938 374.25 C 380.058594 374.25 381.75 373.09375 383.601562 371.683594 C 386.578125 369.410156 388.703125 368.195312 397.875 363.539062 C 401.058594 361.917969 406.894531 360.523438 411.957031 360.167969 C 416.148438 359.875 416.386719 359.960938 419.160156 362.746094 C 421.648438 365.242188 422.089844 366.222656 422.507812 370.125 C 423.078125 375.464844 421.570312 385.574219 419.316406 391.507812 C 418.453125 393.773438 417.75 396.316406 417.75 397.164062 C 417.75 398.007812 417.453125 399.019531 417.089844 399.414062 C 416.726562 399.804688 416.027344 401.476562 415.53125 403.125 C 414.328125 407.140625 410.882812 415.699219 410.113281 416.585938 C 409.777344 416.980469 409.5 417.757812 409.5 418.320312 C 409.5 418.882812 408.34375 421.769531 406.929688 424.734375 C 402.402344 434.230469 394.5 451.605469 394.5 452.070312 C 394.5 452.578125 384.273438 473.761719 383.191406 475.5 C 382.804688 476.117188 382.117188 477.46875 381.664062 478.5 C 381.210938 479.53125 380.558594 480.882812 380.21875 481.5 C 379.484375 482.824219 376.242188 489.613281 374.304688 493.875 C 372.109375 498.703125 367.347656 508.027344 366.449219 509.25 C 365.996094 509.867188 364.800781 512.0625 363.796875 514.125 C 362.789062 516.1875 361.566406 518.382812 361.078125 519 C 360.589844 519.617188 359.769531 521.425781 359.257812 523.019531 C 358.75 524.609375 357.019531 528.1875 355.414062 530.96875 C 353.8125 533.75 352.5 536.363281 352.5 536.773438 C 352.5 537.183594 351.824219 538.296875 351 539.25 C 350.175781 540.203125 349.476562 541.519531 349.445312 542.175781 C 349.414062 542.835938 348.757812 544.386719 347.988281 545.625 C 347.214844 546.863281 345.699219 549.730469 344.617188 552 C 343.535156 554.269531 342.1875 556.96875 341.621094 558 C 339.390625 562.074219 334.433594 571.550781 330.222656 579.804688 C 327.785156 584.578125 325.089844 589.472656 324.230469 590.679688 C 323.371094 591.886719 321.257812 595.574219 319.539062 598.875 C 317.816406 602.175781 314.707031 608.082031 312.621094 612 C 310.539062 615.917969 308.15625 620.476562 307.332031 622.125 C 306.503906 623.773438 305.402344 625.632812 304.886719 626.25 C 304.367188 626.867188 302.039062 631.085938 299.714844 635.625 C 297.390625 640.164062 295.179688 644.253906 294.800781 644.71875 C 294.425781 645.183594 293.035156 647.699219 291.71875 650.316406 C 290.398438 652.929688 288.441406 656.433594 287.371094 658.097656 C 286.304688 659.761719 284.671875 662.726562 283.75 664.6875 C 282.824219 666.648438 281.714844 668.25 281.285156 668.25 C 280.851562 668.25 280.5 668.589844 280.5 669.003906 C 280.5 669.859375 278.617188 673.742188 273.21875 684 C 265.910156 697.890625 262.996094 703.160156 260.988281 706.125 C 259.867188 707.773438 258.015625 710.980469 256.871094 713.25 C 255.726562 715.519531 252.355469 721.59375 249.382812 726.75 C 246.40625 731.90625 243.46875 737.136719 242.851562 738.375 C 242.234375 739.613281 240.792969 742.3125 239.648438 744.375 C 237.40625 748.410156 237.355469 748.507812 232.839844 756.375 C 231.183594 759.261719 229.273438 762.636719 228.597656 763.875 C 227.921875 765.113281 225.570312 769.289062 223.371094 773.15625 C 221.175781 777.019531 218.09375 782.589844 216.527344 785.53125 C 214.964844 788.46875 212.882812 792.054688 211.90625 793.5 C 210.929688 794.945312 208.308594 799.699219 206.085938 804.070312 C 203.863281 808.441406 201.300781 812.957031 200.394531 814.109375 C 199.492188 815.261719 198.75 816.445312 198.75 816.742188 C 198.75 817.042969 197.09375 820.164062 195.066406 823.6875 C 193.039062 827.207031 189.125 834.429688 186.367188 839.734375 C 183.613281 845.035156 181.027344 849.777344 180.625 850.269531 C 180.21875 850.757812 178.726562 853.433594 177.304688 856.210938 C 175.882812 858.988281 174.4375 861.621094 174.097656 862.066406 C 173.753906 862.511719 171.523438 866.585938 169.136719 871.125 C 166.753906 875.664062 164.386719 879.882812 163.878906 880.5 C 163.375 881.117188 161.835938 883.988281 160.460938 886.875 C 159.085938 889.761719 157.339844 893.039062 156.578125 894.15625 C 155.816406 895.273438 153.511719 899.492188 151.457031 903.53125 C 149.402344 907.570312 147.425781 911.382812 147.066406 912 C 146.707031 912.617188 145.789062 914.453125 145.019531 916.078125 C 144.253906 917.703125 142.414062 921.078125 140.9375 923.578125 C 139.457031 926.078125 136.792969 931.332031 135.015625 935.25 C 133.238281 939.167969 131.527344 942.710938 131.214844 943.125 C 130.902344 943.539062 127.328125 950.289062 123.273438 958.125 C 119.222656 965.960938 114.378906 975.300781 112.515625 978.878906 C 105.664062 992.015625 94.140625 1014.582031 90.550781 1021.875 C 88.523438 1026 86.433594 1029.882812 85.910156 1030.5 C 85.382812 1031.117188 84.328125 1033.3125 83.558594 1035.375 C 82.792969 1037.4375 80.886719 1041.488281 79.328125 1044.375 C 73.75 1054.699219 66.710938 1069.578125 67.101562 1070.214844 C 68.035156 1071.722656 70.351562 1069.792969 73.644531 1064.757812 C 78.320312 1057.613281 83.074219 1050.566406 83.890625 1049.578125 C 84.25 1049.140625 84.984375 1047.957031 85.519531 1046.953125 C 86.054688 1045.949219 87.402344 1043.945312 88.511719 1042.5 C 89.621094 1041.054688 93.15625 1036.332031 96.367188 1032 C 99.578125 1027.667969 103.175781 1022.945312 104.363281 1021.5 C 109.019531 1015.847656 112.363281 1011.226562 114.179688 1007.941406 C 117.804688 1001.378906 118.128906 1000.871094 119.09375 1000.257812 C 120.140625 999.589844 126.023438 990.976562 132.941406 979.984375 C 135.3125 976.210938 137.597656 972.617188 138.015625 972 C 138.4375 971.382812 139.699219 969.410156 140.828125 967.621094 C 141.953125 965.832031 143.382812 963.761719 144 963.019531 C 144.617188 962.277344 145.96875 960.261719 147 958.546875 C 148.03125 956.828125 149.90625 954.007812 151.164062 952.273438 C 152.421875 950.542969 154.363281 947.546875 155.476562 945.617188 C 156.589844 943.683594 157.929688 941.660156 158.453125 941.117188 C 158.976562 940.570312 161.695312 936.75 164.492188 932.625 C 167.289062 928.5 171.015625 923.101562 172.777344 920.625 C 174.539062 918.148438 177.738281 913.59375 179.890625 910.5 C 187.386719 899.71875 189.089844 897.359375 190.914062 895.234375 C 191.921875 894.058594 192.75 892.828125 192.75 892.503906 C 192.75 891.863281 197.679688 884.464844 205.742188 873 C 210.980469 865.550781 219.542969 853.082031 222.75 848.230469 C 224.503906 845.578125 225.816406 843.796875 231.128906 836.855469 C 232.296875 835.332031 233.25 833.796875 233.25 833.445312 C 233.25 833.089844 234.863281 830.792969 236.832031 828.335938 C 238.800781 825.882812 241.546875 822.019531 242.933594 819.75 C 244.320312 817.480469 247.574219 812.757812 250.164062 809.25 C 256.171875 801.117188 259.742188 796.136719 262.214844 792.433594 C 263.296875 790.816406 264.492188 789.128906 264.867188 788.683594 C 266.085938 787.253906 272.515625 778.363281 276.273438 772.914062 C 278.28125 770.003906 281.175781 765.9375 282.707031 763.875 C 292.332031 750.894531 294.691406 747.625 298.625 741.828125 C 301.03125 738.28125 303.640625 734.53125 304.417969 733.5 C 305.195312 732.46875 309.148438 727.070312 313.203125 721.5 C 317.261719 715.929688 320.757812 711.207031 320.980469 711 C 321.777344 710.257812 328.164062 701.773438 330 699.015625 C 332.171875 695.753906 336.296875 690.121094 337.675781 688.527344 C 338.195312 687.921875 339.597656 685.898438 340.78125 684.027344 C 341.96875 682.15625 344.183594 679.105469 345.699219 677.25 C 347.21875 675.394531 350.269531 671.34375 352.480469 668.25 C 354.691406 665.15625 356.78125 662.511719 357.125 662.375 C 357.46875 662.238281 357.75 661.820312 357.75 661.445312 C 357.75 661.070312 358.945312 659.15625 360.410156 657.195312 C 361.871094 655.230469 364.65625 651.480469 366.597656 648.855469 C 368.539062 646.234375 370.882812 643.324219 371.8125 642.394531 C 372.742188 641.464844 373.5 640.371094 373.5 639.96875 C 373.5 639.5625 374.175781 638.621094 375 637.875 C 375.824219 637.128906 376.5 636.101562 376.5 635.589844 C 376.5 635.078125 377.007812 634.464844 377.625 634.230469 C 379.039062 633.6875 379.085938 634.808594 377.703125 636.1875 C 377.128906 636.765625 375.933594 638.828125 375.042969 640.78125 C 374.15625 642.730469 372.9375 644.511719 372.339844 644.742188 C 371.738281 644.972656 371.25 645.453125 371.25 645.808594 C 371.25 646.167969 369.070312 649.589844 366.40625 653.417969 C 360.546875 661.832031 347.59375 680.707031 345 684.613281 C 343.96875 686.164062 341.921875 688.9375 340.449219 690.777344 C 338.976562 692.621094 336.664062 695.898438 335.308594 698.0625 C 333.953125 700.226562 332.578125 702 332.257812 702 C 331.933594 702 331.105469 703.097656 330.417969 704.4375 C 328.847656 707.492188 325.960938 711.542969 323.578125 714.042969 C 322.574219 715.09375 321.746094 716.277344 321.738281 716.667969 C 321.730469 717.054688 320.804688 718.460938 319.675781 719.792969 C 316.554688 723.46875 314.71875 726.132812 313.71875 728.4375 C 313.21875 729.582031 312.292969 730.722656 311.65625 730.964844 C 311.019531 731.210938 310.5 731.75 310.5 732.167969 C 310.5 732.582031 308.878906 734.996094 306.894531 737.523438 C 304.914062 740.054688 303.0625 742.632812 302.78125 743.25 C 302.503906 743.867188 300.761719 746.398438 298.914062 748.875 C 297.066406 751.351562 293.960938 755.738281 292.011719 758.625 C 290.066406 761.511719 287.605469 764.917969 286.546875 766.195312 C 285.492188 767.46875 284.117188 769.28125 283.5 770.21875 C 282.882812 771.15625 281.832031 772.644531 281.167969 773.523438 C 280.503906 774.40625 279.359375 776.304688 278.621094 777.75 C 277.878906 779.195312 276.652344 780.816406 275.886719 781.355469 C 275.125 781.894531 274.5 782.757812 274.5 783.269531 C 274.5 783.785156 273.320312 785.496094 271.875 787.074219 C 270.429688 788.648438 269.25 790.339844 269.25 790.828125 C 269.25 791.320312 268.238281 792.6875 267 793.875 C 265.761719 795.0625 264.75 796.34375 264.75 796.722656 C 264.75 797.105469 263.484375 798.984375 261.9375 800.898438 C 259.039062 804.488281 258.339844 805.515625 255.75 810 C 254.914062 811.445312 252.882812 814.480469 251.234375 816.75 C 249.582031 819.019531 246.84375 822.898438 245.148438 825.375 C 243.449219 827.851562 241.464844 830.550781 240.738281 831.375 C 240.011719 832.199219 238.699219 834.308594 237.820312 836.0625 C 236.941406 837.816406 235.921875 839.25 235.558594 839.25 C 235.195312 839.25 234.199219 840.347656 233.339844 841.6875 C 232.484375 843.027344 231.355469 844.800781 230.828125 845.625 C 230.304688 846.449219 229.664062 847.292969 229.410156 847.5 C 229.152344 847.707031 227.363281 850.320312 225.433594 853.3125 C 223.503906 856.304688 221.632812 858.75 221.273438 858.75 C 220.910156 858.75 220.253906 859.847656 219.808594 861.1875 C 219.082031 863.382812 217.457031 865.773438 214.257812 869.359375 C 213.648438 870.042969 212.207031 872.234375 211.054688 874.234375 C 209.902344 876.238281 207.925781 879.226562 206.664062 880.875 C 205.40625 882.523438 203.949219 884.550781 203.433594 885.375 C 198.4375 893.328125 196.566406 896.09375 194.691406 898.289062 C 193.492188 899.695312 191.804688 902.160156 190.941406 903.761719 C 190.082031 905.367188 188.605469 907.625 187.664062 908.777344 C 184.460938 912.699219 181.039062 917.613281 178.105469 922.5 C 176.496094 925.179688 174.601562 927.882812 173.894531 928.5 C 173.1875 929.117188 171.988281 930.820312 171.230469 932.28125 C 170.476562 933.746094 168.59375 936.660156 167.050781 938.757812 C 165.511719 940.859375 164.25 942.808594 164.25 943.089844 C 164.25 943.375 162.898438 945.207031 161.25 947.164062 C 159.601562 949.121094 158.25 950.941406 158.25 951.207031 C 158.25 951.472656 155.273438 956.175781 151.632812 961.660156 C 141.542969 976.851562 136.769531 984.210938 135.847656 986.003906 C 135.386719 986.898438 134.566406 988.082031 134.023438 988.628906 C 133.480469 989.175781 130.609375 993.167969 127.640625 997.5 C 118.945312 1010.195312 113.867188 1017.347656 113.269531 1017.75 C 112.960938 1017.957031 112.109375 1019.304688 111.375 1020.75 C 110.640625 1022.195312 109.8125 1023.542969 109.535156 1023.75 C 109.253906 1023.957031 107.882812 1025.8125 106.484375 1027.875 C 105.085938 1029.9375 103.003906 1032.636719 101.851562 1033.875 C 100.699219 1035.113281 99.753906 1036.546875 99.753906 1037.0625 C 99.75 1037.578125 99.40625 1038 98.984375 1038 C 98.5625 1038 97.804688 1038.929688 97.300781 1040.0625 C 96.796875 1041.195312 96.132812 1042.460938 95.824219 1042.875 C 95.515625 1043.289062 93.90625 1045.394531 92.246094 1047.554688 C 90.585938 1049.714844 88.644531 1052.453125 87.925781 1053.636719 C 84.613281 1059.121094 75.421875 1071.578125 73.453125 1073.25 C 73.019531 1073.621094 66.226562 1082.964844 61.917969 1089.113281 C 59.421875 1092.679688 58.59375 1092.023438 60.335938 1087.851562 C 61.746094 1084.476562 61.78125 1084.101562 60.554688 1085.382812 C 58.664062 1087.359375 56.980469 1090.511719 56.828125 1092.359375 C 56.742188 1093.398438 56.441406 1094.25 56.15625 1094.25 C 55.871094 1094.25 55.808594 1094.890625 56.011719 1095.671875 C 56.332031 1096.898438 55.210938 1099.34375 53.054688 1102.125 C 52.734375 1102.539062 51.707031 1104.054688 50.773438 1105.496094 C 49.039062 1108.167969 48.027344 1108.632812 45.375 1107.964844 Z M 531 26.25 C 531 25.835938 530.664062 25.5 530.25 25.5 C 529.835938 25.5 529.5 25.835938 529.5 26.25 C 529.5 26.664062 529.835938 27 530.25 27 C 530.664062 27 531 26.664062 531 26.25 Z M 715.875 1065.777344 C 714.125 1065.355469 713.898438 1065.113281 714.859375 1064.691406 C 716.699219 1063.882812 721.714844 1064.488281 722.066406 1065.5625 C 722.40625 1066.597656 719.660156 1066.695312 715.875 1065.777344 Z M 20.0625 997.207031 C 18.65625 996.136719 18.273438 992.632812 19.484375 991.882812 C 20.777344 991.085938 23.054688 992.886719 23.464844 995.039062 C 24.023438 997.960938 22.410156 998.988281 20.0625 997.207031 Z M 28.5 997.476562 C 28.5 997.078125 29.007812 996.75 29.625 996.75 C 30.242188 996.75 30.75 996.882812 30.75 997.042969 C 30.75 997.207031 30.242188 997.535156 29.625 997.769531 C 29.007812 998.007812 28.5 997.875 28.5 997.476562 Z M 610.679688 957.246094 C 608.523438 956.386719 608.164062 954.105469 609.667969 950.804688 C 610.472656 949.039062 612.863281 940.515625 614.984375 931.859375 C 617.101562 923.207031 619.855469 912.242188 621.105469 907.5 C 622.351562 902.757812 623.652344 897.695312 623.992188 896.25 C 624.546875 893.902344 627.160156 884.351562 632.667969 864.527344 C 633.675781 860.902344 634.5 857.4375 634.5 856.832031 C 634.5 856.226562 634.796875 855.144531 635.160156 854.425781 C 635.523438 853.710938 636.335938 851.101562 636.96875 848.625 C 637.601562 846.148438 639.023438 841.085938 640.125 837.375 C 641.230469 833.664062 642.800781 827.925781 643.621094 824.625 C 645.390625 817.480469 654.3125 787.242188 656.675781 780.375 C 657.246094 778.726562 658.570312 774.335938 659.621094 770.625 C 660.671875 766.914062 661.832031 763.199219 662.203125 762.375 C 662.570312 761.550781 663.941406 757.332031 665.242188 753 C 666.546875 748.667969 667.875 744.449219 668.199219 743.625 C 668.523438 742.800781 673.714844 727.445312 679.738281 709.5 C 691.675781 673.929688 693.484375 668.632812 694.4375 666.375 C 696.203125 662.191406 697.503906 658.613281 698.113281 656.25 C 698.484375 654.804688 699.648438 651.429688 700.699219 648.75 C 701.746094 646.070312 707.015625 632.0625 712.402344 617.625 C 723.871094 586.886719 728.214844 575.53125 730.472656 570.375 C 731.378906 568.3125 733.105469 563.757812 734.3125 560.25 C 735.519531 556.742188 736.992188 552.863281 737.582031 551.625 C 738.839844 548.992188 743.355469 537.367188 745.011719 532.5 C 745.644531 530.644531 746.855469 527.789062 747.703125 526.152344 C 748.554688 524.519531 749.25 522.730469 749.25 522.179688 C 749.25 521.628906 749.945312 519.757812 750.792969 518.027344 C 751.640625 516.292969 753.378906 512.175781 754.660156 508.875 C 758.699219 498.453125 765.898438 481.226562 767.351562 478.511719 C 768.121094 477.074219 768.75 475.523438 768.75 475.0625 C 768.75 474.605469 769.214844 473.25 769.777344 472.050781 C 770.34375 470.855469 773.402344 463.460938 776.574219 455.625 C 779.742188 447.789062 783.339844 439.351562 784.566406 436.875 C 785.789062 434.398438 786.78125 432.082031 786.769531 431.722656 C 786.761719 431.367188 788.132812 427.992188 789.820312 424.222656 C 792.582031 418.0625 793.75 415.398438 795.796875 410.625 C 796.148438 409.800781 797.632812 406.484375 799.09375 403.257812 C 800.554688 400.03125 801.75 397.226562 801.75 397.023438 C 801.75 396.675781 802.433594 395.140625 807.351562 384.46875 C 808.46875 382.046875 809.816406 378.839844 810.347656 377.34375 C 810.882812 375.847656 813.238281 370.40625 815.585938 365.25 C 822.40625 350.277344 822.503906 350.058594 823.945312 346.125 C 824.699219 344.0625 825.75 341.53125 826.277344 340.5 C 826.808594 339.46875 827.242188 338.222656 827.246094 337.726562 C 827.246094 337.234375 828.09375 335.242188 829.125 333.304688 C 830.15625 331.363281 831 329.179688 831 328.453125 C 831 326.074219 835.425781 315.582031 840.78125 305.25 C 848.839844 289.71875 855.058594 276.613281 855.558594 274.125 C 855.804688 272.886719 857.046875 270.355469 858.320312 268.5 C 861.332031 264.097656 868.957031 248.582031 875.640625 233.25 C 876.8125 230.570312 878.214844 227.84375 878.757812 227.191406 C 879.304688 226.539062 879.75 225.65625 879.75 225.222656 C 879.75 224.316406 881.929688 219.078125 884.988281 212.625 C 888.453125 205.316406 891.75 198.019531 891.75 197.660156 C 891.75 197.476562 893.285156 194.015625 895.160156 189.972656 C 897.035156 185.933594 899.945312 179.585938 901.632812 175.875 C 903.316406 172.164062 907.488281 163.386719 910.902344 156.375 C 914.316406 149.363281 917.71875 141.601562 918.457031 139.125 C 919.199219 136.648438 920.164062 133.949219 920.601562 133.125 C 921.878906 130.726562 924.28125 127.1875 925.191406 126.375 C 926.839844 124.894531 934.476562 101.164062 935.625 93.941406 C 935.902344 92.191406 936.4375 90.566406 936.816406 90.335938 C 937.753906 89.753906 937.679688 87.199219 936.703125 86.597656 C 936.265625 86.324219 935.308594 86.640625 934.582031 87.300781 C 933.851562 87.960938 933.011719 88.5 932.714844 88.5 C 931.308594 88.5 921.152344 97.585938 912 107.035156 C 894.214844 125.398438 889.890625 129.980469 889.125 131.292969 C 888.710938 131.996094 887.023438 134.085938 885.375 135.933594 C 883.726562 137.78125 881.363281 140.53125 880.125 142.042969 C 878.886719 143.554688 876.402344 146.382812 874.605469 148.332031 C 871.230469 151.988281 861.023438 164.3125 858.375 167.925781 C 857.550781 169.054688 854.328125 172.988281 851.210938 176.675781 C 848.097656 180.359375 844.738281 184.554688 843.746094 186 C 842.753906 187.445312 840.242188 190.820312 838.160156 193.5 C 836.078125 196.179688 834.039062 198.917969 833.625 199.582031 C 831.875 202.398438 829.746094 205.335938 827.160156 208.5 C 825.644531 210.355469 822.355469 214.914062 819.847656 218.625 C 811.0625 231.644531 808.59375 235.136719 807.136719 236.625 C 806.328125 237.449219 805.074219 239.304688 804.347656 240.75 C 803.621094 242.195312 801.589844 245.0625 799.832031 247.128906 C 798.070312 249.191406 795.335938 252.9375 793.753906 255.445312 C 790.789062 260.144531 790.039062 261.289062 781.597656 273.980469 C 778.863281 278.09375 775.949219 282.582031 775.125 283.957031 C 774.300781 285.328125 773.214844 287.054688 772.714844 287.789062 C 767.816406 294.984375 763.015625 302.472656 761.523438 305.246094 C 760.527344 307.105469 759.128906 309.507812 758.417969 310.589844 C 757.707031 311.667969 754.59375 316.730469 751.503906 321.839844 C 748.414062 326.945312 745.628906 331.238281 745.316406 331.375 C 745.003906 331.511719 744.75 332.042969 744.75 332.550781 C 744.75 333.0625 742.714844 336.597656 740.230469 340.410156 C 737.742188 344.222656 734.144531 350.273438 732.238281 353.859375 C 730.328125 357.441406 727.988281 361.429688 727.039062 362.722656 C 726.089844 364.011719 723.738281 368.0625 721.820312 371.722656 C 719.898438 375.382812 718.050781 378.71875 717.714844 379.140625 C 717.378906 379.558594 715.605469 382.765625 713.777344 386.265625 C 711.945312 389.761719 709.164062 394.988281 707.59375 397.875 C 706.027344 400.761719 704.058594 404.476562 703.226562 406.125 C 702.390625 407.773438 701.519531 409.292969 701.292969 409.5 C 700.597656 410.125 681.75 448.308594 681.75 449.089844 C 681.75 449.488281 681.242188 450.238281 680.625 450.75 C 680.007812 451.261719 679.5 452.164062 679.5 452.746094 C 679.5 453.789062 674.242188 464.992188 672.933594 466.738281 C 672.570312 467.226562 671.3125 469.820312 670.140625 472.5 C 665.984375 482.019531 663.53125 487.148438 662.246094 489 C 661.53125 490.03125 660.691406 491.71875 660.378906 492.75 C 660.066406 493.78125 657.183594 500.53125 653.976562 507.75 C 650.765625 514.96875 645.382812 527.289062 642.007812 535.125 C 638.632812 542.960938 635.433594 550.386719 634.894531 551.625 C 634.355469 552.863281 633.671875 554.71875 633.371094 555.75 C 632.730469 557.957031 625.902344 575.363281 624.398438 578.625 C 623.828125 579.863281 622.460938 583.574219 621.355469 586.875 C 620.253906 590.175781 619.101562 593.210938 618.800781 593.625 C 618.496094 594.039062 617.480469 596.90625 616.539062 600 C 615.601562 603.09375 614.382812 606.636719 613.832031 607.875 C 612.507812 610.84375 610.007812 617.878906 603.425781 637.125 C 602.722656 639.1875 601.320312 644.027344 600.308594 647.878906 C 599.296875 651.730469 598.011719 655.78125 597.449219 656.878906 C 596.890625 657.976562 596.203125 660.054688 595.925781 661.5 C 595.648438 662.945312 594.453125 666.992188 593.273438 670.5 C 589.949219 680.371094 588.75 684.523438 588.75 686.175781 C 588.75 687.011719 588.105469 689.476562 587.316406 691.660156 C 586.53125 693.839844 585.652344 697.308594 585.371094 699.363281 C 585.085938 701.417969 584.074219 706.3125 583.121094 710.238281 C 580.472656 721.128906 577.589844 735.664062 575.976562 746.25 C 575.632812 748.519531 574.820312 753.242188 574.171875 756.75 C 571.089844 773.441406 570.714844 774.515625 568.277344 773.582031 C 567.605469 773.324219 566.867188 772.515625 566.636719 771.785156 C 566.179688 770.347656 568.058594 756.570312 568.894531 755.214844 C 569.839844 753.691406 571.371094 745.972656 572.570312 736.734375 C 573.222656 731.707031 574.464844 724.113281 575.335938 719.859375 C 578.566406 704.070312 580.984375 686.917969 582.699219 667.632812 C 583.078125 663.371094 583.621094 658.511719 583.90625 656.824219 C 584.1875 655.140625 584.851562 649.175781 585.378906 643.570312 C 585.90625 637.960938 586.707031 632.023438 587.15625 630.375 C 588.277344 626.253906 589.007812 588.246094 587.976562 587.609375 C 586.417969 586.648438 579.15625 594.695312 574.898438 602.109375 C 574.496094 602.804688 573.339844 604.726562 572.324219 606.375 C 569.476562 611.007812 557.835938 634.367188 555.875 639.390625 C 554.910156 641.859375 553.476562 645.101562 552.6875 646.601562 C 551.894531 648.101562 551.25 649.789062 551.25 650.351562 C 551.25 650.914062 550.289062 653.402344 549.117188 655.882812 C 547.945312 658.359375 546.738281 661.691406 546.441406 663.285156 C 546.140625 664.878906 545.601562 666.734375 545.242188 667.40625 C 543.714844 670.238281 537.792969 692.070312 535.855469 702 C 534.296875 709.980469 530.320312 727.597656 529.167969 731.625 C 528.578125 733.6875 527.859375 737.0625 527.566406 739.125 C 527.273438 741.1875 526.050781 747.601562 524.851562 753.375 C 523.652344 759.148438 521.714844 769.273438 520.546875 775.875 C 517.242188 794.574219 516.164062 797.445312 513.085938 795.796875 C 512.214844 795.328125 511.5 794.304688 511.5 793.523438 C 511.5 790.871094 514.355469 775.167969 516.308594 767.074219 C 517.375 762.644531 518.25 758.339844 518.25 757.503906 C 518.25 754.601562 525.492188 720.148438 528.023438 711 C 528.425781 709.554688 529.449219 705 530.304688 700.875 C 531.164062 696.75 532.871094 688.648438 534.109375 682.875 C 535.34375 677.101562 536.796875 669.675781 537.335938 666.375 C 538.554688 658.929688 541.046875 646.039062 542.988281 637.125 C 543.800781 633.414062 544.671875 629.023438 544.929688 627.375 C 545.34375 624.691406 546.191406 620.9375 550.253906 603.769531 C 551.742188 597.492188 555.496094 586.453125 556.484375 585.464844 C 556.90625 585.042969 557.25 583.695312 557.25 582.464844 C 557.25 581.238281 557.640625 579.027344 558.113281 577.554688 C 559.773438 572.414062 562.019531 567.019531 562.363281 567.363281 C 562.550781 567.550781 562.808594 569.113281 562.929688 570.828125 C 563.152344 573.957031 562.117188 578.761719 558.5 591.375 C 555.1875 602.929688 552.285156 615.304688 549.707031 628.875 C 549.234375 631.351562 548.390625 635.398438 547.832031 637.875 C 546.546875 643.550781 545.675781 650.25 546.222656 650.25 C 546.453125 650.25 547.65625 647.632812 548.894531 644.4375 C 553.167969 633.410156 566.390625 605.359375 567.71875 604.503906 C 568.042969 604.296875 569.226562 602.417969 570.347656 600.335938 C 572.941406 595.507812 579.929688 585.996094 582.847656 583.3125 C 586.550781 579.910156 591.027344 580.839844 592.9375 585.410156 C 594.199219 588.429688 594.375 601.898438 593.257812 609.546875 C 591.699219 620.195312 591.097656 623.71875 590.355469 626.625 C 589.933594 628.273438 589.421875 635.363281 589.214844 642.375 C 589.007812 649.386719 588.652344 658.164062 588.421875 661.875 C 588.164062 666.109375 588.257812 668.066406 588.679688 667.125 C 589.515625 665.25 594.023438 651.40625 594.785156 648.375 C 595.851562 644.121094 600.835938 628.34375 601.5 627.109375 C 601.867188 626.429688 603.410156 621.992188 604.925781 617.25 C 606.441406 612.507812 608.101562 607.613281 608.613281 606.375 C 609.128906 605.136719 610.480469 601.59375 611.625 598.5 C 612.769531 595.40625 614.472656 591.1875 615.414062 589.125 C 616.355469 587.0625 617.660156 583.546875 618.308594 581.308594 C 618.960938 579.074219 619.933594 576.542969 620.46875 575.683594 C 621.003906 574.828125 622.25 571.425781 623.234375 568.125 C 624.222656 564.824219 625.4375 561.617188 625.9375 561 C 626.433594 560.382812 627.359375 558.355469 627.992188 556.5 C 629.773438 551.265625 632.910156 543.140625 633.710938 541.6875 C 634.601562 540.070312 639 530.246094 639 529.875 C 639 529.726562 639.976562 527.472656 641.167969 524.863281 C 642.359375 522.257812 644.410156 517.59375 645.726562 514.5 C 647.039062 511.40625 648.765625 507.445312 649.558594 505.695312 C 650.351562 503.945312 651 502.367188 651 502.183594 C 651 501.484375 663.257812 476.074219 665.679688 471.75 C 666.253906 470.71875 666.734375 469.328125 666.738281 468.664062 C 666.746094 467.996094 667.378906 466.648438 668.148438 465.664062 C 668.914062 464.679688 669.804688 463.03125 670.121094 462 C 670.4375 460.96875 671.328125 459.230469 672.097656 458.132812 C 672.871094 457.039062 673.5 455.792969 673.5 455.363281 C 673.5 454.933594 676.3125 449.082031 679.746094 442.355469 C 693.445312 415.542969 704.761719 393.746094 707.359375 389.179688 C 708.863281 386.539062 710.917969 382.855469 711.925781 381 C 715.859375 373.769531 720.410156 365.554688 721.277344 364.125 C 721.777344 363.300781 723.078125 360.867188 724.164062 358.71875 C 725.253906 356.570312 726.621094 354.417969 727.199219 353.9375 C 727.777344 353.460938 728.25 352.742188 728.25 352.347656 C 728.25 351.953125 729.351562 349.882812 730.695312 347.753906 C 733.675781 343.027344 734.417969 341.816406 736.972656 337.5 C 740.355469 331.785156 747.292969 320.136719 748.875 317.519531 C 751.679688 312.875 768.199219 286.898438 772.417969 280.5 C 774.726562 276.992188 776.957031 273.546875 777.371094 272.839844 C 778.421875 271.042969 794.777344 246.898438 799.867188 239.625 C 802.175781 236.324219 805.222656 231.886719 806.636719 229.761719 C 808.046875 227.632812 810.5625 224.324219 812.226562 222.402344 C 813.890625 220.480469 815.25 218.617188 815.25 218.257812 C 815.25 217.898438 815.679688 217.160156 816.203125 216.617188 C 816.730469 216.070312 818.378906 213.769531 819.875 211.5 C 821.367188 209.230469 824.058594 205.453125 825.855469 203.105469 C 827.65625 200.757812 830.402344 197.042969 831.964844 194.855469 C 835.335938 190.132812 839.183594 185.136719 842.277344 181.464844 C 843.511719 180 845.277344 177.765625 846.199219 176.503906 C 849.46875 172.015625 857.269531 162.316406 860.796875 158.347656 C 862.765625 156.136719 864.511719 153.953125 864.679688 153.503906 C 864.949219 152.773438 872.585938 143.445312 873.6875 142.5 C 873.929688 142.292969 875.726562 140.21875 877.679688 137.886719 C 879.636719 135.558594 882.675781 132.164062 884.429688 130.34375 C 886.1875 128.523438 889.261719 125.03125 891.261719 122.578125 C 901.414062 110.136719 928 84.511719 933.332031 82.03125 C 937.960938 79.875 938.601562 79.851562 940.5 81.75 C 941.664062 82.914062 942 84.25 942 87.714844 C 942 90.171875 941.699219 92.953125 941.335938 93.902344 C 940.96875 94.851562 939.71875 98.664062 938.558594 102.375 C 937.402344 106.085938 936.207031 109.296875 935.914062 109.507812 C 935.617188 109.714844 934.542969 112.078125 933.527344 114.757812 C 932.511719 117.433594 930.457031 121.988281 928.96875 124.875 C 927.476562 127.761719 926.253906 130.535156 926.253906 131.039062 C 926.253906 131.542969 925.636719 133.0625 924.882812 134.414062 C 924.132812 135.769531 922.253906 140.082031 920.710938 144 C 919.164062 147.917969 917.097656 152.8125 916.109375 154.875 C 915.125 156.9375 913.664062 160.144531 912.859375 162 C 909.109375 170.683594 905.566406 178.636719 903.015625 184.125 C 901.480469 187.425781 899.769531 191.390625 899.210938 192.9375 C 898.65625 194.484375 897.929688 195.75 897.597656 195.75 C 897.269531 195.75 897 196.40625 897 197.207031 C 897 198.007812 896.699219 198.847656 896.332031 199.074219 C 895.964844 199.300781 895.441406 200.382812 895.167969 201.476562 C 894.890625 202.574219 893.503906 205.867188 892.082031 208.796875 C 890.664062 211.722656 889.5 214.371094 889.5 214.675781 C 889.5 214.984375 887.175781 220.046875 884.335938 225.929688 C 876.074219 243.046875 873.21875 249.246094 872.664062 251.25 C 872.378906 252.28125 871.511719 254.8125 870.734375 256.875 C 869.957031 258.9375 868.960938 262.042969 868.519531 263.773438 C 868.074219 265.503906 866.757812 267.878906 865.585938 269.046875 C 863.628906 271.003906 859.5 277.871094 859.5 279.167969 C 859.5 279.472656 858.109375 282.679688 856.414062 286.296875 C 853.023438 293.519531 848.902344 302.457031 846.8125 307.125 C 844.652344 311.945312 842.582031 316.484375 839.796875 322.5 C 835.636719 331.480469 834.585938 333.980469 833.957031 336.375 C 833.046875 339.839844 827.152344 353.566406 826.355469 354.074219 C 825.445312 354.65625 823.621094 358.109375 822.324219 361.710938 C 821.761719 363.269531 819.480469 368.5 817.253906 373.335938 C 815.027344 378.167969 810.566406 388.199219 807.339844 395.625 C 804.113281 403.050781 801.027344 409.65625 800.488281 410.308594 C 799.945312 410.960938 799.5 411.894531 799.5 412.382812 C 799.5 412.871094 799.195312 413.855469 798.820312 414.574219 C 797.789062 416.550781 789.75 435.601562 789.75 436.070312 C 789.75 436.292969 788.738281 438.566406 787.5 441.121094 C 786.261719 443.675781 785.25 446.035156 785.25 446.363281 C 785.25 446.925781 781.953125 454.433594 779.566406 459.300781 C 778.980469 460.5 778.5 461.769531 778.5 462.125 C 778.5 462.476562 777.871094 464.195312 777.097656 465.945312 C 771.8125 477.949219 770.25 481.742188 770.25 482.582031 C 770.25 483.109375 769.050781 486.203125 767.582031 489.457031 C 763.769531 497.910156 763.945312 497.507812 759.871094 507.375 C 757.828125 512.324219 755.410156 518.398438 754.492188 520.875 C 753.578125 523.351562 752.207031 526.773438 751.449219 528.480469 C 750.691406 530.1875 749.835938 532.550781 749.550781 533.730469 C 749.265625 534.910156 748.070312 537.804688 746.890625 540.167969 C 745.714844 542.527344 744.75 545.074219 744.75 545.828125 C 744.75 546.582031 744.457031 547.519531 744.101562 547.914062 C 743.742188 548.304688 742.535156 551.324219 741.417969 554.625 C 740.296875 557.925781 738.925781 561.636719 738.367188 562.875 C 736.683594 566.59375 728.230469 588.570312 725.242188 597 C 722.203125 605.558594 718.71875 614.609375 717.664062 616.675781 C 717.300781 617.394531 717 618.503906 717 619.144531 C 717 619.785156 716.359375 621.566406 715.574219 623.105469 C 714.789062 624.640625 713.121094 628.933594 711.863281 632.636719 C 710.605469 636.34375 708.679688 641.738281 707.585938 644.625 C 706.492188 647.511719 704.667969 652.40625 703.535156 655.5 C 702.402344 658.59375 701.113281 661.96875 700.675781 663 C 700.234375 664.03125 697.90625 670.925781 695.5 678.320312 C 693.09375 685.714844 690.757812 692.132812 690.3125 692.582031 C 689.863281 693.027344 689.269531 694.820312 688.992188 696.5625 C 688.714844 698.304688 687.9375 701 687.265625 702.550781 C 685.460938 706.71875 685.046875 707.855469 683.234375 713.625 C 682.328125 716.511719 680.800781 721.070312 679.839844 723.75 C 678.878906 726.429688 677.589844 730.3125 676.972656 732.375 C 676.359375 734.4375 675.503906 737.136719 675.074219 738.375 C 672.648438 745.371094 665.910156 766.621094 662.585938 777.75 C 662.03125 779.605469 660.570312 784.5 659.335938 788.625 C 658.101562 792.75 656.210938 799.164062 655.132812 802.875 C 654.054688 806.585938 652.660156 811.144531 652.03125 813 C 651.402344 814.855469 650.59375 817.726562 650.238281 819.375 C 649.878906 821.023438 649.253906 823.914062 648.84375 825.792969 C 648.433594 827.671875 647.769531 830.035156 647.363281 831.042969 C 646.503906 833.1875 644.242188 840.902344 641.988281 849.375 C 641.113281 852.675781 639.582031 858.242188 638.585938 861.75 C 637.589844 865.257812 636.082031 870.992188 635.234375 874.5 C 634.386719 878.007812 633.40625 881.886719 633.054688 883.125 C 632.703125 884.363281 631.496094 888.917969 630.371094 893.25 C 629.242188 897.582031 627.53125 903.824219 626.558594 907.125 C 624.242188 915.011719 621.757812 925.492188 621.765625 927.375 C 621.765625 928.40625 622.351562 927.851562 623.632812 925.609375 C 624.660156 923.816406 625.5 921.886719 625.5 921.320312 C 625.5 920.492188 629.09375 913.085938 632.210938 907.5 C 632.554688 906.882812 634.753906 902.15625 637.097656 897 C 641.289062 887.78125 643.441406 883.421875 650.8125 869.25 C 656.269531 858.753906 665.238281 842.800781 666.449219 841.441406 C 667.027344 840.789062 667.5 839.96875 667.5 839.621094 C 667.5 839.269531 668.636719 837.273438 670.027344 835.179688 C 671.417969 833.085938 673.945312 829.179688 675.640625 826.5 C 680.230469 819.238281 688.835938 807.113281 696.308594 797.378906 C 697.996094 795.179688 700.324219 792.144531 701.484375 790.628906 C 703.894531 787.484375 719.472656 770.742188 722.152344 768.417969 C 723.132812 767.570312 725.496094 765.394531 727.402344 763.585938 C 738.195312 753.363281 749.664062 749.714844 757.179688 754.117188 C 766.027344 759.300781 769.234375 779.234375 767.195312 816.375 C 766.496094 829.140625 767.113281 884.539062 767.980469 886.820312 C 768.394531 887.910156 769.292969 888.742188 770.042969 888.726562 C 772.304688 888.6875 779.765625 884.082031 784.582031 879.75 C 787.105469 877.480469 790.902344 874.105469 793.019531 872.25 C 795.136719 870.394531 798.207031 867.578125 799.839844 865.992188 C 801.476562 864.40625 803.671875 862.4375 804.722656 861.613281 C 805.769531 860.789062 808.671875 858.207031 811.171875 855.871094 C 813.675781 853.535156 817.386719 850.144531 819.421875 848.335938 C 821.460938 846.527344 825.34375 842.984375 828.050781 840.460938 C 830.761719 837.9375 834.304688 834.722656 835.925781 833.3125 C 837.546875 831.902344 841.070312 828.695312 843.753906 826.1875 C 846.4375 823.679688 850.976562 819.601562 853.839844 817.125 C 856.707031 814.648438 860.585938 811.265625 862.460938 809.601562 C 868.402344 804.34375 874.554688 799.179688 876.863281 797.519531 C 878.089844 796.636719 880.851562 794.273438 882.996094 792.269531 C 885.140625 790.265625 889.082031 786.769531 891.757812 784.5 C 894.429688 782.230469 897.472656 779.53125 898.511719 778.5 C 899.550781 777.46875 902.792969 774.710938 905.714844 772.371094 C 908.636719 770.027344 911.5 767.667969 912.078125 767.121094 C 912.65625 766.574219 914.710938 764.851562 916.648438 763.296875 C 919.933594 760.65625 922.125 758.71875 936.648438 745.609375 C 944.753906 738.296875 944.878906 738.183594 952.503906 731.25 C 962.777344 721.90625 970.398438 714.722656 980.550781 704.8125 C 985.519531 699.964844 989.84375 696 990.164062 696 C 990.488281 696 990.75 696.398438 990.75 696.890625 C 990.75 698.320312 940.511719 747.75 939.058594 747.75 C 938.734375 747.75 936.765625 749.523438 934.679688 751.6875 C 929.054688 757.523438 914.867188 770.535156 910.03125 774.289062 C 905.210938 778.03125 896.789062 785.433594 886.5 794.972656 C 882.992188 798.222656 879.394531 801.5 878.5 802.253906 C 877.601562 803.007812 875.460938 804.804688 873.738281 806.25 C 870.101562 809.296875 868.488281 810.71875 860.503906 817.9375 C 857.269531 820.859375 852.601562 825.027344 850.125 827.199219 C 843.535156 832.984375 839.617188 836.578125 831.664062 844.125 C 827.753906 847.835938 822.242188 852.898438 819.417969 855.375 C 816.59375 857.851562 813.21875 860.886719 811.914062 862.125 C 810.609375 863.363281 808.378906 865.429688 806.957031 866.71875 C 805.539062 868.011719 803.535156 870.121094 802.507812 871.40625 C 801.480469 872.695312 800.269531 873.75 799.820312 873.75 C 798.800781 873.75 789 883.816406 789 884.863281 C 789 886.304688 782.886719 890.460938 777.601562 892.609375 C 768.519531 896.304688 764.1875 895.5625 762.6875 890.050781 C 761.8125 886.84375 762.210938 825.839844 763.234375 806.25 C 763.722656 796.886719 762.875 787.53125 760.347656 774.375 C 758.328125 763.855469 756.785156 760.195312 753.695312 758.597656 C 750.78125 757.089844 745.734375 757.632812 743.054688 759.742188 C 742.066406 760.519531 740.351562 761.382812 739.242188 761.664062 C 738.136719 761.941406 736.980469 762.554688 736.679688 763.027344 C 736.375 763.496094 734.773438 764.882812 733.125 766.101562 C 731.476562 767.320312 728.269531 770.070312 726 772.214844 C 723.730469 774.359375 720.609375 777.28125 719.0625 778.707031 C 717.515625 780.132812 716.25 781.644531 716.25 782.066406 C 716.25 782.484375 715.417969 783.371094 714.402344 784.039062 C 712.765625 785.109375 710.398438 787.785156 702.722656 797.25 C 699.226562 801.558594 684.296875 822.292969 683.257812 824.28125 C 682.726562 825.296875 681.820312 826.632812 681.242188 827.25 C 680.667969 827.867188 679.253906 829.894531 678.105469 831.75 C 676.953125 833.605469 675.363281 836.105469 674.570312 837.300781 C 672.574219 840.3125 670.121094 844.382812 668.429688 847.5 C 667.644531 848.945312 666 851.8125 664.777344 853.875 C 662.796875 857.210938 660.46875 861.6875 653.265625 876 C 652.121094 878.269531 648.9375 884.851562 646.1875 890.625 C 643.4375 896.398438 640.675781 901.96875 640.046875 903 C 639.417969 904.03125 637.414062 908.082031 635.585938 912 C 633.761719 915.917969 631.761719 919.96875 631.148438 921 C 630.53125 922.03125 629.476562 924.046875 628.808594 925.480469 C 628.136719 926.917969 626.839844 928.773438 625.921875 929.605469 C 623.386719 931.914062 621.003906 936.554688 620.976562 939.230469 C 620.949219 941.746094 613.679688 957.148438 612.375 957.449219 C 611.960938 957.546875 611.199219 957.457031 610.679688 957.246094 Z M 400.117188 844.21875 C 397.625 840.417969 399.28125 797.460938 402.753906 775.875 C 404.40625 765.582031 406.195312 753.03125 406.863281 747 C 407.460938 741.652344 410.058594 729.757812 411.78125 724.5 C 412.523438 722.230469 413.707031 718.011719 414.410156 715.125 C 416.324219 707.253906 424.691406 690.503906 431.773438 680.375 C 434.09375 677.054688 435.867188 673.25 437.390625 668.324219 C 438.613281 664.363281 440.769531 657.890625 442.183594 653.941406 C 443.59375 649.988281 444.75 646.445312 444.75 646.066406 C 444.746094 645.132812 451.410156 624.011719 452.300781 622.125 C 452.691406 621.300781 454.496094 616.238281 456.316406 610.875 C 459.585938 601.238281 460.699219 598.34375 463.683594 591.75 C 464.519531 589.894531 466.003906 586.265625 466.972656 583.6875 C 467.941406 581.109375 469.058594 578.410156 469.453125 577.6875 C 469.847656 576.964844 472.011719 572.492188 474.261719 567.75 C 485.777344 543.5 494.839844 526.019531 497.59375 522.75 C 498.117188 522.132812 499.84375 519.09375 501.433594 516 C 503.023438 512.90625 505.421875 508.789062 506.761719 506.855469 C 508.105469 504.917969 509.816406 502.21875 510.570312 500.855469 C 511.320312 499.492188 513.609375 495.878906 515.65625 492.832031 C 517.703125 489.78125 520.027344 486.238281 520.824219 484.957031 C 521.621094 483.675781 524.660156 479.464844 527.574219 475.597656 C 530.488281 471.734375 533.960938 466.996094 535.285156 465.070312 C 536.609375 463.144531 540.375 458.828125 543.65625 455.484375 C 551.546875 447.433594 555.421875 446.488281 558.714844 451.820312 C 560.132812 454.113281 560.167969 454.488281 559.132812 456.46875 C 558.515625 457.65625 558.007812 459.058594 558.003906 459.585938 C 558.003906 460.113281 557.375 462.476562 556.609375 464.835938 C 555.847656 467.195312 554.472656 471.824219 553.558594 475.125 C 551.945312 480.945312 548.472656 492.617188 546.304688 499.5 C 545.722656 501.355469 545.246094 503.628906 545.246094 504.554688 C 545.25 506.628906 541.878906 519.859375 540.363281 523.703125 C 539.75 525.257812 539.25 527.457031 539.25 528.589844 C 539.25 529.71875 538.546875 532.496094 537.683594 534.761719 C 536.824219 537.023438 535.65625 541.160156 535.09375 543.953125 C 534.53125 546.746094 533.832031 549.414062 533.542969 549.882812 C 533.25 550.355469 532.542969 552.792969 531.964844 555.304688 C 528.875 568.792969 527.996094 572.335938 526.550781 577.125 C 525.679688 580.011719 524.304688 584.738281 523.492188 587.625 C 521.9375 593.164062 520.261719 598.898438 518.5625 604.5 C 517.996094 606.355469 517.144531 609.394531 516.660156 611.25 C 516.179688 613.105469 514.671875 618.335938 513.304688 622.875 C 507.414062 642.449219 505.195312 650.25 504.230469 654.75 C 504.011719 655.78125 502.132812 662.195312 500.0625 669 C 497.988281 675.804688 495.855469 682.894531 495.324219 684.75 C 494.789062 686.605469 493.652344 690.058594 492.800781 692.417969 C 491.949219 694.78125 491.25 697.328125 491.25 698.082031 C 491.25 698.835938 490.96875 699.769531 490.621094 700.164062 C 490.273438 700.554688 489.542969 702.898438 488.996094 705.375 C 488.449219 707.851562 487.558594 710.769531 487.019531 711.859375 C 486.484375 712.949219 485.734375 715.144531 485.359375 716.734375 C 484.980469 718.324219 483.773438 722.664062 482.675781 726.375 C 481.460938 730.476562 480.554688 735.628906 480.367188 739.5 C 480.195312 743.007812 479.734375 747.394531 479.339844 749.25 C 478.949219 751.105469 477.9375 756.015625 477.097656 760.160156 C 476.257812 764.304688 475.382812 768.1875 475.160156 768.785156 C 474.933594 769.386719 474.597656 770.886719 474.410156 772.125 C 473.28125 779.59375 470.089844 793.261719 469.128906 794.722656 C 468.507812 795.671875 468 798 468 799.898438 C 468 801.796875 467.65625 803.992188 467.234375 804.777344 C 466.8125 805.566406 466.140625 807.992188 465.738281 810.167969 C 464.644531 816.097656 462.820312 819.703125 460.636719 820.25 C 458.101562 820.886719 456.75 818.894531 456.757812 814.542969 C 456.765625 810.324219 460.878906 785.101562 461.863281 783.234375 C 462.257812 782.488281 462.773438 780.523438 463.007812 778.875 C 463.742188 773.683594 464.355469 770.6875 465.066406 768.75 C 465.449219 767.71875 466.5625 763.332031 467.546875 759 C 469.550781 750.164062 473.59375 734.679688 475.082031 730.125 C 475.625 728.476562 476.808594 724.59375 477.71875 721.5 C 480.882812 710.746094 484.441406 699.261719 490.734375 679.5 C 497.210938 659.15625 498.894531 653.617188 501.773438 643.125 C 502.679688 639.824219 504.714844 632.738281 506.300781 627.375 C 510.519531 613.085938 513.75 601.40625 513.75 600.433594 C 513.75 599.664062 516.136719 591.695312 518.375 585 C 519.773438 580.8125 524.964844 561.089844 526.074219 555.75 C 527.035156 551.117188 528.160156 546.789062 531.726562 534 C 532.589844 530.90625 533.796875 526.011719 534.40625 523.125 C 535.019531 520.238281 535.890625 517.03125 536.34375 516 C 537.652344 513.03125 539.921875 504.480469 539.558594 503.894531 C 539.378906 503.601562 539.878906 501.5625 540.671875 499.367188 C 541.460938 497.171875 542.332031 494.023438 542.605469 492.375 C 542.878906 490.726562 543.902344 486.84375 544.878906 483.75 C 545.855469 480.65625 547.367188 475.257812 548.238281 471.75 C 549.109375 468.242188 550.140625 464.339844 550.535156 463.070312 C 551.441406 460.152344 551.453125 457.5 550.5625 457.5 C 549.578125 457.5 544.582031 462.6875 541.5 466.90625 C 540.054688 468.886719 538.015625 471.375 536.964844 472.4375 C 535.917969 473.503906 534.0625 475.894531 532.84375 477.75 C 531.625 479.605469 529.023438 483.195312 527.066406 485.726562 C 525.105469 488.253906 523.5 490.660156 523.5 491.070312 C 523.5 491.480469 523.046875 492.191406 522.492188 492.652344 C 521.207031 493.71875 513.851562 504.714844 511.164062 509.578125 C 510.042969 511.617188 507.464844 515.867188 505.4375 519.027344 C 503.410156 522.1875 501.75 525.164062 501.75 525.636719 C 501.75 526.113281 501.449219 526.5 501.082031 526.5 C 500.714844 526.5 499.875 527.765625 499.214844 529.3125 C 498.554688 530.859375 496.804688 534.320312 495.320312 537 C 493.839844 539.679688 491.128906 544.675781 489.296875 548.097656 C 487.464844 551.519531 485.636719 554.894531 485.234375 555.597656 C 484.832031 556.300781 484.164062 557.71875 483.753906 558.75 C 483.339844 559.78125 482.695312 561.132812 482.316406 561.75 C 481.507812 563.078125 477.207031 572.257812 474.414062 578.625 C 473.328125 581.101562 471.949219 584.082031 471.34375 585.25 C 470.742188 586.417969 470.25 587.683594 470.25 588.070312 C 470.25 588.453125 469.621094 590.195312 468.855469 591.945312 C 466.710938 596.835938 465.949219 598.769531 463.074219 606.609375 C 461.609375 610.605469 460.035156 614.886719 459.578125 616.125 C 459.121094 617.363281 458.503906 618.710938 458.210938 619.125 C 457.914062 619.539062 457.433594 621.308594 457.144531 623.058594 C 456.855469 624.808594 456.351562 626.410156 456.023438 626.609375 C 455.695312 626.8125 454.671875 629.429688 453.75 632.425781 C 452.832031 635.421875 450.898438 641.417969 449.460938 645.75 C 446.425781 654.886719 444.042969 663.53125 444.019531 665.496094 C 444.003906 666.585938 444.382812 666.410156 445.875 664.636719 C 446.90625 663.410156 447.75 662.199219 447.75 661.9375 C 447.75 660.9375 451.558594 655.5 452.257812 655.5 C 453.535156 655.5 453.066406 662.722656 451.574219 666.125 C 449.953125 669.808594 446.105469 674.25 444.535156 674.25 C 442.09375 674.25 438 682.246094 438 687.007812 C 438 688.078125 437.652344 689.296875 437.230469 689.71875 C 436.390625 690.558594 432.835938 703.875 430.152344 716.25 C 429.210938 720.582031 427.910156 726.320312 427.257812 729 C 424.734375 739.378906 422.230469 751.441406 421.113281 758.625 C 420.472656 762.75 419.570312 767.644531 419.113281 769.5 C 418.65625 771.355469 418.035156 774.5625 417.738281 776.625 C 416.46875 785.375 413.847656 800.058594 413.148438 802.320312 C 412.300781 805.085938 412.089844 806.289062 411.363281 812.625 C 411.082031 815.101562 410.550781 817.683594 410.183594 818.367188 C 409.820312 819.050781 409.324219 821.246094 409.085938 823.242188 C 408.847656 825.242188 408.128906 829.238281 407.496094 832.125 C 406.859375 835.011719 406.039062 838.859375 405.671875 840.671875 C 404.570312 846.121094 402.308594 847.5625 400.117188 844.21875 Z M 406.929688 816.246094 C 405.992188 813.804688 405 815.574219 405 819.6875 C 405 826.429688 405.976562 827.789062 406.703125 822.058594 C 407.035156 819.410156 407.140625 816.792969 406.929688 816.246094 Z M 407.273438 805.5 C 407.824219 802.40625 408.390625 799.367188 408.539062 798.75 C 408.683594 798.132812 409.097656 795.9375 409.464844 793.875 C 409.828125 791.8125 410.679688 787.085938 411.359375 783.375 C 412.035156 779.664062 412.867188 774.601562 413.207031 772.125 C 413.546875 769.648438 414.242188 766.105469 414.75 764.25 C 415.257812 762.394531 416.15625 758.34375 416.742188 755.25 C 420.046875 737.816406 420.769531 734.21875 421.777344 730.125 C 422.386719 727.648438 423.765625 721.40625 424.839844 716.25 C 425.917969 711.09375 427.296875 705.386719 427.90625 703.570312 C 428.515625 701.753906 428.839844 700.089844 428.625 699.875 C 428.101562 699.351562 426.054688 702.113281 426.023438 703.382812 C 426 704.371094 423.792969 708.757812 422.949219 709.5 C 422.488281 709.90625 420.460938 716.363281 417.421875 727.125 C 415.320312 734.566406 411.441406 753.285156 410.660156 759.75 C 410.386719 762.019531 409.34375 769.445312 408.34375 776.25 C 407.339844 783.054688 406.359375 792.464844 406.167969 797.160156 C 405.972656 801.855469 405.589844 807.253906 405.320312 809.160156 C 404.503906 814.863281 406.15625 811.769531 407.273438 805.5 Z M 467.226562 797.957031 C 467.238281 796.902344 467.925781 792.367188 468.75 787.875 C 470.511719 778.28125 470.429688 779.25 469.5 779.25 C 469.085938 779.25 468.75 780.074219 468.75 781.082031 C 468.75 782.085938 468.414062 783.121094 468 783.375 C 467.585938 783.628906 467.25 784.683594 467.25 785.71875 C 467.25 786.753906 466.90625 788.242188 466.484375 789.03125 C 466.0625 789.820312 465.5625 793.226562 465.375 796.605469 C 465.066406 802.082031 465.148438 802.589844 466.117188 801.308594 C 466.714844 800.519531 467.214844 799.011719 467.226562 797.957031 Z M 470.535156 775.835938 C 470.792969 775.167969 470.667969 774.867188 470.242188 775.128906 C 469.832031 775.382812 469.5 775.90625 469.5 776.292969 C 469.5 777.375 470.039062 777.136719 470.535156 775.835938 Z M 474.453125 756.203125 C 474.203125 755.953125 474.027344 756.398438 474.058594 757.1875 C 474.09375 758.0625 474.273438 758.238281 474.511719 757.640625 C 474.730469 757.097656 474.703125 756.453125 474.453125 756.203125 Z M 992.730469 693.375 C 992.964844 692.757812 993.671875 692.25 994.296875 692.25 C 995.222656 692.25 995.261719 692.460938 994.5 693.375 C 993.988281 693.992188 993.28125 694.5 992.933594 694.5 C 992.582031 694.5 992.492188 693.992188 992.730469 693.375 Z M 996 690.933594 C 996 690.519531 996.507812 689.761719 997.125 689.25 C 997.753906 688.730469 998.25 688.648438 998.25 689.066406 C 998.25 689.480469 997.742188 690.238281 997.125 690.75 C 996.496094 691.269531 996 691.351562 996 690.933594 Z M 747.375 315.75 C 747.121094 315.335938 747.269531 315 747.707031 315 C 748.144531 315 748.5 315.335938 748.5 315.75 C 748.5 316.164062 748.351562 316.5 748.167969 316.5 C 747.988281 316.5 747.628906 316.164062 747.375 315.75 Z M 971.960938 206.578125 C 970.871094 205.265625 970.992188 205.113281 973.640625 204.476562 C 976.320312 203.835938 976.941406 205.039062 974.6875 206.515625 C 973.097656 207.558594 972.78125 207.5625 971.960938 206.578125 Z M 519 32.292969 C 519 31.855469 519.335938 31.5 519.75 31.5 C 520.164062 31.5 520.5 31.648438 520.5 31.832031 C 520.5 32.011719 520.164062 32.371094 519.75 32.625 C 519.335938 32.878906 519 32.730469 519 32.292969 Z M 522 30 C 522 29.585938 522.335938 29.25 522.75 29.25 C 523.164062 29.25 523.5 29.585938 523.5 30 C 523.5 30.414062 523.164062 30.75 522.75 30.75 C 522.335938 30.75 522 30.414062 522 30 Z M 522 30 "/>
</g>
</svg>
