<?xml version="1.0" encoding="UTF-8"?>
<svg xmlns="http://www.w3.org/2000/svg" xmlns:xlink="http://www.w3.org/1999/xlink" width="774pt" height="837pt" viewBox="0 0 774 837" version="1.1">
<g id="surface1">
<path style=" stroke:none;fill-rule:nonzero;fill:rgb(0%,0%,0%);fill-opacity:1;" d="M 34.03125 830.972656 C 30.910156 830.1875 30.789062 828.589844 33.554688 824.539062 C 35.53125 821.644531 42.75 807.207031 42.75 806.152344 C 42.75 805.871094 43.128906 805.320312 43.597656 804.933594 C 44.0625 804.546875 46.042969 801.039062 48 797.132812 C 49.957031 793.226562 51.824219 789.523438 52.148438 788.90625 C 52.472656 788.289062 53.320312 786.515625 54.027344 784.96875 C 54.734375 783.421875 55.488281 782.03125 55.699219 781.875 C 55.910156 781.71875 57.125 779.441406 58.402344 776.8125 C 59.671875 774.183594 60.964844 771.652344 61.273438 771.1875 C 61.585938 770.722656 63.519531 766.925781 65.582031 762.75 C 67.644531 758.574219 70.09375 753.765625 71.023438 752.0625 C 71.953125 750.359375 76.269531 742.007812 80.609375 733.5 C 96.769531 701.832031 103.320312 689.253906 104.636719 687.375 C 105.175781 686.601562 106.238281 684.703125 106.996094 683.15625 C 109.144531 678.769531 115.730469 666.210938 118.613281 661.007812 C 121.988281 654.902344 124.40625 650.394531 128.753906 642.09375 C 130.699219 638.382812 133.152344 633.917969 134.207031 632.175781 C 135.261719 630.433594 136.125 628.828125 136.125 628.609375 C 136.125 628.386719 136.597656 627.535156 137.175781 626.714844 C 137.753906 625.890625 139.433594 622.941406 140.90625 620.15625 C 142.382812 617.371094 143.882812 614.714844 144.246094 614.25 C 144.609375 613.785156 145.871094 611.507812 147.054688 609.1875 C 148.238281 606.867188 149.6875 604.289062 150.273438 603.457031 C 150.863281 602.625 152.34375 599.96875 153.566406 597.550781 C 155.777344 593.199219 157.011719 590.984375 160.589844 585 C 162.449219 581.886719 165.355469 576.601562 166.933594 573.46875 C 167.402344 572.539062 168.347656 571.023438 169.027344 570.09375 C 169.714844 569.164062 171.113281 566.632812 172.140625 564.46875 C 173.167969 562.304688 174.4375 559.898438 174.960938 559.125 C 175.484375 558.351562 177.121094 555.441406 178.59375 552.65625 C 180.070312 549.871094 181.570312 547.214844 181.929688 546.75 C 182.292969 546.285156 183.304688 544.515625 184.1875 542.8125 C 185.066406 541.109375 186.113281 539.339844 186.511719 538.875 C 186.910156 538.410156 187.503906 537.394531 187.832031 536.625 C 188.164062 535.851562 188.675781 534.839844 188.972656 534.375 C 189.261719 533.910156 191.195312 530.492188 193.257812 526.78125 C 195.324219 523.070312 197.996094 518.339844 199.191406 516.277344 C 200.394531 514.214844 201.375 512.371094 201.375 512.183594 C 201.375 512 202.480469 509.894531 203.832031 507.503906 C 205.1875 505.113281 208.363281 499.359375 210.894531 494.71875 C 213.421875 490.078125 215.726562 485.902344 216.011719 485.4375 C 216.300781 484.972656 217.175781 483.355469 217.964844 481.847656 C 220.484375 477.03125 227.957031 463.269531 228.824219 461.855469 C 229.28125 461.105469 230.664062 458.574219 231.894531 456.230469 C 233.125 453.886719 235.035156 450.324219 236.136719 448.3125 C 237.238281 446.300781 239.070312 442.882812 240.210938 440.71875 C 241.351562 438.554688 243.050781 435.390625 243.992188 433.6875 C 247.382812 427.542969 253.691406 414.828125 253.6875 414.140625 C 253.6875 413.753906 253.910156 413.4375 254.183594 413.4375 C 254.457031 413.4375 254.832031 412.996094 255.015625 412.453125 C 255.199219 411.910156 257.25 407.925781 259.570312 403.59375 C 261.890625 399.261719 264.683594 393.945312 265.78125 391.78125 C 266.878906 389.617188 268.003906 387.464844 268.285156 387 C 268.566406 386.535156 270.566406 382.484375 272.734375 378 C 274.894531 373.511719 277.308594 368.902344 278.085938 367.753906 C 278.863281 366.605469 280.941406 362.679688 282.703125 359.035156 C 284.464844 355.386719 286.34375 351.519531 286.878906 350.4375 C 287.417969 349.355469 288.035156 347.710938 288.253906 346.78125 C 288.472656 345.851562 289.753906 342.792969 291.105469 339.980469 C 292.457031 337.167969 293.722656 334.199219 293.929688 333.394531 C 294.132812 332.582031 294.652344 331.625 295.085938 331.265625 C 295.519531 330.910156 295.875 330.238281 295.875 329.777344 C 295.875 329.316406 296.652344 327.261719 297.605469 325.203125 C 298.558594 323.152344 300.160156 319.695312 301.164062 317.53125 C 302.167969 315.367188 304.074219 310.554688 305.394531 306.84375 C 306.714844 303.132812 308.273438 298.914062 308.859375 297.472656 C 310.621094 293.144531 311.753906 288.566406 312.375 283.285156 C 312.910156 278.730469 312.863281 278.113281 311.855469 276.253906 C 310.753906 274.222656 310.738281 274.21875 307.402344 274.402344 C 305.5625 274.503906 303.417969 274.917969 302.640625 275.316406 C 301.855469 275.714844 300.332031 276.460938 299.25 276.964844 C 296.078125 278.457031 292.824219 280.378906 288.554688 283.296875 C 286.355469 284.800781 283.726562 286.539062 282.710938 287.15625 C 281.699219 287.773438 280.496094 288.660156 280.035156 289.125 C 279.578125 289.589844 278.269531 290.601562 277.132812 291.375 C 276 292.148438 275.066406 292.949219 275.066406 293.15625 C 275.066406 293.363281 273.753906 294.488281 272.160156 295.660156 C 270.5625 296.832031 268.480469 298.5 267.535156 299.363281 C 266.585938 300.230469 265.652344 300.9375 265.457031 300.9375 C 265.265625 300.9375 263.996094 301.917969 262.632812 303.117188 C 261.269531 304.316406 257.5 307.636719 254.25 310.492188 C 251 313.34375 247.308594 316.730469 246.042969 318.011719 C 244.777344 319.292969 242.761719 321.101562 241.566406 322.03125 C 240.375 322.960938 238.246094 324.957031 236.839844 326.464844 C 235.433594 327.980469 231.28125 332.152344 227.613281 335.746094 C 223.945312 339.339844 220.65625 342.617188 220.300781 343.035156 C 219.945312 343.449219 218.515625 344.980469 217.125 346.4375 C 215.734375 347.902344 212.695312 351.226562 210.375 353.832031 C 208.054688 356.433594 204.558594 360.214844 202.605469 362.234375 C 200.652344 364.253906 198.5625 366.539062 197.964844 367.3125 C 194.394531 371.933594 192.964844 374.101562 191.761719 376.734375 C 191.019531 378.355469 190.222656 379.6875 189.988281 379.6875 C 189.753906 379.6875 189.5625 380.089844 189.5625 380.582031 C 189.5625 381.078125 189.046875 382.207031 188.417969 383.089844 C 187.785156 383.976562 186.988281 385.535156 186.644531 386.554688 C 186.300781 387.570312 185.582031 389.039062 185.050781 389.8125 C 184.519531 390.585938 183.261719 393.117188 182.253906 395.4375 C 181.25 397.757812 180.230469 399.910156 179.988281 400.21875 C 179.746094 400.527344 178.257812 403.3125 176.671875 406.40625 C 175.085938 409.5 173.558594 412.410156 173.277344 412.875 C 172.996094 413.339844 172.214844 414.984375 171.535156 416.53125 C 169.503906 421.167969 161.320312 437.847656 160.671875 438.671875 C 159.875 439.683594 156.375 447.757812 156.375 448.582031 C 156.375 448.9375 155.925781 449.714844 155.371094 450.316406 C 154.820312 450.917969 153.777344 452.796875 153.050781 454.5 C 152.324219 456.203125 149.613281 461.949219 147.023438 467.277344 C 144.429688 472.597656 142.3125 477.066406 142.3125 477.207031 C 142.3125 477.34375 139.65625 482.925781 136.40625 489.613281 C 133.15625 496.308594 130.5 501.886719 130.5 502.015625 C 130.5 502.144531 128.730469 505.941406 126.566406 510.453125 C 124.40625 514.964844 122.480469 519.28125 122.289062 520.046875 C 122.097656 520.808594 121.742188 521.4375 121.503906 521.4375 C 121.265625 521.4375 120.929688 521.878906 120.753906 522.421875 C 120.585938 522.964844 120.074219 524.039062 119.621094 524.8125 C 118.503906 526.726562 114.1875 535.902344 114.1875 536.367188 C 114.1875 536.570312 112.453125 540.320312 110.332031 544.695312 C 108.210938 549.074219 106.28125 553.289062 106.039062 554.0625 C 105.800781 554.835938 103.847656 559.140625 101.691406 563.625 C 97.652344 572.039062 94.5 579.480469 94.5 580.613281 C 94.5 580.964844 94.136719 581.652344 93.695312 582.144531 C 93.253906 582.632812 92.082031 585.058594 91.097656 587.535156 C 90.105469 590.007812 88.445312 593.621094 87.398438 595.5625 C 86.355469 597.5 85.5 599.332031 85.5 599.628906 C 85.5 599.921875 84.601562 602.128906 83.503906 604.535156 C 82.402344 606.9375 81.292969 609.414062 81.035156 610.03125 C 80.3125 611.785156 77.039062 619.394531 76.164062 621.367188 C 75.730469 622.339844 75.375 623.382812 75.375 623.675781 C 75.375 623.972656 74.617188 625.640625 73.6875 627.378906 C 72.757812 629.117188 72 630.917969 72 631.378906 C 72 631.84375 71.457031 633.425781 70.792969 634.90625 C 69.09375 638.683594 68.882812 639.210938 66.671875 645.078125 C 64.914062 649.75 62.175781 656.398438 60.726562 659.53125 C 59.808594 661.503906 56.757812 669.03125 56.160156 670.78125 C 55.847656 671.710938 55.25 673.226562 54.839844 674.15625 C 53.152344 677.96875 51.269531 682.730469 50.609375 684.84375 C 50.222656 686.082031 49.042969 688.824219 47.984375 690.9375 C 46.082031 694.75 41.0625 706.226562 41.0625 706.777344 C 41.0625 707.046875 39.589844 710.222656 35.175781 719.4375 C 34.066406 721.757812 32.628906 724.542969 31.980469 725.625 C 31.332031 726.707031 30.179688 728.734375 29.417969 730.125 C 28.660156 731.515625 27.035156 734.429688 25.808594 736.59375 C 24.589844 738.757812 23.4375 740.980469 23.253906 741.523438 C 23.074219 742.074219 22.640625 742.460938 22.292969 742.390625 C 21.941406 742.320312 21.066406 742.589844 20.34375 742.988281 C 18.472656 744.023438 18.324219 743.523438 19.648438 740.617188 C 20.289062 739.214844 20.8125 737.953125 20.8125 737.816406 C 20.8125 737.683594 21.914062 735.582031 23.257812 733.144531 C 29.503906 721.84375 34.3125 712.558594 34.3125 711.800781 C 34.3125 711.609375 35.300781 709.386719 36.511719 706.867188 C 37.722656 704.34375 40.035156 699.242188 41.652344 695.53125 C 43.269531 691.820312 45.066406 687.707031 45.640625 686.394531 C 46.214844 685.082031 46.6875 683.878906 46.6875 683.71875 C 46.6875 683.558594 47.167969 682.355469 47.753906 681.042969 C 49.332031 677.515625 53.484375 667.417969 57.296875 657.84375 C 59.144531 653.203125 61.308594 647.949219 62.105469 646.167969 C 62.902344 644.386719 64.84375 639.578125 66.417969 635.480469 C 67.992188 631.382812 70.109375 626.132812 71.128906 623.8125 C 72.753906 620.085938 76.441406 611.476562 78.472656 606.65625 C 78.863281 605.726562 79.714844 603.769531 80.371094 602.300781 C 81.027344 600.839844 81.5625 599.53125 81.5625 599.398438 C 81.5625 599.269531 82.425781 597.304688 83.480469 595.035156 C 84.539062 592.761719 88.574219 583.910156 92.445312 575.359375 C 96.324219 566.808594 100.792969 557.0625 102.378906 553.703125 C 103.96875 550.339844 105.484375 547.085938 105.746094 546.46875 C 106.003906 545.851562 107.734375 542.179688 109.585938 538.3125 C 111.4375 534.445312 113.136719 530.648438 113.363281 529.875 C 113.589844 529.101562 113.96875 528.34375 114.207031 528.1875 C 114.441406 528.03125 115.800781 525.300781 117.230469 522.113281 C 118.664062 518.925781 121.753906 512.34375 124.09375 507.488281 C 126.4375 502.628906 129.125 497.011719 130.070312 495 C 131.015625 492.988281 134.535156 485.6875 137.894531 478.769531 C 141.253906 471.851562 144 466.082031 144 465.953125 C 144 465.816406 148.269531 457.046875 153.484375 446.464844 C 158.699219 435.878906 163.144531 426.652344 163.363281 425.953125 C 163.585938 425.253906 163.984375 424.6875 164.25 424.6875 C 164.515625 424.6875 164.90625 424.121094 165.117188 423.421875 C 165.324219 422.722656 168.378906 416.328125 171.90625 409.203125 C 175.429688 402.082031 178.3125 396.09375 178.3125 395.898438 C 178.3125 395.699219 179.347656 393.714844 180.609375 391.484375 C 182.128906 388.808594 182.714844 387.242188 182.347656 386.875 C 181.980469 386.503906 181.554688 386.765625 181.09375 387.640625 C 180.707031 388.371094 179.925781 389.476562 179.34375 390.09375 C 176.878906 392.738281 174.46875 395.835938 173.652344 397.40625 C 173.175781 398.335938 171.78125 400.105469 170.558594 401.34375 C 169.339844 402.582031 167.640625 404.734375 166.777344 406.125 C 165.917969 407.515625 164.363281 409.605469 163.324219 410.769531 C 162.285156 411.929688 161.4375 413.144531 161.4375 413.472656 C 161.4375 413.796875 160.5625 415 159.492188 416.140625 C 156.355469 419.488281 153.691406 422.902344 152.351562 425.28125 C 151.667969 426.5 150.898438 427.5 150.648438 427.5 C 150.394531 427.5 150.1875 427.761719 150.1875 428.085938 C 150.1875 429.003906 145.515625 434.367188 144.28125 434.863281 C 143.972656 434.992188 142.960938 436.0625 142.03125 437.25 C 138.636719 441.582031 137.25 444.066406 137.25 445.808594 C 137.25 446.882812 136.699219 448.214844 135.84375 449.207031 C 135.070312 450.109375 134.4375 451.367188 134.4375 452.007812 C 134.4375 452.648438 133.871094 453.683594 133.171875 454.3125 C 132.472656 454.941406 131.625 455.933594 131.285156 456.519531 C 130.71875 457.488281 130.519531 457.511719 129.175781 456.792969 C 127.199219 455.738281 127.296875 454.429688 129.667969 450.027344 C 130.746094 448.027344 131.625 446.207031 131.625 445.972656 C 131.625 445.738281 132.257812 444.617188 133.03125 443.480469 C 133.804688 442.339844 134.714844 440.375 135.050781 439.113281 C 135.394531 437.855469 136.152344 436.207031 136.742188 435.460938 C 137.332031 434.710938 137.8125 433.855469 137.8125 433.558594 C 137.8125 432.9375 145.738281 416.539062 151.074219 406.125 C 153.054688 402.257812 156.230469 396 158.125 392.21875 C 160.019531 388.433594 161.917969 385.050781 162.347656 384.695312 C 162.777344 384.339844 163.128906 383.636719 163.136719 383.132812 C 163.144531 382.632812 164.28125 380.066406 165.664062 377.4375 C 168.949219 371.199219 173.8125 361.285156 173.8125 360.828125 C 173.8125 360.632812 174.675781 359.160156 175.734375 357.566406 C 176.789062 355.964844 179.78125 350.457031 182.378906 345.324219 C 184.976562 340.195312 187.660156 335.222656 188.335938 334.269531 C 189.007812 333.324219 189.5625 332.1875 189.5625 331.753906 C 189.5625 331.316406 190.015625 330.472656 190.574219 329.871094 C 191.128906 329.269531 192.019531 327.691406 192.550781 326.359375 C 193.082031 325.027344 193.996094 323.417969 194.585938 322.785156 C 195.175781 322.152344 195.800781 321.050781 195.984375 320.328125 C 196.316406 318.996094 205.761719 301.800781 207.566406 299.25 C 208.109375 298.476562 209.121094 296.644531 209.808594 295.171875 C 210.496094 293.699219 211.257812 292.5 211.496094 292.5 C 211.734375 292.5 212.609375 291.042969 213.441406 289.265625 C 215.117188 285.664062 214.941406 285.980469 218.492188 280.058594 C 219.90625 277.707031 221.066406 275.554688 221.070312 275.277344 C 221.082031 274.734375 223.960938 270.21875 225.15625 268.875 C 225.566406 268.410156 226.75 266.257812 227.785156 264.09375 C 228.816406 261.929688 230.488281 259.015625 231.488281 257.625 C 232.496094 256.234375 233.683594 254.207031 234.132812 253.125 C 234.582031 252.042969 235.371094 250.808594 235.878906 250.382812 C 236.394531 249.960938 236.8125 249.421875 236.8125 249.191406 C 236.8125 248.957031 238.238281 246.394531 239.980469 243.496094 C 244.285156 236.339844 246.707031 232.03125 248.40625 228.515625 C 249.191406 226.894531 250.066406 225.5625 250.355469 225.5625 C 250.640625 225.5625 250.875 225.265625 250.875 224.90625 C 250.875 224.546875 252.015625 222.421875 253.40625 220.191406 C 254.796875 217.957031 255.9375 215.929688 255.9375 215.6875 C 255.9375 215.441406 256.378906 214.757812 256.921875 214.164062 C 258.183594 212.785156 260.320312 209.066406 263.230469 203.203125 C 264.496094 200.652344 265.777344 198.5625 266.078125 198.5625 C 266.378906 198.5625 266.625 198.089844 266.625 197.507812 C 266.625 196.925781 266.996094 196.144531 267.449219 195.769531 C 267.898438 195.394531 268.441406 194.539062 268.65625 193.871094 C 268.867188 193.203125 269.691406 191.644531 270.488281 190.40625 C 271.285156 189.167969 272.785156 186.527344 273.816406 184.535156 C 274.851562 182.546875 276.121094 180.265625 276.644531 179.472656 C 278.398438 176.796875 279.003906 175.785156 279.699219 174.375 C 280.078125 173.601562 281.199219 171.816406 282.195312 170.410156 C 283.191406 169.003906 284.277344 167.230469 284.621094 166.472656 C 285.507812 164.484375 286.648438 162.5625 287.371094 161.839844 C 287.71875 161.496094 288 160.894531 288 160.507812 C 288 160.125 288.578125 159.183594 289.285156 158.417969 C 289.992188 157.660156 290.941406 156.320312 291.394531 155.441406 C 293.523438 151.339844 298.742188 142.179688 301.117188 138.390625 C 302.566406 136.078125 303.75 133.964844 303.75 133.691406 C 303.75 133.414062 304.507812 132.234375 305.4375 131.0625 C 306.367188 129.890625 307.125 128.792969 307.125 128.628906 C 307.125 128.269531 309.722656 123.925781 313.285156 118.320312 C 314.691406 116.109375 317.109375 112.222656 318.65625 109.691406 C 320.203125 107.15625 322.292969 103.964844 323.296875 102.597656 C 324.300781 101.230469 325.125 99.769531 325.125 99.351562 C 325.125 98.933594 325.640625 97.933594 326.269531 97.128906 C 328.074219 94.84375 331.3125 89.929688 331.3125 89.488281 C 331.3125 89.269531 331.785156 88.574219 332.371094 87.953125 C 332.949219 87.328125 334.121094 85.699219 334.972656 84.332031 C 335.824219 82.964844 338.257812 79.410156 340.386719 76.433594 C 342.511719 73.457031 344.25 70.792969 344.25 70.511719 C 344.25 70.230469 344.691406 69.589844 345.234375 69.085938 C 345.777344 68.582031 346.800781 67.324219 347.507812 66.289062 C 352.332031 59.238281 360.050781 49.210938 363.019531 46.125 C 364.957031 44.113281 367.203125 41.582031 368.011719 40.5 C 368.816406 39.417969 370.949219 37.011719 372.746094 35.15625 C 374.546875 33.300781 376.554688 31.082031 377.214844 30.230469 C 378.699219 28.296875 382.761719 25.3125 383.902344 25.3125 C 384.371094 25.3125 384.75 25.058594 384.75 24.75 C 384.75 24.039062 385.355469 24.046875 386.4375 24.769531 C 387.183594 25.269531 387.179688 25.414062 386.390625 26.027344 C 385.898438 26.410156 385.328125 27.410156 385.117188 28.257812 C 384.886719 29.183594 384.230469 29.929688 383.476562 30.136719 C 382.785156 30.324219 379.5625 33.511719 376.3125 37.222656 C 373.0625 40.941406 369.898438 44.554688 369.28125 45.261719 C 364.066406 51.210938 362.25 53.433594 362.25 53.84375 C 362.25 54.109375 361.21875 55.457031 359.957031 56.835938 C 358.695312 58.214844 357.300781 60.042969 356.847656 60.890625 C 356.398438 61.738281 355.808594 62.4375 355.539062 62.4375 C 354.945312 62.4375 351 67.820312 351 68.625 C 351 68.933594 350.785156 69.1875 350.523438 69.1875 C 350.085938 69.1875 347.933594 72.214844 345.15625 76.738281 C 343.4375 79.527344 341.183594 82.945312 340.855469 83.25 C 339.96875 84.078125 336.375 89.390625 336.375 89.875 C 336.375 90.1875 336.003906 90.582031 335.558594 90.753906 C 335.105469 90.929688 334.1875 92.160156 333.511719 93.488281 C 332.839844 94.820312 332.113281 96.03125 331.898438 96.1875 C 331.683594 96.34375 331.339844 96.847656 331.128906 97.3125 C 330.917969 97.777344 329.738281 99.675781 328.507812 101.53125 C 327.28125 103.386719 325.609375 106.171875 324.792969 107.71875 C 323.980469 109.265625 322.859375 111.039062 322.304688 111.65625 C 321.257812 112.824219 319.460938 115.683594 318.246094 118.125 C 317.859375 118.898438 317.289062 119.8125 316.972656 120.15625 C 316.660156 120.496094 315.816406 121.761719 315.097656 122.96875 C 314.382812 124.171875 312.050781 127.941406 309.921875 131.34375 C 307.796875 134.746094 305.703125 138.164062 305.277344 138.9375 C 304.636719 140.101562 302.433594 143.835938 295.335938 155.8125 C 290.558594 163.871094 285.691406 171.816406 284.296875 173.835938 C 283.324219 175.242188 282.007812 177.574219 281.367188 179.019531 C 280.730469 180.464844 279.46875 182.734375 278.570312 184.058594 C 277.667969 185.386719 276.339844 187.671875 275.617188 189.144531 C 274.894531 190.613281 273.824219 192.328125 273.238281 192.953125 C 272.660156 193.574219 271.910156 194.902344 271.574219 195.902344 C 271.242188 196.902344 270.371094 198.523438 269.640625 199.507812 C 268.910156 200.492188 268.3125 201.570312 268.3125 201.898438 C 268.3125 202.230469 268.058594 202.5 267.75 202.5 C 267.441406 202.5 267.1875 202.878906 267.1875 203.34375 C 267.1875 203.808594 266.933594 204.1875 266.625 204.1875 C 266.316406 204.1875 266.0625 204.648438 266.0625 205.207031 C 266.0625 205.765625 265.527344 206.800781 264.871094 207.5 C 264.21875 208.203125 262.761719 210.59375 261.636719 212.816406 C 260.511719 215.035156 259.027344 217.644531 258.328125 218.621094 C 257.628906 219.59375 257.0625 220.632812 257.0625 220.921875 C 257.0625 221.210938 256.578125 221.886719 255.988281 222.421875 C 255.398438 222.957031 254.386719 224.625 253.738281 226.132812 C 253.089844 227.640625 252.324219 229.019531 252.03125 229.199219 C 251.746094 229.378906 250.871094 230.867188 250.09375 232.515625 C 249.3125 234.160156 248.285156 235.832031 247.808594 236.226562 C 247.332031 236.625 246.9375 237.214844 246.9375 237.535156 C 246.9375 237.859375 245.574219 240.421875 243.90625 243.230469 C 242.238281 246.042969 240.160156 249.734375 239.285156 251.4375 C 238.410156 253.140625 237.335938 254.902344 236.894531 255.351562 C 236.457031 255.804688 235.738281 257.019531 235.308594 258.058594 C 234.871094 259.09375 233.371094 261.582031 231.972656 263.582031 C 230.574219 265.589844 229.15625 268.039062 228.824219 269.035156 C 228.492188 270.027344 227.769531 271.351562 227.21875 271.96875 C 226.667969 272.585938 225.066406 275.320312 223.660156 278.042969 C 222.253906 280.761719 220.589844 283.714844 219.957031 284.597656 C 219.328125 285.480469 218.8125 286.351562 218.8125 286.527344 C 218.8125 286.707031 217.886719 288.300781 216.753906 290.070312 C 215.621094 291.839844 213.300781 295.960938 211.589844 299.222656 C 209.886719 302.488281 208.035156 305.914062 207.476562 306.84375 C 206.921875 307.773438 205.957031 309.464844 205.335938 310.601562 C 204.710938 311.742188 203.953125 312.828125 203.648438 313.015625 C 203.34375 313.203125 202.570312 314.542969 201.933594 315.988281 C 201.292969 317.433594 200.429688 319.003906 200.011719 319.480469 C 199.597656 319.953125 199.066406 320.976562 198.828125 321.75 C 198.59375 322.523438 197.84375 323.914062 197.160156 324.84375 C 196.480469 325.773438 195.042969 328.304688 193.964844 330.46875 C 192.882812 332.632812 191.730469 334.914062 191.40625 335.53125 C 191.078125 336.148438 190.21875 337.921875 189.496094 339.46875 C 188.769531 341.015625 186.84375 344.527344 185.214844 347.277344 C 183.582031 350.019531 182.25 352.433594 182.25 352.636719 C 182.25 352.839844 180.351562 356.628906 178.03125 361.050781 C 175.710938 365.476562 173.8125 369.296875 173.8125 369.542969 C 173.8125 369.785156 173.433594 370.304688 172.96875 370.6875 C 172.503906 371.070312 172.125 371.746094 172.125 372.191406 C 172.125 373.027344 171.488281 374.363281 167.765625 381.375 C 166.53125 383.695312 165.332031 386.226562 165.101562 387 C 164.871094 387.773438 164.246094 388.914062 163.707031 389.53125 C 163.171875 390.148438 162.292969 391.796875 161.757812 393.1875 C 161.222656 394.578125 160.214844 396.476562 159.527344 397.40625 C 158.839844 398.335938 157.941406 399.980469 157.527344 401.0625 C 157.117188 402.144531 154.566406 407.585938 151.863281 413.15625 C 146.605469 423.988281 145.261719 427.261719 145.832031 427.832031 C 146.339844 428.339844 148.921875 425.246094 149.335938 423.640625 C 149.859375 421.613281 156.027344 413.136719 163.125 404.707031 C 164.207031 403.421875 165.851562 401.382812 166.78125 400.175781 C 167.710938 398.96875 169.363281 396.964844 170.453125 395.722656 C 174.167969 391.503906 177.5625 387.285156 178.613281 385.59375 C 179.191406 384.664062 180.6875 382.753906 181.941406 381.339844 C 183.191406 379.929688 185.359375 377.320312 186.75 375.542969 C 188.140625 373.761719 189.761719 371.777344 190.347656 371.132812 C 191.667969 369.679688 196.875 359.6875 196.875 358.597656 C 196.875 358.164062 197.203125 357.605469 197.605469 357.355469 C 198.007812 357.109375 200.078125 353.363281 202.203125 349.03125 C 204.332031 344.699219 207.042969 339.566406 208.222656 337.632812 C 209.410156 335.691406 210.375 333.765625 210.375 333.347656 C 210.375 332.933594 210.964844 331.726562 211.683594 330.660156 C 212.40625 329.601562 213.691406 327.351562 214.539062 325.664062 C 216.484375 321.792969 220.285156 314.609375 222.707031 310.21875 C 223.730469 308.363281 225.96875 304.1875 227.679688 300.9375 C 230.753906 295.113281 234.257812 288.738281 236.808594 284.34375 C 237.523438 283.105469 238.792969 280.828125 239.625 279.28125 C 240.460938 277.734375 242.949219 273.25 245.164062 269.316406 C 247.378906 265.378906 249.1875 262.050781 249.1875 261.917969 C 249.1875 261.785156 250.199219 260.011719 251.4375 257.972656 C 252.675781 255.9375 253.6875 254.152344 253.6875 254.007812 C 253.6875 253.863281 254.445312 252.617188 255.375 251.246094 C 256.304688 249.867188 257.0625 248.550781 257.0625 248.308594 C 257.0625 247.957031 259.242188 244.175781 262.71875 238.5 C 263.007812 238.035156 263.75 236.769531 264.375 235.6875 C 265 234.605469 265.761719 233.339844 266.066406 232.875 C 267.136719 231.238281 271.6875 223.277344 271.6875 223.039062 C 271.6875 222.910156 272.347656 221.839844 273.148438 220.667969 C 273.957031 219.492188 274.84375 218.023438 275.128906 217.40625 C 275.410156 216.789062 276.140625 215.523438 276.75 214.59375 C 277.359375 213.664062 278.113281 212.398438 278.425781 211.78125 C 278.738281 211.164062 280.125 208.882812 281.503906 206.71875 C 282.886719 204.554688 284.023438 202.621094 284.039062 202.425781 C 284.066406 202.027344 286.738281 197.609375 289.851562 192.824219 C 291 191.058594 291.9375 189.496094 291.9375 189.347656 C 291.9375 189.203125 293.15625 187.226562 294.652344 184.964844 C 296.140625 182.699219 297.515625 180.464844 297.707031 180 C 297.898438 179.535156 299.714844 176.625 301.75 173.53125 C 303.777344 170.4375 305.675781 167.355469 305.972656 166.683594 C 306.261719 166.011719 307.371094 164.242188 308.433594 162.746094 C 309.492188 161.253906 310.808594 159.144531 311.351562 158.0625 C 311.898438 156.980469 314.335938 153.089844 316.765625 149.417969 C 319.199219 145.75 321.1875 142.644531 321.1875 142.527344 C 321.1875 142.410156 322.894531 139.667969 324.984375 136.433594 C 330.96875 127.167969 333.214844 123.640625 334.128906 122.078125 C 335.511719 119.699219 339.367188 113.925781 339.769531 113.625 C 339.976562 113.46875 340.472656 112.710938 340.871094 111.9375 C 342.207031 109.347656 345.605469 104.347656 346.339844 103.894531 C 346.738281 103.644531 347.0625 103.207031 347.0625 102.917969 C 347.0625 102.632812 348.011719 100.96875 349.171875 99.222656 C 350.332031 97.472656 351.535156 95.628906 351.84375 95.121094 C 352.152344 94.613281 352.972656 93.402344 353.671875 92.433594 C 354.371094 91.460938 354.9375 90.484375 354.9375 90.253906 C 354.9375 90.023438 355.824219 88.753906 356.90625 87.429688 C 357.988281 86.109375 358.875 84.875 358.875 84.691406 C 358.875 84.503906 360.964844 81.304688 363.515625 77.582031 C 366.066406 73.855469 368.914062 69.601562 369.84375 68.121094 C 370.773438 66.644531 372.179688 64.570312 372.96875 63.511719 C 373.757812 62.457031 375.128906 60.328125 376.011719 58.78125 C 376.898438 57.234375 377.773438 55.84375 377.960938 55.6875 C 378.5625 55.191406 387.953125 40.851562 388.898438 38.980469 C 389.398438 37.992188 390.523438 36.09375 391.398438 34.761719 C 392.269531 33.433594 393.695312 30.699219 394.5625 28.6875 C 395.429688 26.675781 396.359375 24.792969 396.632812 24.496094 C 397.292969 23.777344 397.257812 22.085938 396.566406 21.660156 C 396.257812 21.46875 394.75 20.984375 393.207031 20.585938 C 390.574219 19.902344 390.339844 19.933594 389.269531 21.074219 C 388.636719 21.746094 388.125 22.589844 388.125 22.957031 C 388.125 23.324219 387.601562 23.625 386.957031 23.625 C 385.105469 23.625 385.875 21.816406 388.269531 20.53125 C 389.425781 19.914062 390.371094 19.144531 390.371094 18.816406 C 390.375 17.742188 394.621094 14.0625 395.855469 14.0625 C 396.523438 14.0625 397.707031 13.773438 398.480469 13.421875 C 399.621094 12.902344 400.167969 12.957031 401.320312 13.714844 C 402.453125 14.457031 402.75 15.113281 402.75 16.878906 C 402.75 18.972656 400.238281 26.371094 399.316406 27.007812 C 399.085938 27.167969 398.210938 28.875 397.375 30.804688 C 396.539062 32.734375 395.664062 34.3125 395.429688 34.3125 C 395.199219 34.3125 394.847656 34.753906 394.648438 35.296875 C 394.265625 36.363281 393.984375 36.839844 390.722656 41.90625 C 389.53125 43.761719 387.78125 46.480469 386.839844 47.953125 C 385.894531 49.425781 384.910156 50.625 384.65625 50.625 C 384.398438 50.625 384.1875 50.984375 384.1875 51.425781 C 384.1875 52.191406 382.914062 54.246094 376.777344 63.378906 C 375.285156 65.597656 374.0625 67.644531 374.0625 67.933594 C 374.0625 68.21875 373.574219 68.890625 372.980469 69.433594 C 372.378906 69.972656 371.476562 71.292969 370.964844 72.367188 C 370.457031 73.4375 369.679688 74.457031 369.238281 74.625 C 368.796875 74.792969 368.4375 75.132812 368.4375 75.378906 C 368.4375 75.621094 366.917969 78.113281 365.0625 80.910156 C 363.207031 83.707031 361.683594 86.203125 361.683594 86.453125 C 361.679688 86.699219 360.859375 87.800781 359.855469 88.902344 C 358.851562 89.996094 357.488281 91.902344 356.820312 93.136719 C 356.152344 94.367188 354.128906 97.484375 352.320312 100.0625 C 348.636719 105.308594 347.621094 106.839844 345.917969 109.6875 C 342.324219 115.691406 339.257812 120.457031 338.679688 120.9375 C 338.304688 121.25 337.121094 123.253906 335.980469 125.519531 C 335.566406 126.335938 334.851562 127.316406 334.394531 127.695312 C 333.9375 128.078125 333.5625 128.613281 333.5625 128.886719 C 333.5625 129.351562 329.738281 135.480469 329.042969 136.125 C 328.878906 136.28125 327.875 137.796875 326.8125 139.5 C 325.75 141.203125 324.726562 142.71875 324.539062 142.875 C 324.351562 143.03125 324.019531 143.535156 323.792969 144 C 323.214844 145.21875 322.308594 146.683594 319.921875 150.246094 C 318.761719 151.980469 317.8125 153.566406 317.8125 153.773438 C 317.8125 154.242188 314.96875 158.644531 314.015625 159.652344 C 313.628906 160.058594 313.3125 160.753906 313.3125 161.199219 C 313.3125 161.640625 313.121094 162 312.882812 162 C 312.644531 162 311.585938 163.457031 310.53125 165.234375 C 309.476562 167.011719 308.441406 168.59375 308.226562 168.75 C 308.011719 168.90625 307.292969 170.042969 306.621094 171.28125 C 305.953125 172.519531 304.273438 175.304688 302.890625 177.46875 C 301.507812 179.632812 300.222656 181.847656 300.027344 182.390625 C 299.839844 182.933594 299.460938 183.375 299.191406 183.375 C 298.921875 183.375 298.359375 184.199219 297.9375 185.203125 C 297.519531 186.207031 295.867188 188.976562 294.269531 191.359375 C 292.667969 193.738281 290.667969 196.988281 289.824219 198.582031 C 288.976562 200.179688 287.9375 202.121094 287.519531 202.894531 C 287.101562 203.671875 286.277344 204.785156 285.691406 205.371094 C 285.105469 205.957031 284.625 206.710938 284.625 207.042969 C 284.625 207.378906 283.769531 208.964844 282.726562 210.558594 C 281.683594 212.160156 280.480469 214.160156 280.054688 215.003906 C 279.628906 215.847656 277.613281 219.390625 275.578125 222.878906 C 273.539062 226.363281 271.707031 229.597656 271.503906 230.0625 C 271.300781 230.527344 269.707031 233.183594 267.964844 235.96875 C 264.074219 242.179688 261.5625 246.488281 258.628906 252 C 257.394531 254.320312 255.816406 256.976562 255.121094 257.90625 C 254.425781 258.835938 253.292969 260.734375 252.613281 262.125 C 250.878906 265.648438 248.933594 269.183594 246.726562 272.8125 C 245.691406 274.515625 243.898438 277.871094 242.746094 280.265625 C 241.589844 282.660156 240.429688 284.757812 240.167969 284.917969 C 239.910156 285.078125 239.332031 285.902344 238.886719 286.746094 C 234.636719 294.824219 232.617188 298.609375 230.140625 303.132812 C 228.550781 306.039062 227.25 308.511719 227.25 308.625 C 227.25 308.738281 226.015625 311.042969 224.507812 313.742188 C 223.003906 316.445312 220.433594 321.1875 218.800781 324.28125 C 217.171875 327.375 214.605469 332.183594 213.097656 334.96875 C 211.59375 337.753906 208.832031 343.070312 206.96875 346.78125 C 205.101562 350.492188 203.277344 353.960938 202.917969 354.488281 C 202.554688 355.015625 202.453125 355.640625 202.691406 355.878906 C 203.152344 356.339844 205.308594 354.175781 208.960938 349.59375 C 212.464844 345.199219 243.730469 314.167969 250.3125 308.554688 C 253.5625 305.785156 257.78125 302.050781 259.683594 300.257812 C 261.589844 298.46875 263.375 297 263.644531 297 C 263.917969 297 265.023438 296.175781 266.101562 295.171875 C 267.179688 294.167969 269.066406 292.597656 270.296875 291.683594 C 271.527344 290.773438 272.65625 289.847656 272.8125 289.632812 C 272.96875 289.410156 274.269531 288.386719 275.707031 287.351562 C 277.144531 286.316406 279.730469 284.394531 281.449219 283.078125 C 283.167969 281.761719 284.714844 280.6875 284.878906 280.6875 C 285.042969 280.6875 286.3125 279.820312 287.699219 278.761719 C 289.933594 277.058594 291.527344 276.144531 298.40625 272.652344 C 300.792969 271.4375 305.171875 270.394531 308.96875 270.125 C 312.113281 269.90625 312.289062 269.972656 314.371094 272.058594 C 316.238281 273.933594 316.566406 274.667969 316.878906 277.59375 C 317.308594 281.597656 316.175781 289.179688 314.488281 293.628906 C 313.839844 295.332031 313.3125 297.238281 313.3125 297.871094 C 313.3125 298.503906 313.089844 299.265625 312.816406 299.558594 C 312.542969 299.855469 312.019531 301.105469 311.648438 302.34375 C 310.746094 305.355469 308.160156 311.773438 307.585938 312.441406 C 307.332031 312.734375 307.125 313.316406 307.125 313.738281 C 307.125 314.160156 306.257812 316.328125 305.199219 318.550781 C 301.800781 325.671875 295.875 338.703125 295.875 339.050781 C 295.875 339.433594 288.207031 355.320312 287.394531 356.625 C 287.105469 357.089844 286.589844 358.101562 286.246094 358.875 C 285.910156 359.648438 285.417969 360.660156 285.164062 361.125 C 284.613281 362.117188 282.183594 367.210938 280.730469 370.40625 C 279.082031 374.027344 275.511719 381.019531 274.835938 381.9375 C 274.496094 382.402344 273.601562 384.046875 272.847656 385.59375 C 272.089844 387.140625 271.175781 388.785156 270.808594 389.25 C 270.441406 389.714844 269.828125 391.070312 269.441406 392.265625 C 269.0625 393.457031 267.765625 396.140625 266.558594 398.226562 C 265.359375 400.3125 264.375 402.273438 264.375 402.582031 C 264.375 402.886719 263.867188 403.722656 263.25 404.4375 C 262.632812 405.152344 262.105469 406.140625 262.082031 406.632812 C 262.058594 407.128906 261.566406 408.289062 260.992188 409.21875 C 260.410156 410.148438 259.273438 412.296875 258.464844 414 C 257.652344 415.703125 256.640625 417.726562 256.214844 418.5 C 254.542969 421.554688 250.824219 428.664062 247.667969 434.855469 C 245.839844 438.433594 243.816406 442.105469 243.171875 443.011719 C 242.527344 443.914062 240.941406 446.679688 239.652344 449.15625 C 238.363281 451.632812 236.03125 456.0625 234.464844 459 C 232.902344 461.9375 231.117188 465.355469 230.5 466.59375 C 229.878906 467.832031 229.050781 469.222656 228.664062 469.6875 C 228.277344 470.152344 226.527344 473.316406 224.785156 476.71875 C 223.042969 480.121094 221.386719 483.191406 221.101562 483.539062 C 220.820312 483.886719 219.777344 485.773438 218.789062 487.738281 C 217.800781 489.699219 216.332031 492.324219 215.527344 493.574219 C 214.730469 494.820312 213.503906 497.042969 212.8125 498.515625 C 212.117188 499.988281 211.285156 501.1875 210.964844 501.1875 C 210.636719 501.1875 210.375 501.441406 210.375 501.753906 C 210.375 502.394531 208.964844 505.308594 204.914062 513 C 199.433594 523.417969 197.246094 527.371094 195.742188 529.59375 C 194.902344 530.832031 193.511719 533.234375 192.652344 534.9375 C 191.792969 536.640625 189.265625 541.195312 187.035156 545.0625 C 184.804688 548.929688 182.601562 552.851562 182.136719 553.78125 C 181.675781 554.710938 180.59375 556.734375 179.738281 558.28125 C 178.054688 561.308594 178.015625 561.378906 174.628906 567.28125 C 173.386719 569.445312 171.957031 571.976562 171.449219 572.90625 C 170.941406 573.835938 169.175781 576.964844 167.527344 579.867188 C 165.882812 582.765625 163.570312 586.941406 162.394531 589.148438 C 161.222656 591.351562 159.660156 594.042969 158.929688 595.125 C 158.199219 596.207031 156.230469 599.773438 154.566406 603.050781 C 152.898438 606.332031 150.976562 609.71875 150.296875 610.582031 C 149.621094 611.445312 149.0625 612.332031 149.0625 612.558594 C 149.0625 612.78125 147.820312 615.121094 146.300781 617.765625 C 144.777344 620.40625 141.84375 625.824219 139.777344 629.800781 C 137.710938 633.777344 135.769531 637.332031 135.46875 637.703125 C 135.164062 638.066406 134.042969 640.074219 132.980469 642.160156 C 131.910156 644.242188 130.828125 646.214844 130.574219 646.550781 C 130.316406 646.882812 128.644531 649.941406 126.851562 653.34375 C 125.066406 656.746094 123.289062 659.910156 122.910156 660.375 C 122.53125 660.839844 121.378906 662.992188 120.347656 665.15625 C 119.316406 667.320312 118.003906 669.777344 117.433594 670.617188 C 116.863281 671.457031 115.132812 674.621094 113.59375 677.648438 C 112.050781 680.675781 110.570312 683.535156 110.300781 684 C 110.03125 684.464844 109.339844 685.839844 108.765625 687.058594 C 108.191406 688.277344 106.808594 690.808594 105.703125 692.683594 C 104.59375 694.558594 102.59375 698.5 101.261719 701.4375 C 99.929688 704.375 98.644531 707.035156 98.410156 707.34375 C 98.175781 707.652344 95.496094 712.714844 92.457031 718.59375 C 89.417969 724.472656 85.785156 731.476562 84.386719 734.160156 C 79.246094 744.011719 70.605469 760.9375 67.914062 766.40625 C 66.394531 769.5 64.824219 772.410156 64.433594 772.875 C 64.035156 773.339844 63.246094 774.984375 62.667969 776.53125 C 62.09375 778.078125 60.664062 781.117188 59.496094 783.28125 C 55.3125 791.023438 50.035156 802.183594 50.324219 802.660156 C 51.027344 803.792969 52.761719 802.34375 55.234375 798.566406 C 58.738281 793.210938 62.304688 787.925781 62.917969 787.183594 C 63.1875 786.855469 63.738281 785.96875 64.140625 785.214844 C 64.542969 784.460938 65.550781 782.957031 66.382812 781.875 C 67.214844 780.792969 69.867188 777.25 72.277344 774 C 74.683594 770.75 77.382812 767.207031 78.273438 766.125 C 81.765625 761.886719 84.273438 758.417969 85.636719 755.957031 C 88.355469 751.035156 88.597656 750.652344 89.320312 750.191406 C 90.105469 749.691406 94.519531 743.230469 99.707031 734.988281 C 101.484375 732.160156 103.199219 729.464844 103.511719 729 C 103.828125 728.535156 104.773438 727.058594 105.621094 725.714844 C 106.464844 724.375 107.535156 722.820312 108 722.265625 C 108.464844 721.707031 109.476562 720.195312 110.25 718.910156 C 111.023438 717.621094 112.429688 715.503906 113.371094 714.207031 C 114.316406 712.90625 115.773438 710.660156 116.605469 709.214844 C 117.441406 707.761719 118.449219 706.246094 118.839844 705.839844 C 119.230469 705.425781 121.269531 702.5625 123.371094 699.46875 C 125.464844 696.375 128.261719 692.324219 129.582031 690.46875 C 130.902344 688.613281 133.304688 685.195312 134.917969 682.875 C 140.539062 674.789062 141.816406 673.019531 143.183594 671.425781 C 143.941406 670.542969 144.5625 669.621094 144.5625 669.378906 C 144.5625 668.898438 148.261719 663.347656 154.308594 654.75 C 158.234375 649.164062 164.65625 639.8125 167.0625 636.171875 C 168.378906 634.183594 169.363281 632.847656 173.347656 627.640625 C 174.222656 626.5 174.9375 625.347656 174.9375 625.082031 C 174.9375 624.816406 176.148438 623.09375 177.625 621.253906 C 179.101562 619.410156 181.160156 616.515625 182.199219 614.8125 C 183.238281 613.109375 185.679688 609.566406 187.621094 606.9375 C 192.128906 600.839844 194.808594 597.101562 196.660156 594.324219 C 197.472656 593.113281 198.371094 591.847656 198.652344 591.511719 C 199.566406 590.441406 204.386719 583.773438 207.207031 579.683594 C 208.710938 577.503906 210.882812 574.453125 212.03125 572.90625 C 219.25 563.171875 221.019531 560.71875 223.96875 556.371094 C 225.773438 553.710938 227.730469 550.898438 228.3125 550.125 C 228.894531 549.351562 231.863281 545.300781 234.902344 541.125 C 237.945312 536.949219 240.566406 533.40625 240.734375 533.25 C 241.332031 532.691406 246.121094 526.332031 247.5 524.261719 C 249.128906 521.816406 252.222656 517.589844 253.257812 516.394531 C 253.644531 515.941406 254.699219 514.425781 255.585938 513.019531 C 256.476562 511.617188 258.136719 509.328125 259.273438 507.9375 C 260.414062 506.546875 262.703125 503.507812 264.359375 501.1875 C 266.019531 498.867188 267.585938 496.882812 267.84375 496.78125 C 268.101562 496.679688 268.3125 496.363281 268.3125 496.082031 C 268.3125 495.800781 269.207031 494.367188 270.308594 492.894531 C 271.402344 491.421875 273.492188 488.609375 274.949219 486.640625 C 276.402344 484.675781 278.160156 482.492188 278.859375 481.796875 C 279.558594 481.097656 280.125 480.277344 280.125 479.976562 C 280.125 479.671875 280.632812 478.964844 281.25 478.40625 C 281.867188 477.847656 282.375 477.074219 282.375 476.691406 C 282.375 476.308594 282.753906 475.847656 283.21875 475.671875 C 284.277344 475.265625 284.316406 476.105469 283.277344 477.140625 C 282.847656 477.574219 281.949219 479.121094 281.28125 480.585938 C 280.617188 482.046875 279.703125 483.382812 279.253906 483.558594 C 278.804688 483.730469 278.4375 484.089844 278.4375 484.355469 C 278.4375 484.625 276.800781 487.191406 274.804688 490.0625 C 270.410156 496.375 260.695312 510.53125 258.75 513.460938 C 257.976562 514.621094 256.441406 516.703125 255.335938 518.082031 C 254.230469 519.464844 252.496094 521.925781 251.480469 523.546875 C 250.464844 525.167969 249.433594 526.5 249.191406 526.5 C 248.949219 526.5 248.328125 527.324219 247.8125 528.328125 C 246.636719 530.621094 244.472656 533.65625 242.683594 535.53125 C 241.929688 536.320312 241.308594 537.207031 241.304688 537.5 C 241.296875 537.792969 240.605469 538.847656 239.757812 539.84375 C 237.417969 542.601562 236.039062 544.597656 235.289062 546.328125 C 234.914062 547.1875 234.21875 548.042969 233.742188 548.222656 C 233.265625 548.410156 232.875 548.8125 232.875 549.125 C 232.875 549.4375 231.660156 551.246094 230.171875 553.144531 C 228.683594 555.042969 227.296875 556.972656 227.085938 557.4375 C 226.878906 557.902344 225.570312 559.800781 224.183594 561.65625 C 222.800781 563.511719 220.472656 566.804688 219.007812 568.96875 C 217.550781 571.132812 215.703125 573.6875 214.910156 574.644531 C 214.121094 575.601562 213.089844 576.960938 212.625 577.664062 C 212.160156 578.367188 211.375 579.484375 210.875 580.144531 C 210.378906 580.804688 209.519531 582.230469 208.964844 583.3125 C 208.410156 584.394531 207.488281 585.613281 206.914062 586.015625 C 206.34375 586.421875 205.875 587.066406 205.875 587.453125 C 205.875 587.839844 204.988281 589.121094 203.90625 590.304688 C 202.824219 591.488281 201.9375 592.753906 201.9375 593.121094 C 201.9375 593.488281 201.179688 594.515625 200.25 595.40625 C 199.320312 596.296875 198.5625 597.257812 198.5625 597.542969 C 198.5625 597.828125 197.613281 599.238281 196.453125 600.675781 C 194.277344 603.367188 193.753906 604.136719 191.8125 607.5 C 191.183594 608.582031 189.660156 610.859375 188.425781 612.5625 C 187.1875 614.265625 185.132812 617.175781 183.863281 619.03125 C 182.585938 620.886719 181.097656 622.914062 180.554688 623.53125 C 180.007812 624.148438 179.023438 625.730469 178.363281 627.046875 C 177.707031 628.363281 176.941406 629.4375 176.667969 629.4375 C 176.394531 629.4375 175.648438 630.261719 175.003906 631.265625 C 174.363281 632.269531 173.515625 633.601562 173.121094 634.21875 C 172.730469 634.835938 172.246094 635.46875 172.058594 635.625 C 171.863281 635.78125 170.523438 637.738281 169.074219 639.984375 C 167.628906 642.230469 166.222656 644.0625 165.957031 644.0625 C 165.683594 644.0625 165.191406 644.886719 164.855469 645.890625 C 164.3125 647.535156 163.09375 649.332031 160.691406 652.019531 C 160.238281 652.53125 159.15625 654.175781 158.292969 655.675781 C 157.425781 657.179688 155.945312 659.417969 154.996094 660.65625 C 154.054688 661.894531 152.960938 663.414062 152.574219 664.03125 C 148.828125 669.996094 147.425781 672.070312 146.019531 673.714844 C 145.121094 674.769531 143.855469 676.621094 143.207031 677.820312 C 142.5625 679.027344 141.453125 680.71875 140.746094 681.582031 C 138.347656 684.523438 135.777344 688.210938 133.578125 691.875 C 132.371094 693.886719 130.949219 695.910156 130.421875 696.375 C 129.890625 696.839844 128.992188 698.113281 128.421875 699.210938 C 127.855469 700.308594 126.445312 702.496094 125.289062 704.066406 C 124.132812 705.644531 123.1875 707.105469 123.1875 707.316406 C 123.1875 707.53125 122.175781 708.90625 120.9375 710.371094 C 119.699219 711.839844 118.6875 713.207031 118.6875 713.40625 C 118.6875 713.605469 116.457031 717.132812 113.722656 721.246094 C 106.15625 732.636719 102.578125 738.160156 101.886719 739.503906 C 101.539062 740.175781 100.925781 741.0625 100.519531 741.472656 C 100.109375 741.882812 97.957031 744.875 95.730469 748.125 C 89.207031 757.644531 85.402344 763.011719 84.953125 763.3125 C 84.722656 763.46875 84.082031 764.480469 83.53125 765.5625 C 82.980469 766.644531 82.359375 767.65625 82.152344 767.8125 C 81.941406 767.96875 80.910156 769.359375 79.863281 770.90625 C 78.816406 772.453125 77.253906 774.476562 76.386719 775.40625 C 75.523438 776.335938 74.816406 777.410156 74.816406 777.796875 C 74.8125 778.183594 74.554688 778.5 74.238281 778.5 C 73.921875 778.5 73.355469 779.199219 72.976562 780.046875 C 72.597656 780.894531 72.097656 781.847656 71.867188 782.15625 C 71.636719 782.464844 70.429688 784.046875 69.183594 785.667969 C 67.941406 787.285156 66.484375 789.339844 65.945312 790.226562 C 63.460938 794.339844 56.566406 803.683594 55.089844 804.9375 C 54.765625 805.214844 49.667969 812.222656 46.4375 816.835938 C 44.566406 819.511719 43.945312 819.019531 45.253906 815.886719 C 46.308594 813.355469 46.335938 813.074219 45.417969 814.035156 C 43.996094 815.519531 42.734375 817.882812 42.621094 819.269531 C 42.558594 820.050781 42.332031 820.6875 42.117188 820.6875 C 41.902344 820.6875 41.855469 821.167969 42.007812 821.753906 C 42.25 822.675781 41.410156 824.507812 39.792969 826.59375 C 39.550781 826.902344 38.78125 828.042969 38.082031 829.121094 C 36.777344 831.125 36.019531 831.472656 34.03125 830.972656 Z M 398.25 19.6875 C 398.25 19.378906 397.996094 19.125 397.6875 19.125 C 397.378906 19.125 397.125 19.378906 397.125 19.6875 C 397.125 19.996094 397.378906 20.25 397.6875 20.25 C 397.996094 20.25 398.25 19.996094 398.25 19.6875 Z M 536.90625 799.332031 C 535.59375 799.015625 535.425781 798.835938 536.144531 798.519531 C 537.523438 797.910156 541.285156 798.367188 541.550781 799.171875 C 541.804688 799.949219 539.746094 800.019531 536.90625 799.332031 Z M 15.046875 747.90625 C 13.992188 747.101562 13.707031 744.472656 14.613281 743.910156 C 15.582031 743.316406 17.292969 744.664062 17.597656 746.277344 C 18.019531 748.472656 16.808594 749.242188 15.046875 747.90625 Z M 21.375 748.105469 C 21.375 747.808594 21.753906 747.5625 22.21875 747.5625 C 22.683594 747.5625 23.0625 747.660156 23.0625 747.78125 C 23.0625 747.90625 22.683594 748.152344 22.21875 748.328125 C 21.753906 748.503906 21.375 748.40625 21.375 748.105469 Z M 458.011719 717.933594 C 456.394531 717.289062 456.121094 715.578125 457.25 713.105469 C 457.855469 711.777344 459.648438 705.386719 461.238281 698.894531 C 462.824219 692.40625 464.890625 684.183594 465.828125 680.625 C 466.761719 677.066406 467.738281 673.269531 467.996094 672.1875 C 468.410156 670.425781 470.371094 663.261719 474.5 648.394531 C 475.257812 645.675781 475.875 643.078125 475.875 642.625 C 475.875 642.167969 476.097656 641.359375 476.371094 640.820312 C 476.644531 640.285156 477.253906 638.324219 477.726562 636.46875 C 478.199219 634.613281 479.269531 630.816406 480.09375 628.03125 C 480.921875 625.246094 482.101562 620.945312 482.714844 618.46875 C 484.042969 613.109375 490.734375 590.433594 492.507812 585.28125 C 492.933594 584.042969 493.925781 580.753906 494.714844 577.96875 C 495.503906 575.183594 496.375 572.398438 496.652344 571.78125 C 496.925781 571.164062 497.957031 568 498.933594 564.75 C 499.910156 561.5 500.90625 558.335938 501.148438 557.71875 C 501.394531 557.101562 505.285156 545.582031 509.804688 532.125 C 518.757812 505.449219 520.113281 501.472656 520.828125 499.78125 C 522.152344 496.644531 523.128906 493.960938 523.585938 492.1875 C 523.863281 491.105469 524.738281 488.574219 525.523438 486.5625 C 526.308594 484.550781 530.261719 474.046875 534.300781 463.21875 C 542.902344 440.164062 546.160156 431.648438 547.855469 427.78125 C 548.535156 426.234375 549.828125 422.816406 550.734375 420.1875 C 551.640625 417.558594 552.746094 414.648438 553.1875 413.71875 C 554.128906 411.746094 557.515625 403.027344 558.757812 399.375 C 559.234375 397.984375 560.140625 395.839844 560.777344 394.613281 C 561.417969 393.390625 561.9375 392.046875 561.9375 391.636719 C 561.9375 391.222656 562.457031 389.816406 563.09375 388.519531 C 563.730469 387.21875 565.035156 384.132812 565.996094 381.65625 C 569.023438 373.839844 574.425781 360.917969 575.511719 358.882812 C 576.089844 357.804688 576.5625 356.644531 576.5625 356.296875 C 576.5625 355.953125 576.910156 354.9375 577.332031 354.039062 C 577.757812 353.140625 580.050781 347.597656 582.429688 341.71875 C 584.808594 335.839844 587.503906 329.511719 588.425781 327.65625 C 589.339844 325.800781 590.085938 324.0625 590.078125 323.792969 C 590.070312 323.527344 591.097656 320.996094 592.363281 318.167969 C 594.4375 313.546875 595.3125 311.550781 596.847656 307.96875 C 597.113281 307.351562 598.222656 304.863281 599.320312 302.441406 C 600.417969 300.023438 601.3125 297.917969 601.3125 297.769531 C 601.3125 297.507812 601.824219 296.355469 605.511719 288.351562 C 606.351562 286.535156 607.363281 284.128906 607.761719 283.007812 C 608.160156 281.886719 609.929688 277.804688 611.691406 273.9375 C 616.804688 262.707031 616.878906 262.542969 617.957031 259.59375 C 618.523438 258.046875 619.3125 256.148438 619.707031 255.375 C 620.105469 254.601562 620.433594 253.667969 620.433594 253.292969 C 620.433594 252.925781 621.070312 251.433594 621.84375 249.980469 C 622.617188 248.523438 623.25 246.886719 623.25 246.339844 C 623.25 244.554688 626.570312 236.6875 630.585938 228.9375 C 636.628906 217.289062 641.292969 207.460938 641.667969 205.59375 C 641.855469 204.664062 642.785156 202.765625 643.738281 201.375 C 646 198.074219 651.71875 186.4375 656.730469 174.9375 C 657.609375 172.925781 658.660156 170.882812 659.066406 170.394531 C 659.480469 169.902344 659.8125 169.242188 659.8125 168.917969 C 659.8125 168.238281 661.449219 164.308594 663.742188 159.46875 C 666.339844 153.988281 668.8125 148.515625 668.8125 148.246094 C 668.8125 148.105469 669.964844 145.511719 671.371094 142.480469 C 672.777344 139.449219 674.957031 134.691406 676.222656 131.90625 C 677.488281 129.121094 680.617188 122.539062 683.175781 117.28125 C 685.738281 112.023438 688.289062 106.199219 688.84375 104.34375 C 689.398438 102.488281 690.121094 100.460938 690.449219 99.84375 C 691.410156 98.042969 693.210938 95.390625 693.894531 94.78125 C 695.128906 93.671875 700.855469 75.871094 701.71875 70.457031 C 701.925781 69.144531 702.328125 67.925781 702.613281 67.753906 C 703.316406 67.316406 703.261719 65.398438 702.527344 64.949219 C 702.199219 64.742188 701.480469 64.980469 700.9375 65.476562 C 700.386719 65.972656 699.757812 66.375 699.535156 66.375 C 698.480469 66.375 690.863281 73.191406 684 80.277344 C 670.660156 94.050781 667.417969 97.484375 666.84375 98.46875 C 666.535156 98.996094 665.269531 100.566406 664.03125 101.949219 C 662.792969 103.335938 661.023438 105.398438 660.09375 106.53125 C 659.164062 107.667969 657.300781 109.785156 655.953125 111.25 C 653.421875 113.992188 645.769531 123.234375 643.78125 125.945312 C 643.164062 126.792969 640.746094 129.742188 638.410156 132.507812 C 636.074219 135.269531 633.554688 138.417969 632.808594 139.5 C 632.066406 140.582031 630.183594 143.113281 628.621094 145.125 C 627.058594 147.136719 625.527344 149.1875 625.21875 149.6875 C 623.90625 151.800781 622.308594 154.003906 620.371094 156.375 C 619.234375 157.765625 616.765625 161.183594 614.886719 163.96875 C 608.296875 173.734375 606.445312 176.351562 605.351562 177.46875 C 604.746094 178.085938 603.804688 179.480469 603.261719 180.5625 C 602.714844 181.644531 601.191406 183.796875 599.875 185.347656 C 598.550781 186.894531 596.503906 189.703125 595.316406 191.582031 C 593.089844 195.109375 592.527344 195.964844 586.199219 205.484375 C 584.148438 208.570312 581.960938 211.9375 581.34375 212.96875 C 580.726562 213.996094 579.910156 215.292969 579.535156 215.839844 C 575.863281 221.238281 572.261719 226.855469 571.144531 228.933594 C 570.394531 230.328125 569.347656 232.128906 568.8125 232.941406 C 568.28125 233.75 565.945312 237.546875 563.628906 241.378906 C 561.308594 245.207031 559.222656 248.429688 558.988281 248.53125 C 558.753906 248.632812 558.5625 249.03125 558.5625 249.414062 C 558.5625 249.796875 557.035156 252.449219 555.171875 255.308594 C 553.308594 258.167969 550.609375 262.707031 549.179688 265.394531 C 547.746094 268.082031 545.992188 271.074219 545.277344 272.042969 C 544.566406 273.007812 542.804688 276.046875 541.363281 278.792969 C 539.925781 281.535156 538.539062 284.039062 538.285156 284.355469 C 538.035156 284.667969 536.703125 287.074219 535.332031 289.699219 C 533.957031 292.320312 531.871094 296.242188 530.695312 298.40625 C 529.519531 300.570312 528.042969 303.355469 527.417969 304.59375 C 526.792969 305.832031 526.140625 306.96875 525.96875 307.125 C 525.449219 307.59375 511.3125 336.230469 511.3125 336.816406 C 511.3125 337.117188 510.933594 337.679688 510.46875 338.0625 C 510.003906 338.445312 509.625 339.121094 509.625 339.558594 C 509.625 340.339844 505.683594 348.746094 504.699219 350.054688 C 504.425781 350.417969 503.484375 352.363281 502.605469 354.375 C 499.488281 361.515625 497.648438 365.363281 496.683594 366.75 C 496.148438 367.523438 495.519531 368.789062 495.285156 369.5625 C 495.050781 370.335938 492.886719 375.398438 490.480469 380.8125 C 488.074219 386.226562 484.035156 395.464844 481.503906 401.34375 C 478.972656 407.222656 476.574219 412.789062 476.171875 413.71875 C 475.765625 414.648438 475.253906 416.039062 475.027344 416.8125 C 474.546875 418.46875 469.425781 431.523438 468.300781 433.96875 C 467.871094 434.898438 466.847656 437.679688 466.015625 440.15625 C 465.191406 442.632812 464.324219 444.910156 464.101562 445.21875 C 463.871094 445.527344 463.109375 447.679688 462.402344 450 C 461.699219 452.320312 460.785156 454.976562 460.375 455.90625 C 459.378906 458.132812 457.503906 463.410156 452.570312 477.84375 C 452.042969 479.390625 450.988281 483.019531 450.230469 485.910156 C 449.472656 488.796875 448.507812 491.835938 448.085938 492.660156 C 447.667969 493.480469 447.152344 495.042969 446.945312 496.125 C 446.738281 497.207031 445.839844 500.246094 444.957031 502.875 C 442.460938 510.277344 441.5625 513.394531 441.5625 514.632812 C 441.5625 515.257812 441.078125 517.105469 440.488281 518.746094 C 439.898438 520.378906 439.238281 522.980469 439.027344 524.523438 C 438.816406 526.0625 438.054688 529.734375 437.339844 532.679688 C 435.355469 540.847656 433.191406 551.746094 431.980469 559.6875 C 431.722656 561.390625 431.113281 564.933594 430.628906 567.5625 C 428.316406 580.082031 428.035156 580.886719 426.207031 580.1875 C 425.703125 579.992188 425.152344 579.386719 424.976562 578.839844 C 424.636719 577.761719 426.042969 567.425781 426.671875 566.410156 C 427.378906 565.269531 428.527344 559.480469 429.425781 552.550781 C 429.917969 548.78125 430.847656 543.085938 431.503906 539.894531 C 433.925781 528.050781 435.738281 515.1875 437.023438 500.722656 C 437.308594 497.527344 437.714844 493.882812 437.929688 492.617188 C 438.140625 491.355469 438.636719 486.882812 439.035156 482.675781 C 439.429688 478.472656 440.03125 474.019531 440.367188 472.78125 C 441.207031 469.691406 441.753906 441.183594 440.980469 440.707031 C 439.8125 439.988281 434.367188 446.019531 431.175781 451.582031 C 430.871094 452.105469 430.003906 453.542969 429.242188 454.78125 C 427.105469 458.253906 418.378906 475.777344 416.90625 479.542969 C 416.183594 481.394531 415.105469 483.824219 414.515625 484.949219 C 413.921875 486.074219 413.4375 487.339844 413.4375 487.761719 C 413.4375 488.183594 412.714844 490.050781 411.839844 491.910156 C 410.957031 493.769531 410.054688 496.269531 409.832031 497.464844 C 409.605469 498.660156 409.199219 500.050781 408.933594 500.554688 C 407.785156 502.679688 403.34375 519.050781 401.890625 526.5 C 400.722656 532.484375 397.738281 545.699219 396.875 548.71875 C 396.433594 550.265625 395.894531 552.796875 395.675781 554.34375 C 395.457031 555.890625 394.539062 560.699219 393.636719 565.03125 C 392.738281 569.363281 391.285156 576.957031 390.410156 581.90625 C 387.933594 595.929688 387.121094 598.082031 384.816406 596.847656 C 384.160156 596.496094 383.625 595.730469 383.625 595.144531 C 383.625 593.152344 385.765625 581.375 387.230469 575.304688 C 388.03125 571.984375 388.6875 568.753906 388.6875 568.128906 C 388.6875 565.949219 394.121094 540.113281 396.019531 533.25 C 396.320312 532.167969 397.085938 528.75 397.730469 525.65625 C 398.371094 522.5625 399.652344 516.488281 400.582031 512.15625 C 401.507812 507.824219 402.597656 502.257812 403.003906 499.78125 C 403.917969 494.199219 405.785156 484.527344 407.242188 477.84375 C 407.851562 475.058594 408.503906 471.769531 408.699219 470.53125 C 409.007812 468.519531 409.644531 465.703125 412.691406 452.828125 C 413.808594 448.121094 416.621094 439.839844 417.363281 439.097656 C 417.679688 438.78125 417.9375 437.769531 417.9375 436.847656 C 417.9375 435.929688 418.230469 434.269531 418.585938 433.167969 C 419.832031 429.308594 421.515625 425.265625 421.773438 425.523438 C 421.914062 425.664062 422.105469 426.835938 422.199219 428.121094 C 422.363281 430.46875 421.589844 434.070312 418.875 443.53125 C 416.390625 452.199219 414.214844 461.480469 412.28125 471.65625 C 411.925781 473.511719 411.292969 476.550781 410.875 478.40625 C 409.910156 482.664062 409.257812 487.6875 409.667969 487.6875 C 409.839844 487.6875 410.742188 485.722656 411.671875 483.328125 C 414.875 475.058594 424.792969 454.019531 425.789062 453.378906 C 426.03125 453.222656 426.917969 451.8125 427.761719 450.253906 C 429.707031 446.628906 434.949219 439.496094 437.136719 437.484375 C 439.914062 434.933594 443.269531 435.628906 444.703125 439.058594 C 445.648438 441.324219 445.78125 451.425781 444.941406 457.160156 C 443.773438 465.144531 443.324219 467.789062 442.765625 469.96875 C 442.449219 471.207031 442.066406 476.523438 441.910156 481.78125 C 441.753906 487.039062 441.488281 493.621094 441.316406 496.40625 C 441.121094 499.582031 441.191406 501.050781 441.511719 500.34375 C 442.136719 498.9375 445.519531 488.554688 446.089844 486.28125 C 446.886719 483.089844 450.628906 471.257812 451.125 470.332031 C 451.402344 469.824219 452.558594 466.496094 453.695312 462.9375 C 454.832031 459.378906 456.074219 455.710938 456.460938 454.78125 C 456.847656 453.851562 457.859375 451.195312 458.71875 448.875 C 459.578125 446.554688 460.855469 443.390625 461.558594 441.84375 C 462.265625 440.296875 463.246094 437.660156 463.730469 435.980469 C 464.222656 434.304688 464.949219 432.40625 465.351562 431.761719 C 465.753906 431.121094 466.6875 428.570312 467.425781 426.09375 C 468.167969 423.617188 469.078125 421.214844 469.453125 420.75 C 469.824219 420.285156 470.519531 418.765625 470.996094 417.375 C 472.332031 413.449219 474.683594 407.355469 475.285156 406.265625 C 475.949219 405.050781 479.25 397.683594 479.25 397.40625 C 479.25 397.292969 479.980469 395.605469 480.875 393.648438 C 481.769531 391.691406 483.308594 388.195312 484.292969 385.875 C 485.277344 383.554688 486.574219 380.582031 487.167969 379.269531 C 487.761719 377.957031 488.25 376.777344 488.25 376.636719 C 488.25 376.113281 497.441406 357.054688 499.261719 353.8125 C 499.691406 353.039062 500.050781 351.996094 500.054688 351.496094 C 500.058594 350.996094 500.535156 349.988281 501.113281 349.246094 C 501.683594 348.511719 502.355469 347.273438 502.589844 346.5 C 502.828125 345.726562 503.496094 344.421875 504.074219 343.597656 C 504.652344 342.777344 505.125 341.84375 505.125 341.523438 C 505.125 341.199219 507.234375 336.8125 509.808594 331.765625 C 520.082031 311.65625 528.570312 295.308594 530.519531 291.886719 C 531.648438 289.902344 533.1875 287.140625 533.945312 285.75 C 536.894531 280.328125 540.308594 274.167969 540.957031 273.09375 C 541.332031 272.476562 542.308594 270.652344 543.121094 269.039062 C 543.941406 267.425781 544.964844 265.8125 545.398438 265.453125 C 545.832031 265.097656 546.1875 264.558594 546.1875 264.261719 C 546.1875 263.964844 547.011719 262.410156 548.019531 260.816406 C 550.257812 257.269531 550.8125 256.363281 552.730469 253.125 C 555.265625 248.839844 560.46875 240.101562 561.65625 238.140625 C 563.761719 234.65625 576.148438 215.175781 579.3125 210.375 C 581.042969 207.746094 582.71875 205.160156 583.027344 204.628906 C 583.816406 203.28125 596.082031 185.175781 599.902344 179.71875 C 601.632812 177.242188 603.917969 173.914062 604.976562 172.320312 C 606.035156 170.722656 607.921875 168.242188 609.167969 166.800781 C 610.417969 165.359375 611.4375 163.964844 611.4375 163.691406 C 611.4375 163.425781 611.761719 162.871094 612.152344 162.464844 C 612.546875 162.050781 613.785156 160.328125 614.90625 158.625 C 616.027344 156.921875 618.042969 154.089844 619.390625 152.328125 C 620.742188 150.566406 622.800781 147.78125 623.972656 146.140625 C 626.503906 142.597656 629.386719 138.851562 631.707031 136.097656 C 632.632812 135 633.957031 133.324219 634.648438 132.378906 C 637.101562 129.011719 642.953125 121.738281 645.597656 118.761719 C 647.074219 117.101562 648.382812 115.464844 648.511719 115.128906 C 648.710938 114.582031 654.441406 107.582031 655.265625 106.875 C 655.449219 106.71875 656.792969 105.164062 658.261719 103.414062 C 659.726562 101.667969 662.007812 99.121094 663.324219 97.757812 C 664.640625 96.394531 666.945312 93.773438 668.445312 91.933594 C 676.058594 82.601562 696 63.382812 700 61.523438 C 703.472656 59.90625 703.949219 59.886719 705.375 61.3125 C 706.246094 62.183594 706.5 63.1875 706.5 65.785156 C 706.5 67.628906 706.273438 69.714844 706.003906 70.425781 C 705.726562 71.136719 704.789062 73.996094 703.917969 76.78125 C 703.050781 79.566406 702.15625 81.972656 701.933594 82.128906 C 701.714844 82.285156 700.90625 84.058594 700.144531 86.066406 C 699.382812 88.074219 697.84375 91.492188 696.726562 93.65625 C 695.605469 95.820312 694.691406 97.902344 694.691406 98.277344 C 694.691406 98.65625 694.226562 99.796875 693.660156 100.808594 C 693.097656 101.828125 691.691406 105.0625 690.535156 108 C 689.371094 110.9375 687.824219 114.609375 687.082031 116.15625 C 686.34375 117.703125 685.246094 120.109375 684.644531 121.5 C 681.832031 128.011719 679.175781 133.976562 677.261719 138.09375 C 676.109375 140.570312 674.828125 143.542969 674.410156 144.703125 C 673.992188 145.863281 673.449219 146.8125 673.199219 146.8125 C 672.953125 146.8125 672.75 147.304688 672.75 147.90625 C 672.75 148.503906 672.523438 149.136719 672.25 149.304688 C 671.972656 149.476562 671.582031 150.285156 671.375 151.105469 C 671.167969 151.929688 670.128906 154.402344 669.0625 156.597656 C 667.996094 158.792969 667.125 160.777344 667.125 161.007812 C 667.125 161.238281 665.382812 165.035156 663.253906 169.449219 C 657.054688 182.285156 654.914062 186.933594 654.496094 188.4375 C 654.285156 189.210938 653.632812 191.109375 653.050781 192.65625 C 652.46875 194.203125 651.722656 196.53125 651.390625 197.832031 C 651.054688 199.128906 650.066406 200.910156 649.191406 201.785156 C 647.722656 203.253906 644.625 208.402344 644.625 209.375 C 644.625 209.605469 643.582031 212.011719 642.308594 214.722656 C 639.769531 220.140625 636.675781 226.84375 635.109375 230.34375 C 633.488281 233.957031 631.9375 237.363281 629.847656 241.875 C 626.726562 248.609375 625.941406 250.484375 625.46875 252.28125 C 624.785156 254.878906 620.363281 265.175781 619.765625 265.554688 C 619.082031 265.992188 617.714844 268.582031 616.742188 271.285156 C 616.320312 272.453125 614.609375 276.375 612.941406 280.003906 C 611.269531 283.625 607.925781 291.148438 605.503906 296.71875 C 603.085938 302.289062 600.769531 307.242188 600.367188 307.730469 C 599.957031 308.222656 599.625 308.921875 599.625 309.285156 C 599.625 309.652344 599.394531 310.390625 599.113281 310.929688 C 598.339844 312.414062 592.3125 326.699219 592.3125 327.050781 C 592.3125 327.21875 591.554688 328.925781 590.625 330.839844 C 589.695312 332.757812 588.9375 334.527344 588.9375 334.773438 C 588.9375 335.195312 586.464844 340.824219 584.675781 344.476562 C 584.234375 345.375 583.875 346.328125 583.875 346.59375 C 583.875 346.855469 583.402344 348.144531 582.824219 349.457031 C 578.859375 358.460938 577.6875 361.308594 577.6875 361.9375 C 577.6875 362.332031 576.789062 364.652344 575.6875 367.09375 C 572.828125 373.433594 572.957031 373.128906 569.902344 380.53125 C 568.371094 384.242188 566.558594 388.800781 565.871094 390.65625 C 565.183594 392.511719 564.15625 395.082031 563.585938 396.359375 C 563.019531 397.640625 562.378906 399.414062 562.164062 400.296875 C 561.949219 401.183594 561.050781 403.355469 560.167969 405.125 C 559.285156 406.894531 558.5625 408.804688 558.5625 409.371094 C 558.5625 409.9375 558.34375 410.640625 558.074219 410.933594 C 557.808594 411.230469 556.902344 413.492188 556.0625 415.96875 C 555.222656 418.445312 554.195312 421.226562 553.777344 422.15625 C 552.511719 424.945312 546.171875 441.425781 543.933594 447.75 C 541.652344 454.167969 539.039062 460.957031 538.246094 462.507812 C 537.976562 463.046875 537.75 463.878906 537.75 464.359375 C 537.75 464.839844 537.269531 466.175781 536.679688 467.328125 C 536.089844 468.480469 534.839844 471.699219 533.898438 474.476562 C 532.953125 477.257812 531.511719 481.304688 530.691406 483.46875 C 529.871094 485.632812 528.5 489.304688 527.652344 491.625 C 526.800781 493.945312 525.835938 496.476562 525.507812 497.25 C 525.175781 498.023438 523.429688 503.195312 521.625 508.738281 C 519.820312 514.285156 518.066406 519.097656 517.734375 519.4375 C 517.398438 519.769531 516.953125 521.113281 516.746094 522.421875 C 516.535156 523.730469 515.953125 525.75 515.449219 526.914062 C 514.097656 530.039062 513.785156 530.890625 512.425781 535.21875 C 511.746094 537.382812 510.601562 540.800781 509.878906 542.8125 C 509.160156 544.824219 508.191406 547.734375 507.730469 549.28125 C 507.269531 550.828125 506.628906 552.851562 506.304688 553.78125 C 504.488281 559.027344 499.433594 574.964844 496.941406 583.3125 C 496.523438 584.703125 495.425781 588.375 494.503906 591.46875 C 493.574219 594.5625 492.160156 599.371094 491.347656 602.15625 C 490.542969 604.941406 489.496094 608.359375 489.023438 609.75 C 488.550781 611.140625 487.945312 613.292969 487.679688 614.53125 C 487.410156 615.769531 486.941406 617.933594 486.632812 619.34375 C 486.324219 620.753906 485.828125 622.527344 485.523438 623.28125 C 484.878906 624.890625 483.183594 630.675781 481.492188 637.03125 C 480.835938 639.507812 479.6875 643.683594 478.941406 646.3125 C 478.191406 648.941406 477.0625 653.246094 476.425781 655.875 C 475.789062 658.503906 475.054688 661.414062 474.792969 662.34375 C 474.527344 663.273438 473.621094 666.6875 472.777344 669.9375 C 471.933594 673.1875 470.648438 677.867188 469.917969 680.34375 C 468.183594 686.257812 466.316406 694.121094 466.324219 695.53125 C 466.324219 696.304688 466.761719 695.886719 467.722656 694.207031 C 468.496094 692.863281 469.125 691.414062 469.125 690.988281 C 469.125 690.371094 471.820312 684.816406 474.160156 680.625 C 474.417969 680.160156 476.066406 676.617188 477.824219 672.75 C 480.964844 665.835938 482.582031 662.566406 488.109375 651.9375 C 492.203125 644.066406 498.929688 632.101562 499.835938 631.082031 C 500.269531 630.589844 500.625 629.976562 500.625 629.714844 C 500.625 629.453125 501.476562 627.957031 502.519531 626.386719 C 503.5625 624.816406 505.457031 621.886719 506.730469 619.875 C 510.171875 614.429688 516.628906 605.335938 522.230469 598.035156 C 523.496094 596.386719 525.242188 594.109375 526.113281 592.972656 C 527.921875 590.613281 539.605469 578.058594 541.613281 576.3125 C 542.347656 575.675781 544.121094 574.046875 545.550781 572.691406 C 553.644531 565.023438 562.246094 562.285156 567.886719 565.589844 C 574.519531 569.476562 576.925781 584.425781 575.394531 612.28125 C 574.871094 621.855469 575.335938 663.402344 575.984375 665.113281 C 576.296875 665.933594 576.96875 666.558594 577.53125 666.542969 C 579.230469 666.515625 584.824219 663.0625 588.4375 659.8125 C 590.328125 658.109375 593.175781 655.578125 594.765625 654.1875 C 596.351562 652.796875 598.65625 650.683594 599.878906 649.496094 C 601.105469 648.304688 602.753906 646.828125 603.542969 646.210938 C 604.328125 645.589844 606.503906 643.65625 608.378906 641.902344 C 610.257812 640.152344 613.039062 637.609375 614.566406 636.253906 C 616.097656 634.894531 619.007812 632.238281 621.039062 630.347656 C 623.070312 628.453125 625.730469 626.042969 626.945312 624.984375 C 628.160156 623.925781 630.800781 621.519531 632.816406 619.640625 C 634.828125 617.761719 638.230469 614.699219 640.378906 612.84375 C 642.53125 610.988281 645.441406 608.449219 646.847656 607.199219 C 651.300781 603.257812 655.917969 599.386719 657.648438 598.140625 C 658.566406 597.476562 660.636719 595.707031 662.246094 594.203125 C 663.855469 592.699219 666.8125 590.078125 668.816406 588.375 C 670.824219 586.671875 673.105469 584.648438 673.882812 583.875 C 674.664062 583.101562 677.09375 581.035156 679.285156 579.277344 C 681.476562 577.519531 683.625 575.75 684.058594 575.339844 C 684.492188 574.929688 686.035156 573.636719 687.488281 572.472656 C 689.949219 570.492188 691.59375 569.039062 702.488281 559.207031 C 708.566406 553.722656 708.660156 553.636719 714.378906 548.4375 C 722.082031 541.429688 727.800781 536.042969 735.414062 528.609375 C 739.140625 524.972656 742.382812 522 742.621094 522 C 742.867188 522 743.0625 522.300781 743.0625 522.667969 C 743.0625 523.738281 705.382812 560.8125 704.292969 560.8125 C 704.050781 560.8125 702.574219 562.144531 701.011719 563.765625 C 696.792969 568.144531 686.152344 577.902344 682.523438 580.714844 C 678.910156 583.523438 672.589844 589.074219 664.875 596.230469 C 662.246094 598.667969 659.546875 601.125 658.875 601.691406 C 658.199219 602.253906 656.597656 603.605469 655.304688 604.6875 C 652.574219 606.972656 651.367188 608.039062 645.378906 613.453125 C 642.953125 615.644531 639.449219 618.769531 637.59375 620.398438 C 632.652344 624.738281 629.714844 627.433594 623.746094 633.09375 C 620.816406 635.878906 616.683594 639.675781 614.5625 641.53125 C 612.445312 643.386719 609.914062 645.664062 608.933594 646.59375 C 607.957031 647.523438 606.285156 649.074219 605.21875 650.039062 C 604.152344 651.007812 602.652344 652.589844 601.878906 653.554688 C 601.109375 654.519531 600.203125 655.3125 599.863281 655.3125 C 599.101562 655.3125 591.75 662.863281 591.75 663.648438 C 591.75 664.730469 587.164062 667.847656 583.199219 669.457031 C 576.390625 672.230469 573.140625 671.671875 572.015625 667.539062 C 571.359375 665.132812 571.660156 619.378906 572.425781 604.6875 C 572.792969 597.664062 572.15625 590.648438 570.261719 580.78125 C 568.746094 572.890625 567.589844 570.144531 565.269531 568.949219 C 563.085938 567.816406 559.300781 568.222656 557.292969 569.808594 C 556.550781 570.390625 555.261719 571.035156 554.433594 571.246094 C 553.601562 571.457031 552.734375 571.917969 552.511719 572.269531 C 552.28125 572.621094 551.082031 573.660156 549.84375 574.574219 C 548.605469 575.488281 546.203125 577.550781 544.5 579.160156 C 542.796875 580.769531 540.457031 582.960938 539.296875 584.03125 C 538.136719 585.097656 537.1875 586.234375 537.1875 586.550781 C 537.1875 586.863281 536.5625 587.527344 535.800781 588.027344 C 534.574219 588.832031 532.800781 590.839844 527.042969 597.9375 C 524.417969 601.167969 513.222656 616.71875 512.441406 618.210938 C 512.042969 618.972656 511.363281 619.972656 510.933594 620.4375 C 510.5 620.902344 509.441406 622.421875 508.578125 623.8125 C 507.714844 625.203125 506.523438 627.078125 505.925781 627.976562 C 504.429688 630.234375 502.589844 633.285156 501.324219 635.625 C 500.734375 636.707031 499.5 638.859375 498.582031 640.40625 C 497.097656 642.910156 495.351562 646.265625 489.949219 657 C 489.089844 658.703125 486.703125 663.636719 484.640625 667.96875 C 482.578125 672.300781 480.507812 676.476562 480.035156 677.25 C 479.5625 678.023438 478.058594 681.0625 476.691406 684 C 475.320312 686.9375 473.820312 689.976562 473.363281 690.75 C 472.898438 691.523438 472.105469 693.035156 471.605469 694.109375 C 471.101562 695.1875 470.128906 696.582031 469.441406 697.203125 C 467.539062 698.933594 465.753906 702.417969 465.730469 704.421875 C 465.710938 706.308594 460.261719 717.863281 459.28125 718.085938 C 458.972656 718.160156 458.398438 718.09375 458.011719 717.933594 Z M 300.089844 633.164062 C 298.21875 630.3125 299.460938 598.097656 302.066406 581.90625 C 303.304688 574.1875 304.644531 564.773438 305.148438 560.25 C 305.597656 556.238281 307.542969 547.316406 308.835938 543.375 C 309.394531 541.671875 310.28125 538.507812 310.808594 536.34375 C 312.242188 530.441406 318.519531 517.878906 323.832031 510.28125 C 325.570312 507.792969 326.902344 504.9375 328.042969 501.242188 C 328.960938 498.273438 330.578125 493.417969 331.636719 490.457031 C 332.695312 487.492188 333.5625 484.832031 333.5625 484.550781 C 333.558594 483.847656 338.558594 468.007812 339.226562 466.59375 C 339.519531 465.976562 340.871094 462.179688 342.238281 458.15625 C 344.691406 450.929688 345.523438 448.757812 347.761719 443.8125 C 348.390625 442.421875 349.503906 439.699219 350.230469 437.765625 C 350.957031 435.832031 351.792969 433.808594 352.089844 433.265625 C 352.386719 432.722656 354.007812 429.371094 355.695312 425.8125 C 364.332031 407.625 371.128906 394.515625 373.195312 392.0625 C 373.589844 391.597656 374.882812 389.320312 376.074219 387 C 377.269531 384.679688 379.066406 381.589844 380.070312 380.140625 C 381.078125 378.6875 382.363281 376.664062 382.925781 375.640625 C 383.488281 374.621094 385.207031 371.910156 386.742188 369.625 C 388.277344 367.335938 390.019531 364.679688 390.617188 363.71875 C 391.214844 362.757812 393.496094 359.597656 395.679688 356.699219 C 397.867188 353.800781 400.472656 350.246094 401.464844 348.800781 C 402.457031 347.359375 405.28125 344.121094 407.742188 341.613281 C 413.660156 335.574219 416.566406 334.867188 419.035156 338.863281 C 420.097656 340.585938 420.125 340.867188 419.347656 342.351562 C 418.886719 343.242188 418.503906 344.292969 418.503906 344.691406 C 418.503906 345.085938 418.03125 346.855469 417.457031 348.628906 C 416.886719 350.394531 415.855469 353.867188 415.167969 356.34375 C 413.957031 360.707031 411.355469 369.464844 409.730469 374.625 C 409.292969 376.015625 408.933594 377.722656 408.933594 378.417969 C 408.9375 379.972656 406.410156 389.894531 405.273438 392.777344 C 404.8125 393.941406 404.4375 395.59375 404.4375 396.441406 C 404.4375 397.289062 403.910156 399.371094 403.261719 401.070312 C 402.617188 402.769531 401.742188 405.871094 401.320312 407.964844 C 400.898438 410.058594 400.375 412.058594 400.15625 412.410156 C 399.9375 412.765625 399.40625 414.59375 398.972656 416.480469 C 396.65625 426.59375 395.996094 429.253906 394.914062 432.84375 C 394.261719 435.007812 393.230469 438.554688 392.621094 440.71875 C 391.453125 444.871094 390.195312 449.175781 388.921875 453.375 C 388.496094 454.765625 387.859375 457.046875 387.496094 458.4375 C 387.136719 459.828125 386.003906 463.753906 384.980469 467.15625 C 380.558594 481.835938 378.894531 487.6875 378.171875 491.0625 C 378.007812 491.835938 376.597656 496.644531 375.046875 501.75 C 373.492188 506.855469 371.890625 512.171875 371.492188 513.5625 C 371.089844 514.953125 370.238281 517.542969 369.601562 519.3125 C 368.960938 521.085938 368.4375 522.996094 368.4375 523.5625 C 368.4375 524.128906 368.226562 524.828125 367.964844 525.121094 C 367.707031 525.417969 367.15625 527.175781 366.746094 529.03125 C 366.335938 530.886719 365.667969 533.078125 365.265625 533.894531 C 364.863281 534.710938 364.300781 536.359375 364.019531 537.550781 C 363.734375 538.742188 362.832031 541.996094 362.007812 544.78125 C 361.097656 547.855469 360.417969 551.722656 360.277344 554.625 C 360.144531 557.253906 359.800781 560.546875 359.503906 561.9375 C 359.210938 563.328125 358.453125 567.011719 357.824219 570.121094 C 357.191406 573.230469 356.535156 576.140625 356.371094 576.589844 C 356.199219 577.039062 355.949219 578.164062 355.808594 579.09375 C 354.960938 584.695312 352.566406 594.945312 351.847656 596.042969 C 351.378906 596.753906 351 598.5 351 599.925781 C 351 601.347656 350.742188 602.996094 350.425781 603.582031 C 350.109375 604.175781 349.605469 605.996094 349.304688 607.625 C 348.484375 612.074219 347.113281 614.777344 345.476562 615.1875 C 343.574219 615.664062 342.5625 614.171875 342.566406 610.90625 C 342.574219 607.742188 345.660156 588.824219 346.398438 587.425781 C 346.691406 586.867188 347.082031 585.394531 347.253906 584.15625 C 347.808594 580.261719 348.265625 578.015625 348.800781 576.5625 C 349.085938 575.789062 349.921875 572.5 350.660156 569.25 C 352.164062 562.621094 355.195312 551.011719 356.3125 547.59375 C 356.71875 546.355469 357.605469 543.445312 358.289062 541.125 C 360.660156 533.058594 363.332031 524.445312 368.050781 509.625 C 372.910156 494.367188 374.171875 490.214844 376.332031 482.34375 C 377.011719 479.867188 378.535156 474.554688 379.726562 470.53125 C 382.890625 459.816406 385.3125 451.054688 385.3125 450.324219 C 385.3125 449.746094 387.101562 443.769531 388.78125 438.75 C 389.832031 435.609375 393.722656 420.816406 394.554688 416.8125 C 395.277344 413.339844 396.121094 410.089844 398.792969 400.5 C 399.441406 398.179688 400.347656 394.507812 400.804688 392.34375 C 401.265625 390.179688 401.917969 387.773438 402.257812 387 C 403.238281 384.773438 404.941406 378.359375 404.667969 377.921875 C 404.535156 377.699219 404.910156 376.171875 405.503906 374.527344 C 406.097656 372.878906 406.75 370.519531 406.953125 369.28125 C 407.160156 368.042969 407.925781 365.132812 408.660156 362.8125 C 409.390625 360.492188 410.527344 356.441406 411.179688 353.8125 C 411.832031 351.183594 412.605469 348.253906 412.902344 347.300781 C 413.582031 345.113281 413.589844 343.125 412.921875 343.125 C 412.183594 343.125 408.4375 347.015625 406.125 350.179688 C 405.042969 351.664062 403.511719 353.53125 402.722656 354.328125 C 401.9375 355.128906 400.546875 356.921875 399.632812 358.3125 C 398.71875 359.703125 396.769531 362.394531 395.300781 364.292969 C 393.828125 366.191406 392.625 367.996094 392.625 368.300781 C 392.625 368.609375 392.285156 369.144531 391.871094 369.488281 C 390.90625 370.289062 385.386719 378.535156 383.371094 382.183594 C 382.53125 383.714844 380.597656 386.902344 379.078125 389.269531 C 377.558594 391.640625 376.3125 393.871094 376.3125 394.226562 C 376.3125 394.585938 376.085938 394.875 375.8125 394.875 C 375.535156 394.875 374.90625 395.824219 374.410156 396.984375 C 373.917969 398.144531 372.605469 400.738281 371.488281 402.75 C 370.378906 404.761719 368.347656 408.507812 366.972656 411.074219 C 365.597656 413.640625 364.226562 416.171875 363.925781 416.699219 C 363.625 417.226562 363.121094 418.289062 362.816406 419.0625 C 362.503906 419.835938 362.019531 420.847656 361.738281 421.3125 C 361.128906 422.308594 357.90625 429.191406 355.808594 433.96875 C 354.996094 435.824219 353.960938 438.0625 353.507812 438.9375 C 353.058594 439.8125 352.6875 440.761719 352.6875 441.050781 C 352.6875 441.339844 352.214844 442.644531 351.640625 443.957031 C 350.035156 447.628906 349.460938 449.078125 347.304688 454.957031 C 346.207031 457.953125 345.027344 461.164062 344.683594 462.09375 C 344.339844 463.023438 343.878906 464.035156 343.660156 464.34375 C 343.433594 464.652344 343.074219 465.980469 342.859375 467.292969 C 342.640625 468.605469 342.261719 469.808594 342.019531 469.957031 C 341.769531 470.109375 341.003906 472.074219 340.3125 474.320312 C 339.625 476.566406 338.175781 481.0625 337.097656 484.3125 C 334.820312 491.164062 333.03125 497.648438 333.015625 499.121094 C 333.003906 499.941406 333.285156 499.808594 334.40625 498.476562 C 335.179688 497.558594 335.8125 496.648438 335.8125 496.453125 C 335.8125 495.703125 338.667969 491.625 339.191406 491.625 C 340.152344 491.625 339.800781 497.042969 338.679688 499.59375 C 337.464844 502.355469 334.578125 505.6875 333.402344 505.6875 C 331.570312 505.6875 328.5 511.683594 328.5 515.253906 C 328.5 516.058594 328.238281 516.972656 327.921875 517.289062 C 327.292969 517.917969 324.628906 527.90625 322.613281 537.1875 C 321.910156 540.4375 320.933594 544.738281 320.441406 546.75 C 318.550781 554.535156 316.671875 563.582031 315.835938 568.96875 C 315.355469 572.0625 314.675781 575.734375 314.335938 577.125 C 313.992188 578.515625 313.527344 580.921875 313.304688 582.46875 C 312.351562 589.03125 310.386719 600.042969 309.863281 601.738281 C 309.226562 603.816406 309.066406 604.714844 308.523438 609.46875 C 308.3125 611.324219 307.914062 613.261719 307.636719 613.777344 C 307.363281 614.289062 306.992188 615.933594 306.816406 617.433594 C 306.636719 618.933594 306.097656 621.929688 305.621094 624.09375 C 305.144531 626.257812 304.527344 629.144531 304.253906 630.503906 C 303.425781 634.589844 301.730469 635.671875 300.089844 633.164062 Z M 305.199219 612.183594 C 304.496094 610.355469 303.75 611.679688 303.75 614.765625 C 303.75 619.824219 304.480469 620.839844 305.027344 616.542969 C 305.277344 614.558594 305.355469 612.59375 305.199219 612.183594 Z M 305.457031 604.125 C 305.867188 601.804688 306.292969 599.527344 306.402344 599.0625 C 306.511719 598.597656 306.824219 596.953125 307.097656 595.40625 C 307.371094 593.859375 308.011719 590.316406 308.519531 587.53125 C 309.027344 584.746094 309.652344 580.949219 309.90625 579.09375 C 310.160156 577.238281 310.683594 574.578125 311.0625 573.1875 C 311.441406 571.796875 312.117188 568.757812 312.558594 566.4375 C 315.035156 553.363281 315.578125 550.664062 316.332031 547.59375 C 316.789062 545.738281 317.824219 541.054688 318.628906 537.1875 C 319.4375 533.320312 320.472656 529.039062 320.929688 527.675781 C 321.386719 526.316406 321.628906 525.066406 321.46875 524.90625 C 321.074219 524.511719 319.542969 526.585938 319.519531 527.535156 C 319.5 528.277344 317.84375 531.566406 317.210938 532.125 C 316.867188 532.429688 315.347656 537.273438 313.066406 545.34375 C 311.488281 550.925781 308.582031 564.964844 307.996094 569.8125 C 307.789062 571.515625 307.007812 577.082031 306.257812 582.1875 C 305.503906 587.292969 304.769531 594.347656 304.625 597.871094 C 304.480469 601.390625 304.191406 605.441406 303.988281 606.871094 C 303.378906 611.148438 304.617188 608.828125 305.457031 604.125 Z M 350.417969 598.46875 C 350.429688 597.675781 350.945312 594.277344 351.5625 590.90625 C 352.882812 583.710938 352.824219 584.4375 352.125 584.4375 C 351.816406 584.4375 351.5625 585.054688 351.5625 585.8125 C 351.5625 586.566406 351.308594 587.339844 351 587.53125 C 350.691406 587.722656 350.4375 588.511719 350.4375 589.289062 C 350.4375 590.066406 350.179688 591.183594 349.863281 591.773438 C 349.546875 592.363281 349.171875 594.917969 349.03125 597.453125 C 348.800781 601.5625 348.863281 601.941406 349.589844 600.980469 C 350.035156 600.390625 350.410156 599.257812 350.417969 598.46875 Z M 352.902344 581.878906 C 353.09375 581.375 353 581.152344 352.683594 581.347656 C 352.375 581.535156 352.125 581.929688 352.125 582.21875 C 352.125 583.03125 352.527344 582.851562 352.902344 581.878906 Z M 355.839844 567.152344 C 355.652344 566.964844 355.519531 567.300781 355.542969 567.890625 C 355.570312 568.546875 355.707031 568.679688 355.882812 568.230469 C 356.046875 567.824219 356.027344 567.339844 355.839844 567.152344 Z M 744.546875 520.03125 C 744.722656 519.566406 745.253906 519.1875 745.722656 519.1875 C 746.417969 519.1875 746.445312 519.347656 745.875 520.03125 C 745.492188 520.496094 744.960938 520.875 744.699219 520.875 C 744.4375 520.875 744.371094 520.496094 744.546875 520.03125 Z M 747 518.199219 C 747 517.890625 747.378906 517.320312 747.84375 516.9375 C 748.316406 516.546875 748.6875 516.488281 748.6875 516.800781 C 748.6875 517.109375 748.308594 517.679688 747.84375 518.0625 C 747.371094 518.453125 747 518.511719 747 518.199219 Z M 560.53125 236.8125 C 560.339844 236.503906 560.453125 236.25 560.78125 236.25 C 561.109375 236.25 561.375 236.503906 561.375 236.8125 C 561.375 237.121094 561.261719 237.375 561.125 237.375 C 560.992188 237.375 560.722656 237.121094 560.53125 236.8125 Z M 728.972656 154.933594 C 728.152344 153.949219 728.246094 153.835938 730.230469 153.355469 C 732.238281 152.878906 732.707031 153.777344 731.015625 154.886719 C 729.824219 155.667969 729.585938 155.671875 728.972656 154.933594 Z M 389.25 24.21875 C 389.25 23.890625 389.503906 23.625 389.8125 23.625 C 390.121094 23.625 390.375 23.738281 390.375 23.875 C 390.375 24.007812 390.121094 24.277344 389.8125 24.46875 C 389.503906 24.660156 389.25 24.546875 389.25 24.21875 Z M 391.5 22.5 C 391.5 22.191406 391.753906 21.9375 392.0625 21.9375 C 392.371094 21.9375 392.625 22.191406 392.625 22.5 C 392.625 22.808594 392.371094 23.0625 392.0625 23.0625 C 391.753906 23.0625 391.5 22.808594 391.5 22.5 Z M 391.5 22.5 "/>
</g>
</svg>
